<?xml version="1.0" standalone="no"?>
<!DOCTYPE svg PUBLIC "-//W3C//DTD SVG 1.1//EN" "http://www.w3.org/Graphics/SVG/1.1/DTD/svg11.dtd" >
<svg xmlns="http://www.w3.org/2000/svg" xmlns:xlink="http://www.w3.org/1999/xlink" version="1.1" viewBox="-10 0 1034 1024">
   <path fill="#ffffff"
d="M624 360h-51q-7 0 -11 5t-5 12v295q0 7 4 11t12 5h51q45 0 82 -22t60 -59t22 -83t-22 -82t-59 -60t-83 -22zM623 655h-33v-262h34q36 0 66 18t47 48t18 65t-18 66t-48 47t-66 18zM492 377q0 -7 -5 -12t-12 -5h-164q-7 0 -11 5t-5 11t4 12t12 5h146q-5 16 -17 28l-75 75
q-4 3 -5 8t1 10t6 7t10 3h29q22 0 37 15t16 38v25q0 22 -15 37t-38 16h-33q-22 0 -38 -15l-12 -13q-5 -5 -12 -5t-11 5t-5 12t5 12l12 12q25 25 61 25h33q36 0 61 -25t25 -61v-25q0 -33 -22 -57t-54 -28l48 -48q28 -28 28 -67zM524 66q-92 0 -176 35t-148 99t-100 150
t-35 176t35 175t100 149t149 99t175 35t176 -35t149 -100t99 -149t35 -176q0 -125 -63 -231q-61 -104 -165 -165q-106 -62 -231 -62zM524 950q-116 0 -215 -58q-96 -57 -153 -153q-58 -99 -58 -215t58 -215q57 -96 153 -153q99 -58 215 -58t215 58q96 57 153 153
q58 99 58 215t-58 215q-57 96 -153 153q-99 58 -215 58z" />
</svg>
