<?xml version="1.0" standalone="no"?>
<!DOCTYPE svg PUBLIC "-//W3C//DTD SVG 1.1//EN" "http://www.w3.org/Graphics/SVG/1.1/DTD/svg11.dtd" >
<svg xmlns="http://www.w3.org/2000/svg" xmlns:xlink="http://www.w3.org/1999/xlink" version="1.1" viewBox="-10 0 1034 1024">
   <path fill="#ffffff"
d="M795 983h-541q-16 0 -30 -8t-21 -24t-6 -31t12 -29l279 -358q3 -4 3 -9t-3 -9l-279 -357q-10 -13 -11 -29t5 -31t21 -23t30 -9h541q24 0 40 16t17 41v106q0 14 -9 23t-24 10t-23 -9t-10 -24v-98h-517l271 344q17 22 17 49t-17 50l-269 344h515v-99q0 -14 9 -23t24 -10
t23 9t10 24v107q0 24 -16 40t-41 17z" />
</svg>
