<?xml version="1.0" standalone="no"?>
<!DOCTYPE svg PUBLIC "-//W3C//DTD SVG 1.1//EN" "http://www.w3.org/Graphics/SVG/1.1/DTD/svg11.dtd" >
<svg xmlns="http://www.w3.org/2000/svg" xmlns:xlink="http://www.w3.org/1999/xlink" version="1.1" viewBox="-10 0 1034 1024">
   <path fill="#ffffff"
d="M573 590q0 20 -14 34t-35 15t-34 -14t-15 -35t14 -34t35 -15t34 14t15 35zM786 0h-524q-35 0 -65 17t-48 48t-18 66v590q0 35 17 65t48 48t66 18h144l89 178q5 8 12 13t17 6t17 -5t12 -13l1 -1l89 -178h143q36 0 66 -17t48 -48t18 -66v-590q0 -35 -17 -65t-48 -48
t-67 -18zM852 721q0 27 -19 46t-47 19h-163q-9 0 -17 5t-13 13v1l-69 137l-69 -137q-4 -8 -11 -13t-18 -6h-164q-27 0 -46 -19t-19 -46v-590q0 -27 19 -46t46 -19h524q28 0 47 19t19 46v590zM524 459v0q13 0 22 -8t11 -22l16 -197q1 -1 1 -3q0 -13 -9 -22t-24 -10h-33
q-14 0 -23 9t-10 23l17 200q1 13 10 21t22 9v0z" />
</svg>
