<?xml version="1.0" standalone="no"?>
<!DOCTYPE svg PUBLIC "-//W3C//DTD SVG 1.1//EN" "http://www.w3.org/Graphics/SVG/1.1/DTD/svg11.dtd" >
<svg xmlns="http://www.w3.org/2000/svg" xmlns:xlink="http://www.w3.org/1999/xlink" version="1.1" viewBox="-10 0 1034 1024">
   <path fill="#ffffff"
d="M449 763l-239 -239l239 -239q7 -10 6 -22t-9 -20t-21 -10t-22 6l-262 262q-10 10 -10 23t10 24l262 262q6 7 15 10t18 1t15 -9t9 -16t-1 -18t-10 -15zM599 501q-10 10 -10 23t10 24l262 262q10 10 23 10t24 -10t10 -23t-10 -24l-239 -239l239 -239q8 -10 8 -23t-10 -22
t-22 -9t-23 8z" />
</svg>
