<?xml version="1.0" standalone="no"?>
<!DOCTYPE svg PUBLIC "-//W3C//DTD SVG 1.1//EN" "http://www.w3.org/Graphics/SVG/1.1/DTD/svg11.dtd" >
<svg xmlns="http://www.w3.org/2000/svg" xmlns:xlink="http://www.w3.org/1999/xlink" version="1.1" viewBox="-11 0 1069 1024">
   <path fill="#ffffff"
d="M268 511l46 -47l-235 -235l150 -150l75 74l-43 43q-6 4 -9 11t-2 14t7 13t13 7t15 -1t11 -10l42 -42l64 63l-43 43q-6 4 -8 11t-2 14t7 12t13 7t14 0t11 -9l43 -43l27 28l47 -46l-258 -258q-10 -10 -23 -10t-24 10l-196 196q-10 10 -10 23t10 24zM781 538l-47 46l28 28
l-42 42q-6 4 -8 11t-2 14t7 12t13 7t14 0t11 -9l42 -42l64 63l-43 43q-6 4 -9 11t-2 14t7 13t13 7t15 -1t11 -10l42 -42l75 74l-151 151l-235 -236l-46 47l258 258q10 9 23 9t23 -9l197 -197q9 -10 9 -23t-9 -23zM1012 37q-24 -24 -56 -32t-65 -1t-57 33l-732 732
q-32 33 -47 76l-53 160q-6 16 4 30t27 14q5 0 10 -2l160 -53q44 -15 77 -48l732 -732q24 -24 32 -56t0 -64t-32 -57zM233 900q-22 22 -51 31l-77 26l-14 -14l26 -77q10 -29 32 -51l605 -605l84 85zM965 168l-80 81l-85 -85l81 -81q18 -15 41 -14t39 18t18 40t-14 41z" />
</svg>
