<?xml version="1.0" standalone="no"?>
<!DOCTYPE svg PUBLIC "-//W3C//DTD SVG 1.1//EN" "http://www.w3.org/Graphics/SVG/1.1/DTD/svg11.dtd" >
<svg xmlns="http://www.w3.org/2000/svg" xmlns:xlink="http://www.w3.org/1999/xlink" version="1.1" viewBox="-10 0 1034 1024">
   <path fill="#ffffff"
d="M918 557q20 0 36 -11t25 -30t4 -38t-18 -34t-34 -18t-38 4t-30 25t-11 37q0 27 19 46t47 19zM918 459q14 0 23 9t10 24t-9 23t-24 10t-23 -9t-10 -24t9 -23t24 -10zM688 557q20 0 37 -11t25 -29t4 -38t-18 -34t-34 -19t-38 4t-30 25t-11 37q0 27 19 46t46 19zM688 459
q14 0 23 9t10 24t-9 23t-24 10t-23 -9t-10 -24t9 -23t24 -10zM366 174q-4 -10 -15 -10t-15 10l-269 688q-2 6 0 12t9 9t12 0t9 -9l99 -251h302l93 251q2 5 6 8t8 3t7 -1q7 -2 9 -8t1 -13zM208 590l142 -364l135 364h-277z" />
</svg>
