<?xml version="1.0" standalone="no"?>
<!DOCTYPE svg PUBLIC "-//W3C//DTD SVG 1.1//EN" "http://www.w3.org/Graphics/SVG/1.1/DTD/svg11.dtd" >
<svg xmlns="http://www.w3.org/2000/svg" xmlns:xlink="http://www.w3.org/1999/xlink" version="1.1" viewBox="-10 0 1034 1024">
   <path fill="#ffffff"
d="M915 413q-4 -9 -12 -14t-18 -6h-257l124 -349q4 -11 0 -22t-14 -17t-21 -6t-20 11l-557 590q-6 7 -8 16t2 19t12 14t18 6h257l-124 350q-6 16 4 30t27 14q14 -1 23 -11l557 -589q7 -7 9 -17t-2 -19zM410 880l88 -246q6 -16 -4 -30t-27 -14h-227l398 -422l-87 247
q-6 16 4 30t27 14h227z" />
</svg>
