<?xml version="1.0" standalone="no"?>
<!DOCTYPE svg PUBLIC "-//W3C//DTD SVG 1.1//EN" "http://www.w3.org/Graphics/SVG/1.1/DTD/svg11.dtd" >
<svg xmlns="http://www.w3.org/2000/svg" xmlns:xlink="http://www.w3.org/1999/xlink" version="1.1" viewBox="-10 0 1034 1024">
   <path fill="#ffffff"
d="M967 885h-869v-738q0 -7 -4 -11t-12 -5t-11 4t-5 12v754q0 7 4 12t12 5h885q7 0 11 -5t5 -11t-4 -12t-12 -5zM606 426q40 0 73 -20t54 -53t20 -74t-20 -73t-53 -54t-74 -20t-73 20t-54 53t-20 74t20 73t53 54t74 20zM606 164q35 0 64 19t43 51t7 66t-31 60t-59 32t-66 -6
t-52 -43t-20 -64q0 -31 15 -57t42 -42t57 -16zM295 623q36 0 66 -17t47 -48t18 -66t-17 -66t-48 -47t-66 -18t-66 17t-47 48t-18 66t17 66t48 47t66 18zM295 393q40 0 69 28t29 69t-28 70t-69 29t-70 -28t-29 -69q0 -20 7 -38t21 -32t32 -21t38 -8zM426 672q0 31 15 57
t42 42t58 16t57 -15t42 -42t16 -58t-15 -57t-42 -42t-58 -16t-57 15t-42 42t-16 58zM623 672q0 34 -24 58t-58 24t-58 -24t-24 -58t24 -58t58 -24t58 24t24 58zM852 688q36 0 66 -17t47 -48t18 -66t-17 -66t-48 -47t-66 -18t-66 17t-47 48t-18 66t17 66t48 47t66 18z
M852 459q41 0 69 28t29 70t-28 69t-70 29t-69 -28t-29 -70t28 -69t70 -29z" />
</svg>
