<?xml version="1.0" standalone="no"?>
<!DOCTYPE svg PUBLIC "-//W3C//DTD SVG 1.1//EN" "http://www.w3.org/Graphics/SVG/1.1/DTD/svg11.dtd" >
<svg xmlns="http://www.w3.org/2000/svg" xmlns:xlink="http://www.w3.org/1999/xlink" version="1.1" viewBox="-10 0 1070 1024">
   <path fill="#ffffff"
d="M1016 852h-950v-688q0 -14 -9 -23t-24 -10t-23 9t-10 24v721q0 14 9 23t24 10h983q14 0 23 -9t10 -24t-9 -23t-24 -10zM393 655q0 36 17 66t48 47t66 18t66 -17t47 -48t18 -66t-17 -66t-48 -47t-66 -18t-66 17t-47 48t-18 66zM590 655q0 20 -11 37t-29 25t-38 4t-34 -18
t-19 -33t4 -39t24 -30t37 -11q27 0 46 19t20 46zM262 590q36 0 66 -17t47 -48t18 -66t-17 -66t-48 -47t-66 -18t-66 17t-47 48t-18 66t17 66t48 47t66 18zM262 393q20 0 37 11t25 29t4 38t-18 34t-33 19t-39 -4t-30 -24t-11 -37q0 -27 19 -46t46 -20zM852 655q36 0 66 -17
t47 -48t18 -66t-17 -66t-48 -47t-66 -18t-66 17t-47 48t-18 66t17 66t48 47t66 18zM852 459q20 0 36 11t25 30t4 38t-18 34t-34 18t-38 -4t-30 -25t-11 -37q0 -27 19 -46t47 -19zM557 459q45 0 82 -22t60 -59t22 -83t-22 -82t-59 -60t-83 -22t-82 22t-60 59t-22 83t22 82
t59 60t83 22zM557 197q41 0 69 28t29 70t-28 69t-70 29t-69 -28t-29 -70t28 -69t70 -29z" />
</svg>
