<?xml version="1.0" standalone="no"?>
<!DOCTYPE svg PUBLIC "-//W3C//DTD SVG 1.1//EN" "http://www.w3.org/Graphics/SVG/1.1/DTD/svg11.dtd" >
<svg xmlns="http://www.w3.org/2000/svg" xmlns:xlink="http://www.w3.org/1999/xlink" version="1.1" viewBox="-10 0 1034 1024">
   <path fill="#ffffff"
d="M524 492q-7 0 -11 4t-5 12v164q0 7 5 12t11 5t12 -5t5 -12v-164q0 -7 -5 -11t-12 -5zM967 524h-181v-164q26 0 50 -10t43 -28t29 -42t10 -51v-147q0 -7 -5 -11t-11 -5t-12 4t-5 12v147q0 20 -7 38t-22 32t-32 21t-38 8h-65q-4 -51 -31 -93t-71 -66t-94 -24t-95 24t-71 66
t-31 93h-66q-20 0 -38 -7t-31 -22t-21 -32t-8 -38v-147q0 -7 -5 -11t-11 -5t-12 4t-5 12v147q0 36 17 66t48 47t66 18v164h-180q-7 0 -11 5t-5 11t4 12t12 5h180v33q0 47 17 91l-110 109q-18 18 -28 42t-10 51v84q0 7 5 11t11 5t12 -4t5 -12v-84q0 -19 7 -37t22 -32
l100 -101q34 64 96 101t135 38t135 -37t97 -102l100 101q14 14 21 32t8 37v84q0 7 5 11t11 5t12 -4t5 -12v-84q0 -26 -10 -50t-29 -43l-109 -109q16 -44 16 -91v-33h181q7 0 11 -5t5 -11t-4 -12t-12 -5zM524 164q45 0 82 22t60 59t22 83h-328q0 -45 22 -82t59 -60t83 -22z
M524 819q-62 0 -114 -31t-84 -83t-31 -115v-230h459v230q0 62 -31 114t-84 84t-115 31z" />
</svg>
