<?xml version="1.0" standalone="no"?>
<!DOCTYPE svg PUBLIC "-//W3C//DTD SVG 1.1//EN" "http://www.w3.org/Graphics/SVG/1.1/DTD/svg11.dtd" >
<svg xmlns="http://www.w3.org/2000/svg" xmlns:xlink="http://www.w3.org/1999/xlink" version="1.1" viewBox="-10 0 1034 1024">
   <path fill="#ffffff"
d="M786 0h-524q-36 0 -66 17t-47 48t-18 66v787q0 36 17 66t48 47t66 18h524q26 0 50 -10t43 -28t29 -42t10 -51v-787q0 -26 -10 -50t-28 -43t-43 -28t-51 -10zM852 918q0 27 -19 46t-47 19h-524q-27 0 -46 -19t-19 -46v-590h655v590zM852 262h-655v-131q0 -27 19 -46
t46 -19h524q27 0 46 19t20 46v131zM328 510q21 0 36 -15t15 -36t-15 -36t-36 -15t-36 15t-15 36t15 36t36 15zM524 510q21 0 36 -15t15 -36t-15 -36t-36 -15t-36 15t-15 36t15 36t36 15zM721 510q21 0 36 -15t15 -36t-15 -36t-36 -15t-36 15t-15 36t15 36t36 15zM328 706
q21 0 36 -15t15 -36t-15 -36t-36 -15t-36 15t-15 36t15 36t36 15zM524 706q21 0 36 -15t15 -36t-15 -36t-36 -15t-36 15t-15 36t15 36t36 15zM721 706q21 0 36 -15t15 -36t-15 -36t-36 -15t-36 15t-15 36t15 36t36 15zM524 903q21 0 36 -15t15 -36t-15 -36t-36 -15t-36 15
t-15 36t15 36t36 15zM721 903q21 0 36 -15t15 -36t-15 -36t-36 -15t-36 15t-15 36t15 36t36 15zM328 903q21 0 36 -15t15 -36t-15 -36t-36 -15t-36 15t-15 36t15 36t36 15z" />
</svg>
