<?xml version="1.0" standalone="no"?>
<!DOCTYPE svg PUBLIC "-//W3C//DTD SVG 1.1//EN" "http://www.w3.org/Graphics/SVG/1.1/DTD/svg11.dtd" >
<svg xmlns="http://www.w3.org/2000/svg" xmlns:xlink="http://www.w3.org/1999/xlink" version="1.1" viewBox="-10 0 1069 1024">
   <path fill="#ffffff"
d="M885 721h-99v-98q0 -15 -9 -24t-23 -9t-23 9t-10 24v131q0 14 9 23t24 9h131q14 0 23 -9t10 -23t-9 -23t-24 -10zM360 852h-229q-29 0 -47 -18t-18 -48v-458h720v32q0 15 9 24t24 9t23 -9t10 -24v-163q0 -35 -17 -65t-48 -48t-66 -18h-66v-33q0 -15 -9 -24t-23 -9t-23 9
t-10 24v33h-328v-33q0 -15 -9 -24t-24 -9t-23 9t-9 24v33h-66q-35 0 -65 17t-48 48t-18 66v589q0 36 17 66t48 48t66 18h229q15 0 24 -9t9 -24t-9 -23t-24 -10zM131 131h66v33q0 15 9 24t23 9t23 -9t10 -24v-33h328v33q0 15 9 24t24 9t23 -9t9 -24v-33h66q29 0 47 18t18 48
v65h-720v-65q0 -30 18 -48t47 -18zM754 459q-81 0 -149 40q-67 39 -106 106q-40 68 -40 149t40 149q39 67 106 106q68 40 149 40t149 -40q67 -39 106 -106q40 -68 40 -149t-40 -149q-39 -67 -106 -106q-68 -40 -149 -40zM754 983q-61 0 -114 -31t-84 -84t-32 -114t31 -114
t85 -84t114 -32t114 31t84 85t31 114t-31 114t-84 84t-114 31zM229 524q-14 0 -23 -9t-9 -23t9 -23t23 -10t23 9t10 24t-9 23t-24 9zM426 524q-15 0 -24 -9t-9 -23t9 -23t24 -10t24 9t9 24t-9 23t-24 9zM229 721q-14 0 -23 -9t-9 -24t9 -24t23 -9t23 9t10 24t-9 24t-24 9z
" />
</svg>
