<?xml version="1.0" standalone="no"?>
<!DOCTYPE svg PUBLIC "-//W3C//DTD SVG 1.1//EN" "http://www.w3.org/Graphics/SVG/1.1/DTD/svg11.dtd" >
<svg xmlns="http://www.w3.org/2000/svg" xmlns:xlink="http://www.w3.org/1999/xlink" version="1.1" viewBox="-10 0 1034 1024">
   <path fill="#ffffff"
d="M885 164h-99v-49q0 -7 -4 -12t-12 -5t-11 5t-5 12v49h-459v-49q0 -7 -4 -12t-12 -5t-12 5t-5 12v49h-98q-40 0 -69 28t-29 70v590q0 40 29 69t69 29h721q41 0 69 -29t29 -69v-590q0 -41 -28 -69t-70 -29zM164 197h98v49q0 7 5 11t12 5t11 -4t5 -12v-49h459v49q0 7 4 11
t12 5t11 -4t5 -12v-49h99q27 0 46 19t19 46v98h-852v-98q0 -27 19 -46t47 -19zM885 918h-721q-27 0 -46 -19t-20 -47v-459h852v459q0 27 -19 46t-46 20zM819 524q0 14 -9 23t-24 10t-23 -9t-9 -24t9 -23t23 -9t23 9t10 23zM688 524q0 13 -9 23t-23 10t-23 -9t-10 -24t9 -23
t23 -9t23 9t10 23zM557 524q0 13 -9 23t-23 10t-23 -9t-10 -24t9 -23t23 -9t23 9t10 23zM426 524q0 13 -9 23t-23 10t-24 -10t-10 -23t9 -22t24 -10t23 9t10 23zM295 524q0 13 -9 23t-23 10t-24 -10t-10 -23t9 -22t24 -10t23 9t10 23zM295 655q0 13 -9 23t-23 10t-24 -10
t-10 -23t9 -22t24 -10t23 9t10 23zM819 655q0 14 -9 23t-24 10t-23 -9t-9 -24t9 -23t23 -9t23 9t10 23zM688 655q0 13 -9 23t-23 10t-23 -9t-10 -24t9 -23t23 -9t23 9t10 23zM557 655q0 13 -9 23t-23 10t-23 -9t-10 -24t9 -23t23 -9t23 9t10 23zM426 655q0 13 -9 23t-23 10
t-24 -10t-10 -23t9 -22t24 -10t23 9t10 23zM295 786q0 14 -9 23t-24 10t-23 -9t-10 -24t9 -23t24 -9t23 9t10 23zM688 786q0 14 -9 23t-24 10t-23 -9t-9 -24t9 -23t23 -9t23 9t10 23zM557 786q0 14 -9 23t-24 10t-23 -9t-9 -24t9 -23t23 -9t23 9t10 23zM426 786q0 14 -9 23
t-24 10t-23 -9t-10 -24t9 -23t24 -9t23 9t10 23z" />
</svg>
