<?xml version="1.0" standalone="no"?>
<!DOCTYPE svg PUBLIC "-//W3C//DTD SVG 1.1//EN" "http://www.w3.org/Graphics/SVG/1.1/DTD/svg11.dtd" >
<svg xmlns="http://www.w3.org/2000/svg" xmlns:xlink="http://www.w3.org/1999/xlink" version="1.1" viewBox="-10 0 1034 1024">
   <path fill="#ffffff"
d="M295 131h-197q-14 0 -23 9t-9 24v393q0 15 9 24t23 9h197q15 0 24 -9t9 -24v-393q0 -15 -9 -24t-24 -9zM295 164v65h-197v-65h197zM98 557v-295h197v295h-197zM623 131h-197q-15 0 -24 9t-9 24v295q0 14 9 23t24 10h197q14 0 23 -9t9 -24v-295q0 -15 -9 -24t-23 -9z
M623 164v65h-197v-65h197zM426 459v-197h197v197h-197zM295 655h-197q-14 0 -23 9t-9 24v197q0 14 9 23t23 10h197q15 0 24 -9t9 -24v-197q0 -15 -9 -24t-24 -9zM295 688v66h-197v-66h197zM98 885v-99h197v99h-197zM623 557h-197q-15 0 -24 9t-9 24v295q0 14 9 23t24 10h197
q14 0 23 -9t9 -24v-295q0 -15 -9 -24t-23 -9zM623 590v65h-197v-65h197zM426 885v-197h197v197h-197zM950 459h-196q-15 0 -24 9t-9 24v393q0 14 9 23t24 10h196q15 0 24 -9t9 -24v-393q0 -15 -9 -24t-24 -9zM950 492v65h-196v-65h196zM754 885v-295h196v295h-196zM950 131
h-196q-15 0 -24 9t-9 24v196q0 15 9 24t24 9h196q15 0 24 -9t9 -24v-196q0 -15 -9 -24t-24 -9zM950 164v65h-196v-65h196zM754 360v-98h196v98h-196z" />
</svg>
