<?xml version="1.0" standalone="no"?>
<!DOCTYPE svg PUBLIC "-//W3C//DTD SVG 1.1//EN" "http://www.w3.org/Graphics/SVG/1.1/DTD/svg11.dtd" >
<svg xmlns="http://www.w3.org/2000/svg" xmlns:xlink="http://www.w3.org/1999/xlink" version="1.1" viewBox="-10 0 1036 1024">
   <path fill="#ffffff"
d="M983 557h-655q-14 0 -23 9t-10 24v426q0 14 9 23t24 10h655q14 0 23 -9t10 -24v-426q0 -14 -9 -23t-24 -10zM983 786h-197v-196h197v196zM557 786v-196h197v196h-197zM754 819v197h-197v-197h197zM328 573v17h196v196h-196v-196v-17zM328 819h196v197h-196v-197z
M786 1016v-197h197v197h-197zM365 98q60 0 107 37t61 95q2 8 9 11t14 0q29 -16 62 -16q36 0 66 17t47 48t18 66q0 11 -2 21q-2 8 4 14t15 4q47 -8 87 16t56 70q2 6 8 9t13 1t9 -8t1 -13q-17 -49 -59 -79t-95 -31h-4v-4q0 -45 -22 -82t-59 -60t-83 -22q-31 0 -59 11
q-17 -46 -52 -79t-81 -48t-95 -7t-88 37t-61 72t-23 93q0 28 8 55q-43 13 -74 43t-47 72t-10 85t31 81t63 57t83 24v0q7 0 12 -5t5 -11t-5 -12t-12 -5q-38 -2 -70 -21t-52 -50t-22 -70t12 -72t44 -57t66 -31q8 -1 11 -8t1 -14q-15 -40 -10 -82t29 -78t62 -54t81 -20z" />
</svg>
