<?xml version="1.0" standalone="no"?>
<!DOCTYPE svg PUBLIC "-//W3C//DTD SVG 1.1//EN" "http://www.w3.org/Graphics/SVG/1.1/DTD/svg11.dtd" >
<svg xmlns="http://www.w3.org/2000/svg" xmlns:xlink="http://www.w3.org/1999/xlink" version="1.1" viewBox="-10 0 1034 1024">
   <path fill="#ffffff"
d="M285 523q5 1 10 1q10 0 19 -6t12 -16l131 -393q4 -9 3 -18t-7 -17t-15 -11t-18 -1t-16 10t-9 16l-131 393q-4 13 2 25t19 17zM164 459q10 0 18 -5t12 -15t2 -19t-9 -17l-108 -108l108 -108q7 -10 6 -22t-9 -20t-21 -10t-22 6l-131 131q-9 10 -9 23t9 23l131 131
q9 10 23 10zM534 449q10 9 23 9t23 -9l131 -131q9 -10 9 -23t-9 -23l-131 -131q-10 -7 -22 -6t-20 9t-10 21t6 22l108 108l-108 108q-9 10 -9 23t9 23zM852 66h-98q-12 2 -19 11t-8 21t7 22t20 11h98q27 0 46 19t20 47v655q0 27 -19 46t-47 20h-655q-27 0 -46 -19t-20 -47
v-229q-2 -12 -11 -19t-21 -8t-22 7t-11 20v229q0 36 17 66t48 47t66 18h655q36 0 66 -17t47 -48t18 -66v-655q0 -36 -17 -66t-48 -47t-66 -18z" />
</svg>
