<?xml version="1.0" standalone="no"?>
<!DOCTYPE svg PUBLIC "-//W3C//DTD SVG 1.1//EN" "http://www.w3.org/Graphics/SVG/1.1/DTD/svg11.dtd" >
<svg xmlns="http://www.w3.org/2000/svg" xmlns:xlink="http://www.w3.org/1999/xlink" version="1.1" viewBox="-10 0 1034 1024">
   <path fill="#ffffff"
d="M561 734q-24 6 -38 26t-12 44t20 42t42 18q6 0 11 -1q24 -7 37 -28t9 -46t-24 -40t-45 -15zM600 817q-8 12 -22 14q-9 2 -17 -1t-15 -10t-7 -16t1 -17t11 -14t16 -7h6q9 0 16 5t12 12t5 17t-6 17zM798 607q-17 -10 -37 -9t-37 13t-22 31t-2 39t21 32t35 16t38 -6t28 -27
q13 -23 6 -49t-30 -40zM794 680q-5 9 -14 13t-19 4t-17 -8t-10 -17t0 -19t11 -16t18 -6t19 4q12 7 15 20t-3 25zM261 411q-18 -6 -37 -1t-31 19t-16 34t3 36t24 29t35 12q18 6 37 1t31 -19t16 -34t-3 -36t-24 -29t-35 -12zM269 503q-11 8 -24 5t-21 -14t-6 -24t14 -20t24 -6
q10 2 17 9t9 16t-1 19t-12 15zM763 367q-22 8 -34 28t-10 43t21 40t41 17t43 -12t25 -37t-4 -44t-31 -32q-25 -12 -51 -3zM797 460q-9 4 -18 3t-16 -7t-10 -15t-2 -18t8 -16t16 -9q5 -2 11 -2q12 0 21 8t11 19t-4 22t-17 15zM642 201q-22 -8 -44 -1t-35 28t-9 44t20 40
t41 17t43 -13t25 -37t-4 -44q-12 -25 -37 -34zM650 274q-3 9 -11 15t-19 6t-18 -4t-13 -14t-3 -20t9 -17t17 -9t19 1q13 5 18 17t1 25zM352 226q-24 14 -31 40t7 49t40 31q8 3 17 3q18 0 34 -8t25 -24t10 -34t-8 -35t-25 -25t-35 -8t-34 11zM401 312q-11 6 -24 3t-20 -15
q-5 -9 -5 -19t7 -18t15 -11t20 -1t16 10t8 18t-3 19t-14 14zM849 200q-66 -65 -150 -99t-176 -35t-177 36t-149 102t-98 151t-33 177q2 43 24 79t59 56t80 21h56q29 -3 51 16t24 50v65q-1 43 20 80t57 60t80 24h7q45 0 90 -9q124 -25 218 -110t131 -206t7 -245t-121 -213z
M948 568q-11 108 -73 197q-60 87 -153 136q-96 51 -205 49q-34 -1 -63 -19t-45 -47t-16 -65v-65q0 -21 -8 -40t-24 -33t-35 -20t-41 -6h-56q-34 1 -63 -15t-48 -45t-20 -63q0 -46 9 -91q23 -109 96 -192q70 -81 171 -119q104 -39 213 -22t198 84q85 66 128 164
q45 101 35 212z" />
</svg>
