<?xml version="1.0" standalone="no"?>
<!DOCTYPE svg PUBLIC "-//W3C//DTD SVG 1.1//EN" "http://www.w3.org/Graphics/SVG/1.1/DTD/svg11.dtd" >
<svg xmlns="http://www.w3.org/2000/svg" xmlns:xlink="http://www.w3.org/1999/xlink" version="1.1" viewBox="-10 0 1034 1024">
   <path fill="#ffffff"
d="M885 0h65q14 0 23 9t10 24v65q0 13 -9 23t-24 10h-65q-13 0 -23 -10t-10 -23v-65q0 -14 10 -23t23 -10zM98 0h66q14 0 23 9t10 24v65q0 13 -9 23t-24 10h-66q-13 0 -22 -9t-10 -24v-65q0 -14 9 -23t23 -10zM885 918h65q14 0 23 9t10 23v66q0 13 -9 23t-24 10h-65
q-13 0 -23 -10t-10 -23v-66q0 -13 9 -22t24 -10zM98 918h66q14 0 23 9t10 23v66q0 13 -9 23t-24 10h-66q-13 0 -22 -9t-10 -24v-66q0 -14 9 -23t23 -9zM754 328h-99v-230q0 -14 -9 -23t-23 -9h-328q-14 0 -23 9t-10 23v590q0 13 10 23t23 10h98v229q0 13 10 23t23 10h328
q13 0 22 -9t10 -24v-590q0 -14 -9 -23t-23 -9zM393 360v295h-65v-524h262v197h-164q-14 0 -23 9t-10 23zM590 393v262h-131v-262h131zM721 918h-262v-197h164q13 0 22 -9t10 -24v-295h66v525z" />
</svg>
