<?xml version="1.0" standalone="no"?>
<!DOCTYPE svg PUBLIC "-//W3C//DTD SVG 1.1//EN" "http://www.w3.org/Graphics/SVG/1.1/DTD/svg11.dtd" >
<svg xmlns="http://www.w3.org/2000/svg" xmlns:xlink="http://www.w3.org/1999/xlink" version="1.1" viewBox="-10 0 1069 1024">
   <path fill="#ffffff"
d="M983 131h-917q-27 0 -46 19t-20 47v655q0 27 19 46t47 20h917q27 0 46 -19t20 -47v-655q0 -27 -19 -46t-47 -20zM983 262h-262v-65h262v65zM393 262v-65h262v65h-262zM655 328v524h-262v-524h262zM328 197v65h-262v-65h262zM66 328h262v524h-262v-524zM983 885v-33h-262
v-524h262v524v33z" />
</svg>
