<?xml version="1.0" standalone="no"?>
<!DOCTYPE svg PUBLIC "-//W3C//DTD SVG 1.1//EN" "http://www.w3.org/Graphics/SVG/1.1/DTD/svg11.dtd" >
<svg xmlns="http://www.w3.org/2000/svg" xmlns:xlink="http://www.w3.org/1999/xlink" version="1.1" viewBox="-10 0 1034 1024">
   <path fill="#ffffff"
d="M524 66q-124 0 -231 63q-104 60 -164 164q-63 107 -63 231t63 231q60 104 164 165q107 63 231 63t231 -63q104 -60 165 -164q63 -107 63 -231t-63 -232q-60 -104 -164 -164q-107 -63 -232 -63zM524 950q-116 0 -215 -58q-96 -56 -153 -153q-58 -99 -58 -215t58 -215
q57 -97 153 -153q99 -58 215 -58t215 58q96 57 153 153q58 99 58 215t-58 215q-57 96 -153 153q-99 58 -215 58zM749 300q-5 -5 -12 -5q-2 0 -8 2h1l-230 121q-53 29 -81 81l-1 1l-121 230q-2 4 -2 7q0 7 4 12t12 5q4 0 8 -2l229 -122q53 -29 82 -81v-1l122 -229q2 -4 2 -9
t-5 -10zM601 533q-23 44 -67 68h-1l-182 97l96 -183q24 -44 67 -67l1 -1l183 -96zM557 524q0 13 -9 23t-23 10t-23 -9t-10 -24t9 -23t23 -9t23 9t10 23zM180 492q-7 0 -11 4t-5 12v33q0 7 4 11t12 5t12 -4t5 -12v-33q0 -7 -5 -11t-12 -5zM868 492q-7 0 -11 4t-5 12v33
q0 7 4 11t12 5t12 -4t5 -12v-33q0 -7 -5 -11t-12 -5zM304 258q-5 -5 -11 -5t-12 5l-23 23q-5 5 -5 12t4 11t12 5v0q7 0 12 -5l23 -23q5 -5 5 -11t-5 -12zM768 744l-24 24q-4 5 -4 11t4 11t12 5t12 -4l23 -23q5 -5 5 -12t-5 -11t-11 -5t-12 4zM541 852h-33q-7 0 -11 4t-5 12
t4 12t12 5h33q7 0 11 -5t5 -12t-4 -11t-12 -5zM508 197h33q7 0 11 -5t5 -12t-4 -11t-12 -5h-33q-7 0 -11 4t-5 12t4 12t12 5z" />
</svg>
