<?xml version="1.0" standalone="no"?>
<!DOCTYPE svg PUBLIC "-//W3C//DTD SVG 1.1//EN" "http://www.w3.org/Graphics/SVG/1.1/DTD/svg11.dtd" >
<svg xmlns="http://www.w3.org/2000/svg" xmlns:xlink="http://www.w3.org/1999/xlink" version="1.1" viewBox="-10 0 1034 1024">
   <path fill="#ffffff"
d="M966 266l-426 -229q-16 -8 -31 0l-426 229q-8 4 -12 12t-5 17v459q0 9 4 17t13 12l426 229q15 8 31 0l426 -229q8 -4 12 -12t5 -17v-459q0 -9 -4 -17t-13 -12zM492 928l-361 -194v-384l361 194v384zM524 487l-357 -192l357 -192l357 192zM918 734l-361 194v-384l361 -194
v384z" />
</svg>
