<?xml version="1.0" standalone="no"?>
<!DOCTYPE svg PUBLIC "-//W3C//DTD SVG 1.1//EN" "http://www.w3.org/Graphics/SVG/1.1/DTD/svg11.dtd" >
<svg xmlns="http://www.w3.org/2000/svg" xmlns:xlink="http://www.w3.org/1999/xlink" version="1.1" viewBox="-10 0 1045 1024">
   <path fill="#ffffff"
d="M672 496l-230 -131q-8 -4 -16 -4t-16 4t-12 11t-5 17v262q0 14 9 23t24 10q9 0 16 -4l230 -131q8 -4 12 -12t4 -16t-4 -17t-12 -12zM459 599v-149l130 74zM919 573q-11 -8 -18 -22t-8 -26t7 -26t19 -23l79 -65q20 -15 25 -39t-8 -46l-73 -127q-12 -21 -35 -29t-47 1
l-96 36q-12 4 -25 4q-16 1 -30 -6q-10 -6 -19 -19t-11 -27l-16 -102q-3 -24 -21 -40t-44 -17h-147q-25 0 -43 16t-22 41l-17 102q-2 13 -10 26t-19 20q-14 7 -30 7t-25 -5l-96 -36q-23 -9 -46 -1t-36 29l-73 127q-13 21 -8 45t25 40l79 65q10 8 17 22t8 26t-7 26t-18 23
l-79 65q-20 15 -24 39t7 46l73 127q12 21 35 29t47 -2l96 -36q14 -4 25 -4q16 0 30 7q10 6 18 19t11 27l17 101q3 25 21 41t44 17h147q25 0 43 -16t22 -42l16 -101q2 -13 11 -26t19 -20q14 -7 30 -7q9 0 25 4l96 36q23 9 46 2t36 -29l73 -127q12 -21 8 -45t-25 -40zM883 816
l-96 -36q-23 -8 -48 -8q-35 0 -63 15q-23 14 -40 39t-21 54l-17 103h-147l-17 -103q-4 -28 -21 -53t-40 -40q-27 -15 -63 -15q-26 0 -48 8l-96 36l-76 -126l81 -66q22 -18 36 -46t14 -53t-13 -54t-36 -46l-80 -65l72 -129l98 37q21 9 48 9q35 0 62 -15q23 -14 40 -39t22 -54
l17 -101v-2h147v2l17 101q4 28 21 53t40 40q28 15 63 15q26 0 48 -9l98 -37l71 129l-79 65q-22 18 -35 46t-14 54t13 53t36 46l81 66z" />
</svg>
