<?xml version="1.0" standalone="no"?>
<!DOCTYPE svg PUBLIC "-//W3C//DTD SVG 1.1//EN" "http://www.w3.org/Graphics/SVG/1.1/DTD/svg11.dtd" >
<svg xmlns="http://www.w3.org/2000/svg" xmlns:xlink="http://www.w3.org/1999/xlink" version="1.1" viewBox="-10 0 1069 1024">
   <path fill="#ffffff"
d="M1042 504q-89 -112 -193 -188q-162 -119 -325 -119t-325 119q-105 77 -192 188q-7 9 -7 20t7 20q86 111 192 189q162 119 325 119t325 -119q105 -77 193 -189q7 -9 7 -20t-7 -20zM524 786q-136 0 -277 -100q-92 -66 -172 -162q81 -97 172 -161q141 -101 277 -101t278 101
q91 65 172 161q-80 96 -172 162q-142 100 -278 100zM678 524q0 40 -20 74t-56 54t-78 20t-77 -20t-55 -54t-21 -74t20 -74t56 -53t77 -20t77 20t56 53t21 74z" />
</svg>
