<?xml version="1.0" standalone="no"?>
<!DOCTYPE svg PUBLIC "-//W3C//DTD SVG 1.1//EN" "http://www.w3.org/Graphics/SVG/1.1/DTD/svg11.dtd" >
<svg xmlns="http://www.w3.org/2000/svg" xmlns:xlink="http://www.w3.org/1999/xlink" version="1.1" viewBox="-10 0 1064 1024">
   <path fill="#ffffff"
d="M1016 492h-35q-8 -112 -67 -207q-57 -93 -150 -151q-95 -59 -207 -67v-34q-2 -12 -11 -19t-21 -8t-22 7t-11 20v34q-112 8 -208 67q-93 57 -150 150q-59 96 -67 208h-34q-12 2 -19 11t-8 21t7 22t20 11h34q8 112 67 207q58 93 151 150q95 59 207 67v35q2 12 11 19t21 8
t22 -7t11 -20v-35q112 -8 207 -67q93 -57 150 -150q59 -95 67 -207h35q12 -2 19 -11t8 -21t-7 -22t-20 -11zM557 916v-162q-2 -12 -11 -19t-21 -8t-22 7t-11 20v162q-94 -8 -175 -58q-78 -48 -126 -126q-50 -81 -58 -175h162q12 -2 19 -11t8 -21t-7 -22t-20 -11h-162
q8 -94 58 -175q48 -78 126 -126q81 -50 175 -58v162q2 12 11 19t21 8t22 -7t11 -20v-162q94 8 175 58q78 48 126 126q50 81 58 175h-162q-12 2 -19 11t-8 21t7 22t20 11h162q-8 94 -58 175q-48 78 -126 126q-81 50 -175 58zM590 524q2 19 -6 36t-24 28t-35 10t-36 -10
t-24 -27t-6 -37q3 -25 22 -41t43 -17t44 16t22 42z" />
</svg>
