<?xml version="1.0" standalone="no"?>
<!DOCTYPE svg PUBLIC "-//W3C//DTD SVG 1.1//EN" "http://www.w3.org/Graphics/SVG/1.1/DTD/svg11.dtd" >
<svg xmlns="http://www.w3.org/2000/svg" xmlns:xlink="http://www.w3.org/1999/xlink" version="1.1" viewBox="-10 0 1034 1024">
   <path fill="#ffffff"
d="M786 590q-47 0 -88 21t-70 60l-179 -90q10 -30 10 -57t-10 -57l179 -89q28 38 69 59t89 22q54 0 99 -26t71 -72t27 -99t-26 -99t-72 -71t-99 -26t-99 26t-71 72t-26 98q0 25 9 57l-179 90q-28 -38 -69 -59t-89 -22q-53 0 -98 26t-71 72t-27 98t26 98t72 72t98 27
q47 0 88 -21t70 -60l179 89q-9 28 -9 57q0 54 26 99t72 71t98 27t98 -26t72 -72t27 -99t-26 -99t-72 -71t-99 -26zM786 131q36 0 66 17t48 48t18 66t-17 65t-48 48t-67 18t-66 -17t-47 -48t-18 -66t17 -65t48 -48t66 -18zM262 655q-35 0 -65 -17t-48 -48t-18 -66t17 -66
t48 -47t66 -18t65 17t48 48t18 66t-17 65t-48 48t-66 18zM786 918q-35 0 -65 -17t-48 -48t-18 -67t17 -66t48 -47t66 -18t65 17t49 48t18 66t-18 65t-48 49t-66 18z" />
</svg>
