<?xml version="1.0" standalone="no"?>
<!DOCTYPE svg PUBLIC "-//W3C//DTD SVG 1.1//EN" "http://www.w3.org/Graphics/SVG/1.1/DTD/svg11.dtd" >
<svg xmlns="http://www.w3.org/2000/svg" xmlns:xlink="http://www.w3.org/1999/xlink" version="1.1" viewBox="-10 0 1070 1024">
   <path fill="#ffffff"
d="M459 590q7 0 11 -5t5 -12t-4 -11t-12 -5q-102 0 -188 -20q-80 -19 -126 -49t-47 -62v-130q46 44 142 70t218 27t220 -27q95 -26 141 -70v146q0 7 5 12t12 5t11 -5t5 -12v-213q0 -45 -52 -82t-141 -59q-92 -22 -200 -22t-200 22q-88 21 -140 58t-53 83v590q0 45 52 82
t141 60q91 22 200 22q7 0 11 -4t5 -12t-4 -12t-12 -5q-102 0 -188 -20q-80 -19 -126 -49t-47 -62v-130q46 44 142 70t219 27q7 0 11 -4t5 -12t-4 -11t-12 -5q-102 0 -188 -20q-80 -19 -126 -49t-47 -62v-131q46 44 142 71q98 27 219 27zM459 98q102 0 188 20q79 19 125 49
t47 62t-46 61t-126 50q-86 20 -188 20t-188 -20q-79 -19 -126 -49t-47 -62t46 -61t127 -50q86 -20 188 -20zM803 557q-67 0 -123 33t-90 89t-33 124t33 123t89 90t124 33t123 -33t90 -90t33 -123t-33 -123t-90 -90t-123 -33zM803 1016q-58 0 -107 -29t-77 -77t-29 -107
t28 -106t78 -78t107 -29t107 28t77 78t29 107t-29 106t-77 78t-107 29zM803 754q-7 0 -12 4t-5 12v164q0 7 5 11t12 5t11 -4t5 -12v-164q0 -7 -4 -11t-12 -5zM819 672q0 7 -4 11t-12 5t-12 -4t-5 -12t5 -12t12 -5t11 5t5 12z" />
</svg>
