<?xml version="1.0" standalone="no"?>
<!DOCTYPE svg PUBLIC "-//W3C//DTD SVG 1.1//EN" "http://www.w3.org/Graphics/SVG/1.1/DTD/svg11.dtd" >
<svg xmlns="http://www.w3.org/2000/svg" xmlns:xlink="http://www.w3.org/1999/xlink" version="1.1" viewBox="-10 0 1034 1024">
   <path fill="#ffffff"
d="M382 225q-5 -5 -5 -12t5 -12l131 -131q5 -5 11 -5t12 5l131 131q5 5 5 12t-4 11t-12 5t-12 -4l-103 -104v321q0 7 -5 12t-11 5t-12 -5t-5 -12v-321l-103 104q-5 5 -11 5t-12 -5zM786 475v393q0 33 -34 59t-94 41t-134 15t-134 -15t-94 -41t-34 -59v-393q0 -36 43 -64
t118 -42q7 -1 12 3t7 10t-2 13t-11 7q-59 10 -96 30t-38 42t29 40t81 30q54 13 119 13t120 -13q50 -11 80 -30t30 -39q0 -22 -37 -42t-97 -31q-7 -1 -11 -6t-3 -13t6 -11t13 -3q75 14 118 42t43 64zM754 794q-34 27 -94 42t-136 16t-135 -15t-94 -43v74q0 20 29 39t81 30
q54 13 119 13t120 -13q50 -11 80 -30t30 -39v-74zM754 663q-34 27 -94 42t-136 16t-135 -15t-94 -43v74q0 20 29 39t81 30q54 13 119 13t120 -13q50 -11 80 -30t30 -39v-74zM754 532q-34 27 -94 42t-136 16t-135 -15t-94 -43v74q0 20 29 39t81 30q54 13 119 13t120 -13
q50 -11 80 -30t30 -39v-74z" />
</svg>
