<?xml version="1.0" standalone="no"?>
<!DOCTYPE svg PUBLIC "-//W3C//DTD SVG 1.1//EN" "http://www.w3.org/Graphics/SVG/1.1/DTD/svg11.dtd" >
<svg xmlns="http://www.w3.org/2000/svg" xmlns:xlink="http://www.w3.org/1999/xlink" version="1.1" viewBox="-10 0 1034 1024">
   <path fill="#ffffff"
d="M977 823l-327 -262q-8 -7 -17 -3t-10 15v416q0 11 10 15q3 1 6 1q8 0 13 -6l111 -133l82 173q4 10 15 10q4 0 7 -2q6 -3 8 -9t0 -13l-83 -173h175q5 0 9 -3t7 -8t0 -10t-6 -8zM767 819q-8 0 -13 6l-99 119l1 -336l264 211h-153zM459 590q7 0 12 -5t5 -11t-5 -12t-12 -5
q-102 0 -188 -20q-80 -19 -126 -49t-47 -62v-130q46 44 142 70t218 27t220 -27q95 -26 141 -70v146q0 7 5 12t11 5t12 -5t5 -12v-213q0 -45 -52 -82t-141 -59q-92 -22 -200 -22t-200 22q-88 21 -140 58t-53 83v590q0 45 52 82t141 60q91 22 200 22q7 0 12 -5t5 -11t-5 -12
t-12 -5q-102 0 -188 -20q-80 -19 -126 -49t-47 -62v-130q46 44 142 70t219 27q7 0 11 -4t5 -12t-4 -11t-12 -5q-102 0 -188 -20q-80 -19 -126 -49t-47 -62v-131q46 44 142 71q98 27 219 27zM459 98q102 0 188 20q79 19 125 49t47 62t-46 61t-126 50q-86 20 -188 20t-188 -20
q-79 -19 -126 -49t-47 -62t46 -61t127 -50q86 -20 188 -20z" />
</svg>
