<?xml version="1.0" standalone="no"?>
<!DOCTYPE svg PUBLIC "-//W3C//DTD SVG 1.1//EN" "http://www.w3.org/Graphics/SVG/1.1/DTD/svg11.dtd" >
<svg xmlns="http://www.w3.org/2000/svg" xmlns:xlink="http://www.w3.org/1999/xlink" version="1.1" viewBox="-10 0 1069 1024">
   <path fill="#ffffff"
d="M735 329l-198 198l-14 -3q-27 0 -46 19t-20 48t19 47t47 19t47 -19t20 -47q0 -13 -5 -25l193 -193q9 -9 9 -21t-9 -22t-21 -9t-22 8v0zM878 555q-14 0 -24 10t-11 24t10 25t25 11t25 -10t11 -25v0q0 -15 -10 -25t-26 -10v0zM176 555q-14 0 -24 10t-11 25t10 25t25 10
t24 -10t11 -25t-10 -24t-25 -11zM562 239q0 14 -10 24t-25 11t-25 -10t-10 -25t10 -24t25 -11t24 10t11 25zM314 342q0 14 -10 24t-25 11t-24 -10t-11 -25t10 -25t25 -11t24 10t11 26zM524 66q-106 0 -204 41q-94 40 -166 112t-113 167q-41 97 -41 204v0q0 4 1 8v0
q2 110 47 209q43 95 120 167h1q9 9 21 9t21 -7l125 -97q35 -27 80 -27h216q45 0 81 28l-1 -1l126 97q7 7 20 7t22 -8v0q80 -73 124 -172q45 -101 45 -214q0 -106 -41 -204q-40 -93 -112 -165t-167 -113q-98 -41 -204 -41h-1zM855 907l-103 -80q-52 -40 -120 -41h-216
q-69 2 -120 42v-1l-103 80q-60 -63 -92 -143q-34 -82 -34 -172v-2q0 -4 -1 -8v0q1 -124 64 -230q61 -103 164 -163q106 -62 230 -62t232 63q104 61 164 165q63 106 63 231v5q0 90 -34 173q-33 80 -94 143z" />
</svg>
