<?xml version="1.0" standalone="no"?>
<!DOCTYPE svg PUBLIC "-//W3C//DTD SVG 1.1//EN" "http://www.w3.org/Graphics/SVG/1.1/DTD/svg11.dtd" >
<svg xmlns="http://www.w3.org/2000/svg" xmlns:xlink="http://www.w3.org/1999/xlink" version="1.1" viewBox="-10 0 1034 1024">
   <path fill="#ffffff"
d="M726 332l-169 169q-13 -9 -33 -9q-28 0 -47 19t-20 47t19 47t48 19t47 -19t19 -47q0 -17 -10 -34h1l168 -168q5 -5 5 -12t-5 -11t-11 -5t-12 4zM524 590q-13 0 -22 -9t-10 -24t9 -23t23 -10t23 9t10 23t-9 24t-24 10zM557 262q0 13 -9 23t-23 10t-23 -9t-10 -24t9 -23
t23 -10t23 9t10 24zM262 557q0 14 -9 23t-24 10t-23 -9t-9 -24t9 -23t23 -10t23 9t10 24zM852 557q0 13 -9 23t-23 10t-24 -10t-10 -23t10 -23t23 -10t23 9t10 24zM293 325q-10 10 -10 23t9 23t24 10t23 -9t10 -23t-9 -23t-24 -10t-23 9zM524 98q-124 0 -231 63
q-104 61 -164 165q-63 107 -63 231l-1 15q0 96 41 182q40 83 111 143v0q4 5 10 5t12 -4v0l146 -115q30 -24 69 -24h141q39 0 69 24l146 115q4 4 10 4t11 -5v0q72 -64 111 -151q41 -89 41 -189q0 -124 -63 -231q-60 -104 -164 -165q-107 -63 -231 -63h-1zM819 864l-135 -107
q-18 -15 -41 -23t-48 -8h-141q-49 0 -90 31l-135 107q-61 -54 -95 -129q-36 -77 -36 -162v-17v1v-1q0 -116 58 -215q57 -96 153 -153q99 -58 215 -58t215 58q96 57 153 153q58 99 58 215q0 89 -35 170q-34 78 -96 138v0z" />
</svg>
