<?xml version="1.0" standalone="no"?>
<!DOCTYPE svg PUBLIC "-//W3C//DTD SVG 1.1//EN" "http://www.w3.org/Graphics/SVG/1.1/DTD/svg11.dtd" >
<svg xmlns="http://www.w3.org/2000/svg" xmlns:xlink="http://www.w3.org/1999/xlink" version="1.1" viewBox="-10 0 1034 1024">
   <path fill="#ffffff"
d="M332 382q-5 5 -5 11t5 12l181 180q5 5 11 5t12 -5l180 -180q5 -5 5 -11t-5 -12t-11 -5t-12 5l-152 152v-452q0 -7 -5 -11t-11 -5t-12 4t-5 12v452l-152 -152q-5 -5 -12 -5t-12 5zM710 128q-6 -2 -12 1t-9 9t1 12t9 9q76 25 132 68t88 99t31 116q0 85 -58 157
q-57 71 -153 112q-99 43 -215 43t-215 -43q-96 -41 -153 -112q-58 -72 -58 -157q0 -60 31 -115t88 -99t132 -69q6 -2 9 -8t2 -12t-9 -10t-12 -1q-82 27 -144 75t-95 110t-34 129v164q0 93 63 174q60 77 164 123q107 47 231 47t231 -47q104 -46 165 -123q63 -81 63 -174v-164
q0 -67 -33 -129t-96 -110t-144 -75zM950 606q0 85 -58 157q-57 71 -153 112q-99 43 -215 43t-215 -43q-96 -41 -153 -112q-58 -72 -58 -157v-37q34 63 98 112t147 77q86 28 181 28t181 -28q84 -27 148 -76t97 -113v37z" />
</svg>
