<?xml version="1.0" standalone="no"?>
<!DOCTYPE svg PUBLIC "-//W3C//DTD SVG 1.1//EN" "http://www.w3.org/Graphics/SVG/1.1/DTD/svg11.dtd" >
<svg xmlns="http://www.w3.org/2000/svg" xmlns:xlink="http://www.w3.org/1999/xlink" version="1.1" viewBox="-10 0 1069 1024">
   <path fill="#ffffff"
d="M524 0q-107 0 -204 42q-94 39 -166 112t-112 167q-41 97 -41 203t41 204q40 94 112 166t167 113q98 41 204 41t204 -41q94 -40 166 -112t113 -167q41 -97 41 -204t-42 -204q-39 -94 -112 -166t-167 -113q-97 -41 -204 -41zM721 524q0 60 -33 110t-88 73t-114 12t-101 -54
t-54 -101t11 -114t72 -88t110 -34q53 0 98 26t72 72t27 98zM524 983q-120 -3 -223 -63q-100 -59 -160 -158q-62 -102 -66 -222t50 -226q54 -103 149 -169q99 -67 218 -78v199q-82 10 -143 65t-80 136t13 157t102 121t152 41t148 -55l140 140q-62 54 -139 83t-161 29z
M871 824l-140 -140q44 -55 53 -125t-17 -135t-83 -107t-127 -51v-199q86 6 163 42t136 98t92 141t35 165t-27 165t-85 146z" />
</svg>
