<?xml version="1.0" standalone="no"?>
<!DOCTYPE svg PUBLIC "-//W3C//DTD SVG 1.1//EN" "http://www.w3.org/Graphics/SVG/1.1/DTD/svg11.dtd" >
<svg xmlns="http://www.w3.org/2000/svg" xmlns:xlink="http://www.w3.org/1999/xlink" version="1.1" viewBox="-10 0 1034 1024">
   <path fill="#ffffff"
d="M524 66q-92 0 -176 35t-148 99t-100 150t-35 176t35 175t100 149t149 99t175 35t176 -35t149 -100t99 -149t35 -176q0 -125 -63 -231q-61 -104 -165 -165q-106 -62 -231 -62zM950 524q0 80 -29 155t-85 134l-139 -139q42 -49 52 -113t-13 -124t-77 -98t-118 -43v-197
q112 4 207 63q93 58 147 152q55 98 55 210zM524 328q60 0 110 33t73 88t12 114t-54 101t-102 54t-114 -11t-88 -73t-33 -110q0 -53 26 -98t72 -71t98 -27zM98 524q0 -113 56 -210q54 -95 146 -152q95 -59 208 -63v197q-75 5 -132 53t-75 121t10 142t93 108t139 33t131 -56
l139 139q-61 57 -139 86t-161 28t-160 -35t-135 -93t-89 -137t-31 -161z" />
</svg>
