<?xml version="1.0" standalone="no"?>
<!DOCTYPE svg PUBLIC "-//W3C//DTD SVG 1.1//EN" "http://www.w3.org/Graphics/SVG/1.1/DTD/svg11.dtd" >
<svg xmlns="http://www.w3.org/2000/svg" xmlns:xlink="http://www.w3.org/1999/xlink" version="1.1" viewBox="-10 0 1034 1024">
   <path fill="#ffffff"
d="M967 721q-7 0 -12 4t-5 12v115q0 41 -28 69t-70 29h-655q-20 0 -38 -7t-32 -21t-21 -32t-8 -38v-115q0 -7 -4 -11t-12 -5t-11 4t-5 12v115q0 36 17 66t48 47t66 18h655q36 0 66 -17t47 -48t18 -66v-115q0 -7 -4 -11t-12 -5zM513 716q5 5 11 5t12 -5l229 -229q5 -5 5 -11
t-5 -12t-11 -5t-12 5l-201 201v-583q0 -7 -5 -11t-11 -5t-12 4t-5 12v583l-202 -201q-5 -5 -11 -5t-12 5t-5 11t5 12z" />
</svg>
