<?xml version="1.0" standalone="no"?>
<!DOCTYPE svg PUBLIC "-//W3C//DTD SVG 1.1//EN" "http://www.w3.org/Graphics/SVG/1.1/DTD/svg11.dtd" >
<svg xmlns="http://www.w3.org/2000/svg" xmlns:xlink="http://www.w3.org/1999/xlink" version="1.1" viewBox="-10 0 1034 1024">
   <path fill="#ffffff"
d="M974 141l-132 -131q-10 -7 -22 -6t-20 9t-10 21t6 22l75 75h-609q-36 0 -66 17t-47 48t-18 66v361q0 14 9 23t24 10t23 -9t10 -24v-361q0 -27 19 -46t46 -19h609l-75 75q-7 10 -6 22t9 20t21 10t22 -6l132 -131q9 -10 9 -23t-9 -23zM885 393q-14 0 -23 9t-10 24v360
q0 27 -19 46t-47 20h-609l76 -75q10 -10 10 -23t-10 -24t-23 -10t-24 10l-131 131q-10 10 -10 23t10 24l131 131q6 7 15 10t18 1t15 -8t9 -16t0 -18t-10 -15l-76 -75h609q26 0 50 -10t43 -28t29 -43t10 -51v-360q0 -14 -9 -23t-24 -10zM360 459h328q14 0 23 -9t10 -24
t-9 -23t-24 -10h-328q-14 0 -23 9t-10 24t9 23t24 10zM360 655h328q12 -2 19 -11t8 -21t-7 -22t-20 -11h-328q-12 2 -19 11t-8 21t7 22t20 11z" />
</svg>
