<?xml version="1.0" standalone="no"?>
<!DOCTYPE svg PUBLIC "-//W3C//DTD SVG 1.1//EN" "http://www.w3.org/Graphics/SVG/1.1/DTD/svg11.dtd" >
<svg xmlns="http://www.w3.org/2000/svg" xmlns:xlink="http://www.w3.org/1999/xlink" version="1.1" viewBox="-11 0 1070 1024">
   <path fill="#ffffff"
d="M655 524q0 36 -17 66t-48 47t-66 18t-66 -17t-47 -48t-18 -66t17 -66t48 -47t66 -18t66 17t47 48t18 66zM262 524q0 36 -17 66t-48 47t-66 18t-66 -17t-47 -48t-18 -66t17 -66t48 -47t66 -18t66 17t47 48t18 66zM1049 524q0 36 -17 66t-48 47t-66 18t-66 -17t-47 -48
t-18 -66t17 -66t48 -47t66 -18t66 17t47 48t18 66z" />
</svg>
