<?xml version="1.0" standalone="no"?>
<!DOCTYPE svg PUBLIC "-//W3C//DTD SVG 1.1//EN" "http://www.w3.org/Graphics/SVG/1.1/DTD/svg11.dtd" >
<svg xmlns="http://www.w3.org/2000/svg" xmlns:xlink="http://www.w3.org/1999/xlink" version="1.1" viewBox="-10 0 1070 1024">
   <path fill="#ffffff"
d="M524 393q-35 0 -65 17t-48 48t-18 66t17 65t48 48t66 18t65 -17t48 -48t18 -66t-17 -66t-48 -47t-66 -18zM524 590q-27 0 -46 -19t-19 -47t19 -46t46 -19t46 19t20 46t-19 46t-47 20zM131 393q-35 0 -65 17t-48 48t-18 66t17 65t48 48t66 18t65 -17t48 -48t18 -66
t-17 -66t-48 -47t-66 -18zM131 590q-27 0 -46 -19t-19 -47t19 -46t46 -19t46 19t20 46t-19 46t-47 20zM918 393q-36 0 -66 17t-48 48t-18 66t17 65t48 48t67 18t66 -17t47 -48t18 -66t-17 -66t-48 -47t-66 -18zM918 590q-28 0 -47 -19t-19 -47t19 -46t47 -19t46 19t19 46
t-19 46t-46 20z" />
</svg>
