<?xml version="1.0" standalone="no"?>
<!DOCTYPE svg PUBLIC "-//W3C//DTD SVG 1.1//EN" "http://www.w3.org/Graphics/SVG/1.1/DTD/svg11.dtd" >
<svg xmlns="http://www.w3.org/2000/svg" xmlns:xlink="http://www.w3.org/1999/xlink" version="1.1" viewBox="-10 0 1069 1024">
   <path fill="#ffffff"
d="M524 0q-106 0 -204 41q-94 40 -166 112t-113 167q-41 98 -41 204t41 204q40 94 112 167t167 113q98 41 204 41t204 -41q94 -40 167 -112t113 -168q41 -97 41 -204t-42 -204q-40 -94 -112 -166t-167 -113q-97 -41 -204 -41zM524 983q-124 0 -231 -63q-104 -60 -164 -164
q-63 -107 -63 -232t63 -232q60 -103 164 -164q106 -62 230 -62t232 63q104 60 165 164q63 107 63 231t-63 232q-60 104 -164 164q-107 63 -232 63zM721 655h-393q-13 0 -23 9t-10 23t10 24t23 10h393q14 0 23 -10t10 -23t-9 -23t-24 -10zM393 393q0 27 -19 46t-46 20
t-46 -19t-20 -47t19 -46t47 -19t46 19t19 46zM786 393q0 27 -19 46t-46 20t-46 -19t-20 -47t19 -46t47 -19t46 19t19 46z" />
</svg>
