<?xml version="1.0" standalone="no"?>
<!DOCTYPE svg PUBLIC "-//W3C//DTD SVG 1.1//EN" "http://www.w3.org/Graphics/SVG/1.1/DTD/svg11.dtd" >
<svg xmlns="http://www.w3.org/2000/svg" xmlns:xlink="http://www.w3.org/1999/xlink" version="1.1" viewBox="-10 0 1069 1024">
   <path fill="#ffffff"
d="M1049 172q0 -52 -29 -96t-77 -64t-99 -10t-89 48l-198 199l-42 -43q-10 -10 -23 -10t-24 10t-10 23t10 24l43 42l-338 338q-39 38 -52 91l-14 55q-6 26 -22 47l-78 105q-7 10 -7 22t10 21l65 65q9 9 21 9t22 -6l105 -79q21 -16 47 -22l55 -14q53 -13 91 -51l338 -338
l42 42q10 7 22 6t20 -9t10 -21t-6 -22l-42 -42l198 -199q24 -24 37 -55t14 -66zM369 829q-26 26 -61 35l-54 14q-38 9 -70 33l-82 61l-26 -25l62 -82q24 -32 33 -70l14 -55q9 -35 34 -61l43 -43l42 43q10 10 23 10t24 -10t10 -23t-10 -24l-43 -42l118 -118l42 43
q10 10 23 10t24 -10t10 -23t-10 -24l-43 -42l85 -85l150 151zM952 247l-198 198l-151 -150l199 -198q15 -15 34 -23t41 -8q32 0 59 18t39 47t6 61t-29 55z" />
</svg>
