<?xml version="1.0" standalone="no"?>
<!DOCTYPE svg PUBLIC "-//W3C//DTD SVG 1.1//EN" "http://www.w3.org/Graphics/SVG/1.1/DTD/svg11.dtd" >
<svg xmlns="http://www.w3.org/2000/svg" xmlns:xlink="http://www.w3.org/1999/xlink" version="1.1" viewBox="-10 0 1036 1024">
   <path fill="#ffffff"
d="M318 272q-10 -9 -23 -9t-23 9l-230 229q-10 10 -10 23t10 24l230 229q6 7 15 10t18 1t15 -9t9 -16t-1 -18t-10 -15l-206 -206l206 -206q9 -10 9 -23t-9 -23zM1006 501l-229 -229q-10 -8 -22 -8t-22 9t-10 22t7 23l207 206l-207 206q-10 10 -10 23t10 24t23 10t24 -10
l229 -229q10 -10 10 -23t-10 -24z" />
</svg>
