<?xml version="1.0" standalone="no"?>
<!DOCTYPE svg PUBLIC "-//W3C//DTD SVG 1.1//EN" "http://www.w3.org/Graphics/SVG/1.1/DTD/svg11.dtd" >
<svg xmlns="http://www.w3.org/2000/svg" xmlns:xlink="http://www.w3.org/1999/xlink" version="1.1" viewBox="-10 0 1034 1024">
   <path fill="#ffffff"
d="M710 492q-7 -2 -13 1t-8 10l-75 217l-74 -217q-5 -10 -15 -10t-16 10l-75 217l-74 -217q-2 -6 -8 -9t-12 -2t-10 9t-1 12l90 262q5 10 15 10t16 -10l74 -217l75 217q1 5 5 8t10 4t10 -3t6 -9l90 -262q2 -6 0 -12t-10 -9zM865 318l-233 -233q-19 -19 -46 -19h-357
q-27 0 -46 19t-19 46v787q0 27 19 46t46 19h590q27 0 46 -19t20 -46v-554q-1 -27 -20 -46zM829 328h-174q-13 0 -22 -10t-10 -23v-174zM852 918q0 13 -10 22t-23 10h-590q-13 0 -22 -9t-10 -23v-787q0 -13 9 -23t23 -10h357l4 1v196q0 27 19 46t46 19h196l1 4v554z" />
</svg>
