<?xml version="1.0" standalone="no"?>
<!DOCTYPE svg PUBLIC "-//W3C//DTD SVG 1.1//EN" "http://www.w3.org/Graphics/SVG/1.1/DTD/svg11.dtd" >
<svg xmlns="http://www.w3.org/2000/svg" xmlns:xlink="http://www.w3.org/1999/xlink" version="1.1" viewBox="-10 0 1070 1024">
   <path fill="#ffffff"
d="M753 360q1 2 1 4v111q0 7 4 11t12 5t11 -4t5 -12v-111q0 -27 -19 -46l-233 -233q-19 -19 -46 -19h-357q-27 0 -46 19t-19 46v787q0 27 19 46t46 19h311q7 0 12 -5t5 -11t-5 -12t-12 -5h-311q-13 0 -23 -9t-10 -23v-787q0 -14 9 -23t24 -10h357l4 1v196q0 27 19 46t46 19
h196zM524 295v-174l207 207h-174q-14 0 -23 -9t-10 -24zM803 557q-67 0 -123 33t-90 89t-33 124t33 123t89 90t124 33t123 -33t90 -89t33 -124t-33 -123t-89 -90t-124 -33zM803 1016q-58 0 -107 -28t-77 -78t-29 -107t28 -107t78 -77t107 -29t107 28t77 78t29 107t-28 107
t-78 77t-107 29zM934 786h-115v-114q0 -7 -5 -12t-11 -5t-12 5t-5 12v131q0 7 5 11t12 5h131q7 0 11 -5t5 -11t-4 -12t-12 -5z" />
</svg>
