<?xml version="1.0" standalone="no"?>
<!DOCTYPE svg PUBLIC "-//W3C//DTD SVG 1.1//EN" "http://www.w3.org/Graphics/SVG/1.1/DTD/svg11.dtd" >
<svg xmlns="http://www.w3.org/2000/svg" xmlns:xlink="http://www.w3.org/1999/xlink" version="1.1" viewBox="-10 0 1069 1024">
   <path fill="#ffffff"
d="M1029 393l-243 -243q-19 -19 -46 -19h-674q-27 0 -46 19t-20 47v655q0 27 19 46t47 20h917q27 0 46 -19t20 -47v-412q0 -28 -20 -47zM983 885v-33h-917v-655h674l243 243v412v33zM885 459h-164v-164q0 -14 -9 -23t-24 -10t-23 9t-10 24v164q0 27 19 46t47 19h164
q12 -2 19 -11t8 -21t-7 -22t-20 -11z" />
</svg>
