<?xml version="1.0" standalone="no"?>
<!DOCTYPE svg PUBLIC "-//W3C//DTD SVG 1.1//EN" "http://www.w3.org/Graphics/SVG/1.1/DTD/svg11.dtd" >
<svg xmlns="http://www.w3.org/2000/svg" xmlns:xlink="http://www.w3.org/1999/xlink" version="1.1" viewBox="-10 0 1034 1024">
   <path fill="#ffffff"
d="M865 318l-233 -233q-19 -19 -46 -19h-357q-27 0 -46 19t-19 46v787q0 27 19 46t46 19h590q27 0 46 -19t20 -46v-554q-1 -27 -20 -46zM623 121l206 207h-174q-13 0 -22 -10t-10 -23v-174zM852 918q0 13 -10 22t-23 10h-590q-13 0 -22 -9t-10 -23v-787q0 -13 9 -23t23 -10
h357l4 1v196q0 27 19 46t46 19h196l1 4v554zM711 632h-1q-37 -7 -75 -1q-31 3 -62 10q-53 -40 -101 -85q2 -32 -1 -63q-2 -38 -15 -74q-6 -21 -25 -30t-38 -4t-28 25q-9 21 0 42q13 37 37 68q19 25 40 48q-8 65 -23 129l-1 1q-27 14 -53 30q-34 20 -58 51q-15 16 -14 37
t17 36q14 10 31 10h4q23 -2 37 -20q25 -29 40 -64q12 -31 21 -60q15 -7 62 -24t61 -21q27 17 55 31q34 19 73 25q22 5 40 -7t21 -33t-9 -37t-35 -20zM401 749q-1 3 -3 8l-3 9q-13 32 -35 58q-6 8 -15 9t-17 -3q-6 -7 -6 -16t7 -16q22 -26 51 -45l15 -9q3 -2 11 -6zM424 501
q-21 -27 -33 -58q-3 -9 0 -17t11 -13q2 -1 5 -1q8 0 14 4t9 12q12 33 12 68q1 14 1 29zM454 680q9 -42 14 -85l67 56q-41 12 -81 29zM699 701q-34 -6 -64 -22l-27 -15q15 -3 30 -4q34 -6 68 1q10 2 17 10q5 6 3 14t-10 13t-17 2v1z" />
</svg>
