<?xml version="1.0" standalone="no"?>
<!DOCTYPE svg PUBLIC "-//W3C//DTD SVG 1.1//EN" "http://www.w3.org/Graphics/SVG/1.1/DTD/svg11.dtd" >
<svg xmlns="http://www.w3.org/2000/svg" xmlns:xlink="http://www.w3.org/1999/xlink" version="1.1" viewBox="-11 0 1070 1024">
   <path fill="#ffffff"
d="M983 393v-65q0 -27 -19 -46t-46 -20h-399q-13 0 -23 -9l-93 -93q-14 -14 -32 -21t-38 -8h-202q-27 0 -46 19t-19 47v196h917zM1016 459h-983q-15 0 -25 11t-8 27l61 366q4 24 22 39t43 16h797q24 0 42 -15t22 -40l61 -366q2 -15 -7 -26t-25 -12z" />
</svg>
