<?xml version="1.0" standalone="no"?>
<!DOCTYPE svg PUBLIC "-//W3C//DTD SVG 1.1//EN" "http://www.w3.org/Graphics/SVG/1.1/DTD/svg11.dtd" >
<svg xmlns="http://www.w3.org/2000/svg" xmlns:xlink="http://www.w3.org/1999/xlink" version="1.1" viewBox="-10 0 1069 1024">
   <path fill="#ffffff"
d="M344 426q7 0 12 -5t5 -11t-5 -12t-12 -5h-16q-14 0 -23 -9t-10 -24v-98q0 -14 9 -23t24 -10h16q7 0 11 -4t5 -12t-4 -11t-12 -5h-16q-29 0 -49 22q-9 -11 -22 -16t-28 -6h-16q-7 0 -11 4t-5 12t4 11t12 5h16q14 0 23 9t10 24v98q0 14 -9 23t-24 10h-16q-7 0 -11 5t-5 11
t4 12t12 5h16q14 0 27 -6t23 -17q19 23 49 23h16zM246 819h-115q-14 0 -23 -9t-10 -24v-655q0 -14 9 -23t24 -10h787q13 0 22 10t10 23v344q0 7 5 11t11 5t12 -4t5 -12v-344q0 -27 -19 -46t-46 -19h-787q-27 0 -46 19t-19 46v655q0 27 19 46t46 20h115q7 0 12 -5t5 -11
t-5 -12t-12 -5zM1016 557h-656q-13 0 -22 10t-10 23v426q0 13 9 23t23 10h656q14 0 23 -9t10 -24v-426q0 -14 -9 -23t-24 -10zM524 1016h-164v-98h164v98zM524 885h-164v-99h164v99zM1016 1016h-459v-246q0 -7 -4 -11t-12 -5h-181v-164h656v426z" />
</svg>
