<?xml version="1.0" standalone="no"?>
<!DOCTYPE svg PUBLIC "-//W3C//DTD SVG 1.1//EN" "http://www.w3.org/Graphics/SVG/1.1/DTD/svg11.dtd" >
<svg xmlns="http://www.w3.org/2000/svg" xmlns:xlink="http://www.w3.org/1999/xlink" version="1.1" viewBox="-10 0 1069 1024">
   <path fill="#ffffff"
d="M1045 83q-4 -8 -12 -12t-17 -5h-983q-9 0 -16 5t-12 12t-5 17t6 17l289 403q35 50 45 110l54 326q2 12 11 19t21 8h197q12 0 21 -7t11 -20l54 -326q10 -60 45 -110l288 -403q5 -7 6 -16t-3 -18zM595 918h-141l-33 -197h207zM701 482q-44 62 -56 137l-6 36h-229l-6 -36
q-13 -75 -57 -137l-63 -89h481zM812 328h-575l-141 -197h856z" />
</svg>
