<?xml version="1.0" standalone="no"?>
<!DOCTYPE svg PUBLIC "-//W3C//DTD SVG 1.1//EN" "http://www.w3.org/Graphics/SVG/1.1/DTD/svg11.dtd" >
<svg xmlns="http://www.w3.org/2000/svg" xmlns:xlink="http://www.w3.org/1999/xlink" version="1.1" viewBox="-10 0 1034 1024">
   <path fill="#ffffff"
d="M426 328q14 0 23 -9t10 -24v-131q0 -14 -9 -23t-24 -10h-328v-49q0 -7 -4 -11t-12 -5t-11 4t-5 12v885q0 7 4 11t12 5t11 -4t5 -12v-639h328zM426 164v131h-328v-131h328zM786 590v-131q0 -13 -9 -23t-23 -10h-426q-14 0 -23 9t-10 24v131q0 14 9 23t24 10h426
q13 0 22 -10t10 -23zM754 590h-426v-131h426v131zM950 721h-327q-14 0 -23 9t-10 24v131q0 14 9 23t24 10h327q14 0 23 -9t10 -24v-131q0 -14 -9 -23t-24 -10zM950 885h-327v-131h327v131z" />
</svg>
