<?xml version="1.0" standalone="no"?>
<!DOCTYPE svg PUBLIC "-//W3C//DTD SVG 1.1//EN" "http://www.w3.org/Graphics/SVG/1.1/DTD/svg11.dtd" >
<svg xmlns="http://www.w3.org/2000/svg" xmlns:xlink="http://www.w3.org/1999/xlink" version="1.1" viewBox="-10 0 1069 1024">
   <path fill="#ffffff"
d="M524 0q-107 0 -204 42q-94 39 -166 112t-112 167q-41 97 -41 203t41 204q40 94 112 166t167 113q98 41 204 41t204 -41q94 -40 166 -112t113 -167q41 -97 41 -204t-42 -204q-39 -94 -112 -166t-167 -113q-97 -41 -204 -41zM938 328h-186q-19 -120 -65 -232q83 32 148 92
t103 140zM983 524q0 67 -19 131h-201q7 -65 7 -131t-7 -131h201q19 64 19 131zM66 524q0 -67 19 -131h200q-14 131 0 262h-200q-19 -64 -19 -131zM344 524q0 -66 8 -131h345q8 65 8 131t-8 131h-345q-8 -65 -8 -131zM606 73q58 122 80 255h-324q22 -133 80 -255
q82 -16 164 0zM361 96q-46 112 -65 232h-186q38 -80 103 -140t148 -92zM110 721h186q19 120 65 232q-83 -32 -148 -92t-103 -140zM442 975q-58 -121 -80 -254h324q-22 133 -80 254q-82 16 -164 0zM687 953q46 -112 65 -232h186q-38 80 -103 140t-148 92z" />
</svg>
