<?xml version="1.0" standalone="no"?>
<!DOCTYPE svg PUBLIC "-//W3C//DTD SVG 1.1//EN" "http://www.w3.org/Graphics/SVG/1.1/DTD/svg11.dtd" >
<svg xmlns="http://www.w3.org/2000/svg" xmlns:xlink="http://www.w3.org/1999/xlink" version="1.1" viewBox="-10 0 1034 1024">
   <path fill="#ffffff"
d="M524 66q-92 0 -176 35t-148 99t-100 150t-35 176t35 175t100 149t149 99t175 35t176 -35t149 -100t99 -149t35 -176q0 -125 -63 -231q-61 -104 -165 -165q-106 -62 -231 -62zM360 524q0 -66 11 -131h307q10 65 10 131t-10 131h-307q-11 -65 -11 -131zM711 393h218
q21 64 21 131t-21 131h-218q10 -65 10 -131t-10 -131zM918 360h-213q-24 -136 -96 -253q104 21 186 88t123 165zM566 100q80 119 106 260h-295q26 -141 106 -260q26 -2 40 -2t43 2zM439 107q-72 117 -96 253h-212q41 -98 122 -165t186 -88zM119 393h218q-19 131 0 262h-218
q-21 -64 -21 -131t21 -131zM131 688h212q24 136 96 254q-104 -21 -185 -88t-123 -166zM483 948q-80 -119 -106 -260h295q-26 141 -106 260q-28 2 -42 2t-41 -2zM609 942q72 -118 96 -254h213q-41 98 -123 165t-186 89z" />
</svg>
