<?xml version="1.0" standalone="no"?>
<!DOCTYPE svg PUBLIC "-//W3C//DTD SVG 1.1//EN" "http://www.w3.org/Graphics/SVG/1.1/DTD/svg11.dtd" >
<svg xmlns="http://www.w3.org/2000/svg" xmlns:xlink="http://www.w3.org/1999/xlink" version="1.1" viewBox="-10 0 1034 1024">
   <path fill="#ffffff"
d="M967 459h-432v157h260q-8 42 -33 81q-32 51 -82 80q-62 36 -145 36q-78 0 -144 -39q-65 -39 -102 -104q-39 -67 -39 -146t39 -146q37 -65 102 -103t144 -39q60 0 111 22q40 17 71 47l125 -119q-61 -58 -138 -88q-79 -32 -169 -32q-125 0 -232 62q-104 61 -164 164
q-63 107 -63 232t63 232q60 104 164 164q107 63 232 63q130 0 231 -58q98 -56 152 -158t55 -232q0 -43 -6 -76z" />
</svg>
