<?xml version="1.0" standalone="no"?>
<!DOCTYPE svg PUBLIC "-//W3C//DTD SVG 1.1//EN" "http://www.w3.org/Graphics/SVG/1.1/DTD/svg11.dtd" >
<svg xmlns="http://www.w3.org/2000/svg" xmlns:xlink="http://www.w3.org/1999/xlink" version="1.1" viewBox="-10 0 1034 1024">
   <path fill="#ffffff"
d="M978 496q-5 -5 -11 -5t-12 5l-21 22l-63 -63q-19 -19 -19 -47v-30q0 -20 -8 -38t-22 -32l-146 -144q-32 -32 -74 -49t-87 -17h-171q-31 0 -57 15t-42 42t-16 58q0 7 5 11t12 5h103q26 0 50 10t42 29l53 53q9 10 9 23t-9 23l-391 391q-5 5 -5 12t4 11t12 5t12 -4l284 -284
l108 108l-317 316q-5 5 -5 12t5 11t12 5t12 -5l424 -424q10 -9 23 -9t23 9l117 118l-21 21q-5 5 -5 11t5 12t11 5t12 -5l164 -164q5 -5 5 -11t-5 -12zM836 616l-118 -118q-19 -19 -46 -19t-47 19l-84 85l-108 -108l85 -85q19 -19 19 -46t-19 -46l-54 -53q-23 -23 -53 -35
t-62 -13h-85q6 -29 28 -47t52 -19h171q38 0 74 14t63 42l147 145q19 19 20 46v30q0 20 7 38t22 32l63 63z" />
</svg>
