<?xml version="1.0" standalone="no"?>
<!DOCTYPE svg PUBLIC "-//W3C//DTD SVG 1.1//EN" "http://www.w3.org/Graphics/SVG/1.1/DTD/svg11.dtd" >
<svg xmlns="http://www.w3.org/2000/svg" xmlns:xlink="http://www.w3.org/1999/xlink" version="1.1" viewBox="-26 0 1068 1024">
   <path fill="#ffffff"
d="M311 360q-3 -42 -26 -76t-59 -55t-78 -20t-79 20t-59 54t-26 77q3 42 26 76t59 55t78 20t79 -20t59 -54t26 -77zM49 360q0 -41 29 -69t69 -29t70 29t29 69t-29 70t-70 29t-69 -29t-29 -70zM737 328q45 0 82 -22t60 -59t22 -83t-22 -82t-59 -60t-83 -22t-82 22t-60 59
t-22 83t22 82t59 60t83 22zM737 66q41 0 70 28t29 70t-29 69t-70 29t-69 -28t-29 -70t29 -69t69 -29zM573 393q-71 0 -131 35t-95 96t-36 131t35 131t95 96q61 36 132 36t131 -35t96 -95q36 -62 36 -133t-35 -131t-96 -96t-132 -35zM573 852q-53 0 -98 -26t-71 -72t-27 -99
t26 -99t72 -71t98 -26t98 26t72 72t27 98t-26 98t-72 72t-99 27zM442 131q-27 0 -46 19t-19 47t19 46t46 19t46 -19t20 -46t-19 -46t-47 -20zM967 459q-27 0 -46 19t-20 46t19 46t47 20t46 -19t19 -47t-19 -46t-46 -19zM115 655q-27 0 -46 19t-20 47t19 46t47 19t46 -19
t19 -46t-19 -46t-46 -20zM311 918q-27 0 -46 19t-19 46t19 46t46 20t46 -19t20 -47t-19 -46t-47 -19zM836 918q-27 0 -46 19t-20 46t19 46t47 20t46 -19t19 -47t-19 -46t-46 -19z" />
</svg>
