<?xml version="1.0" standalone="no"?>
<!DOCTYPE svg PUBLIC "-//W3C//DTD SVG 1.1//EN" "http://www.w3.org/Graphics/SVG/1.1/DTD/svg11.dtd" >
<svg xmlns="http://www.w3.org/2000/svg" xmlns:xlink="http://www.w3.org/1999/xlink" version="1.1" viewBox="-10 0 1034 1024">
   <path fill="#ffffff"
d="M197 508v33q0 7 4 11t12 5t11 -4t5 -12v-33q0 -7 -4 -11t-12 -5t-11 4t-5 12zM852 541v-33q0 -7 -5 -12t-11 -5t-12 5t-5 12v33q0 7 5 11t11 5t12 -4t5 -12zM541 229q7 0 11 -4t5 -12t-4 -11t-12 -5h-33q-7 0 -11 4t-5 12t4 11t12 5h33zM557 836q0 -7 -4 -12t-12 -5h-33
q-7 0 -11 5t-5 11t4 12t12 5h33q7 0 11 -4t5 -12zM557 581l176 175q5 5 11 5t12 -5t5 -11t-5 -12l-175 -176q9 -15 9 -33t-9 -33l152 -152q5 -5 5 -11t-5 -12t-11 -5t-12 5l-153 152q-15 -9 -33 -9q-25 3 -41 22t-17 43t16 44t42 22q18 0 33 -9zM492 524q0 -10 5 -18t15 -12
t20 -2t17 9t8 17t-2 19t-12 15t-19 5q-13 0 -22 -10t-10 -23zM524 66q-125 0 -231 63q-104 61 -165 165q-62 106 -62 231q0 91 34 176t97 151h-115q-7 0 -11 5t-5 11t4 12t12 5h164q7 0 11 -5t5 -12v-163q0 -7 -5 -12t-11 -5t-12 5t-5 12v133q-63 -62 -97 -143t-34 -170
q0 -115 57 -214q56 -96 151 -153q98 -58 213 -59t214 54q97 55 155 149q59 98 61 213t-52 215q-53 97 -147 156q-97 60 -212 64q-7 0 -11 5t-5 12t5 11t12 5v0q121 -7 222 -73q98 -63 154 -166q57 -106 55 -227t-63 -224q-59 -101 -159 -162q-103 -62 -224 -65z" />
</svg>
