<?xml version="1.0" standalone="no"?>
<!DOCTYPE svg PUBLIC "-//W3C//DTD SVG 1.1//EN" "http://www.w3.org/Graphics/SVG/1.1/DTD/svg11.dtd" >
<svg xmlns="http://www.w3.org/2000/svg" xmlns:xlink="http://www.w3.org/1999/xlink" version="1.1" viewBox="-10 0 1069 1024">
   <path fill="#ffffff"
d="M1035 793l-261 -197q-8 -5 -17 -6t-17 3t-13 13t-5 17l-1 327q0 11 6 20t17 12q5 1 10 1q17 0 26 -14l65 -92l76 153q3 9 10 14t17 7t18 -3t14 -12t5 -17t-5 -18l-75 -149h111q10 0 18 -6t12 -17t0 -20t-11 -16zM983 131h-917q-27 0 -46 19t-20 47v655q0 27 19 46t47 20
h589v-66h-393v-131h394l-1 -66h-393v-131h721v147l66 49v-523q0 -27 -19 -46t-47 -20zM197 852h-131v-131h131v131zM197 655h-131v-131h131v131zM197 459h-131v-131h131v131zM983 459h-721v-131h721v131zM983 262h-917v-65h917v65z" />
</svg>
