<?xml version="1.0" standalone="no"?>
<!DOCTYPE svg PUBLIC "-//W3C//DTD SVG 1.1//EN" "http://www.w3.org/Graphics/SVG/1.1/DTD/svg11.dtd" >
<svg xmlns="http://www.w3.org/2000/svg" xmlns:xlink="http://www.w3.org/1999/xlink" version="1.1" viewBox="-10 0 1069 1024">
   <path fill="#ffffff"
d="M852 328q0 27 -19 46t-47 19t-46 -19t-19 -46t19 -46t46 -20t46 19t20 47zM953 161q-45 -44 -104 -69t-126 -25q-23 0 -46 3h2q-39 -33 -87 -51t-102 -18q-80 0 -148 40q-66 39 -105 105q-40 68 -40 148q0 59 21 110l-1 -2q4 9 4 22q0 30 -22 52l-161 160q-18 19 -28 43
t-10 50v123q0 27 19 46t47 20h65v65q0 27 19 46t47 20h131q27 0 46 -19t19 -47v-65h66q27 0 46 -19t19 -47v-88l41 -42q20 -18 46 -18q10 0 19 3v0q44 13 92 13q89 0 165 -45q74 -43 117 -117q45 -76 45 -165q0 -66 -26 -127q-25 -59 -70 -105v0zM169 767q-34 36 -37 85h-66
v-123q0 -28 19 -47l160 -160q20 -18 31 -43t11 -54q0 -26 -9 -48v1q-16 -40 -16 -83q0 -62 30 -114t83 -83t115 -31q57 0 105 25h-1q-90 38 -145 119t-55 180q0 46 13 93v-2q2 10 2 18q0 26 -18 46v0zM906 579q-36 36 -83 56t-101 20q-40 0 -76 -12l2 1q-16 -6 -37 -6
q-26 0 -50 10t-41 27v0q-29 28 -41 41t-16 21t-4 17v98h-66q-27 0 -46 19t-19 47v65h-131v-123q0 -29 19 -46l221 -222q18 -18 28 -42t10 -50q0 -17 -5 -37v1q-10 -35 -10 -70q0 -71 35 -131t95 -96t132 -35t131 35t95 95t35 132q0 53 -20 100t-57 85v0z" />
</svg>
