<?xml version="1.0" standalone="no"?>
<!DOCTYPE svg PUBLIC "-//W3C//DTD SVG 1.1//EN" "http://www.w3.org/Graphics/SVG/1.1/DTD/svg11.dtd" >
<svg xmlns="http://www.w3.org/2000/svg" xmlns:xlink="http://www.w3.org/1999/xlink" version="1.1" viewBox="-10 0 1069 1024">
   <path fill="#ffffff"
d="M983 131h-917q-27 0 -46 19t-20 47v655q0 27 19 46t47 20h917q27 0 46 -19t20 -47v-655q0 -27 -19 -46t-47 -20zM262 852h-196v-131h196v131zM262 655h-196v-131h196v131zM262 459h-196v-131h196v131zM328 852v-524h655v524h-655zM983 262h-917v-65h917v65z" />
</svg>
