<?xml version="1.0" standalone="no"?>
<!DOCTYPE svg PUBLIC "-//W3C//DTD SVG 1.1//EN" "http://www.w3.org/Graphics/SVG/1.1/DTD/svg11.dtd" >
<svg xmlns="http://www.w3.org/2000/svg" xmlns:xlink="http://www.w3.org/1999/xlink" version="1.1" viewBox="-10 0 1034 1024">
   <path fill="#ffffff"
d="M885 66h-721q-40 0 -69 28t-29 70v721q0 40 29 69t69 29h721q41 0 69 -29t29 -69v-721q0 -41 -28 -69t-70 -29zM131 885v-721q0 -14 9 -23t24 -10h295v787h-295q-14 0 -23 -9t-10 -24zM918 885q0 14 -9 23t-24 10h-361v-787h361q14 0 23 9t10 24v721z" />
</svg>
