<?xml version="1.0" standalone="no"?>
<!DOCTYPE svg PUBLIC "-//W3C//DTD SVG 1.1//EN" "http://www.w3.org/Graphics/SVG/1.1/DTD/svg11.dtd" >
<svg xmlns="http://www.w3.org/2000/svg" xmlns:xlink="http://www.w3.org/1999/xlink" version="1.1" viewBox="-10 0 1070 1024">
   <path fill="#ffffff"
d="M1016 852h-950v-150l196 -196q34 20 73 18t71 -26l130 104q-12 25 -12 53q0 36 17 66t48 47t66 18t66 -17t47 -48t18 -66q0 -43 -25 -77l102 -132q26 13 55 13q36 0 65 -18t47 -48t18 -65t-18 -66t-48 -47t-65 -18t-66 17t-47 48t-18 66q0 43 26 77l-102 132
q-33 -16 -68 -12t-65 26l-130 -104q12 -26 12 -54q0 -41 -23 -75t-63 -48t-79 -4t-66 43t-30 73t17 77l-149 150v-445q0 -14 -9 -23t-24 -10t-23 9t-10 24v721q0 14 9 23t24 10h983q14 0 23 -9t10 -24t-9 -23t-24 -10zM918 262q27 0 46 19t20 47t-19 46t-47 20t-46 -19
t-20 -47t19 -46t47 -20zM655 590q20 0 37 11t25 29t4 38t-18 34t-34 19t-38 -4t-30 -25t-11 -37q0 -27 19 -46t46 -19zM328 328q20 0 36 11t25 30t4 38t-18 34t-34 18t-38 -4t-30 -25t-11 -37q0 -27 19 -46t47 -19z" />
</svg>
