<?xml version="1.0" standalone="no"?>
<!DOCTYPE svg PUBLIC "-//W3C//DTD SVG 1.1//EN" "http://www.w3.org/Graphics/SVG/1.1/DTD/svg11.dtd" >
<svg xmlns="http://www.w3.org/2000/svg" xmlns:xlink="http://www.w3.org/1999/xlink" version="1.1" viewBox="-10 0 1034 1024">
   <path fill="#ffffff"
d="M737 754q-7 0 -11 -5l-426 -426q-5 -5 -5 -11t5 -12t11 -5t12 5l426 426q4 3 5 8t-1 10t-6 7t-10 3zM192 494q30 30 69 46t82 17q16 0 32 -3q7 -1 11 -6t3 -13t-6 -11t-12 -3h-1q-13 3 -27 3q-36 0 -69 -13t-59 -40l-64 -64q-35 -35 -47 -81t0 -93t47 -82t81 -47t93 0
t82 47l64 64q26 25 39 58t14 70q0 14 -2 27v1q-1 6 3 11t10 7t12 -3t7 -11q3 -16 3 -32q0 -43 -16 -82t-47 -69l-64 -64q-39 -45 -96 -63t-116 -4t-100 57t-56 100t3 115t63 97zM856 554q-30 -30 -69 -46t-82 -16q-16 0 -32 3q-7 1 -11 6t-3 13t6 10t13 3v0q43 -8 84 6
t71 45l64 64q38 34 53 82t3 97t-48 84t-85 48t-97 -3t-82 -53l-64 -63q-31 -30 -44 -71t-6 -85v0q1 -7 -3 -12t-11 -6t-12 3t-6 10q-3 16 -4 32q0 43 16 82t47 69l64 64q39 45 96 63t116 4t100 -57t56 -100t-3 -115t-63 -97z" />
</svg>
