<?xml version="1.0" standalone="no"?>
<!DOCTYPE svg PUBLIC "-//W3C//DTD SVG 1.1//EN" "http://www.w3.org/Graphics/SVG/1.1/DTD/svg11.dtd" >
<svg xmlns="http://www.w3.org/2000/svg" xmlns:xlink="http://www.w3.org/1999/xlink" version="1.1" viewBox="-10 0 1068 1024">
   <path fill="#ffffff"
d="M272 272q-9 10 -9 23t9 23l458 459q10 10 23 10t24 -10t10 -23t-10 -24l-459 -458q-10 -9 -23 -9t-23 9zM325 524q-39 0 -75 -15t-65 -43l-61 -61q-35 -39 -46 -88t3 -99t50 -86t86 -51t99 -3t89 46l61 61q28 28 43 64t15 76q0 15 -3 30v0q-2 14 6 25t21 13t25 -6t13 -22
q4 -20 4 -40q0 -53 -20 -101t-58 -86l-61 -61q-51 -51 -119 -68t-136 -1t-119 69t-68 119t-1 136t69 119l61 61q37 37 85 57t102 21q14 0 23 -9t10 -24t-9 -23t-24 -10zM971 597l-61 -61q-37 -37 -85 -57t-102 -20q-12 2 -19 11t-8 21t7 22t20 11q40 0 76 15t65 44l61 60
q38 38 51 89t1 103t-52 90t-89 51t-103 1t-90 -52l-60 -61q-35 -33 -50 -78t-6 -93q3 -9 1 -19t-9 -16t-18 -8t-19 2t-14 12t-5 19q-11 62 8 122t65 105l61 61q51 51 119 68t136 1t119 -69t68 -119t1 -136t-69 -119z" />
</svg>
