<?xml version="1.0" standalone="no"?>
<!DOCTYPE svg PUBLIC "-//W3C//DTD SVG 1.1//EN" "http://www.w3.org/Graphics/SVG/1.1/DTD/svg11.dtd" >
<svg xmlns="http://www.w3.org/2000/svg" xmlns:xlink="http://www.w3.org/1999/xlink" version="1.1" viewBox="-12 0 1072 1024">
   <path fill="#ffffff"
d="M557 197h459q14 0 23 -9t10 -24t-9 -23t-24 -10h-459q-14 0 -23 9t-10 24t9 23t24 10zM557 393h328q12 -2 19 -11t8 -21t-7 -22t-20 -11h-328q-12 2 -19 11t-8 21t7 22t20 11zM1016 655h-459q-14 0 -23 9t-10 24t9 23t24 10h459q14 0 23 -9t10 -24t-9 -23t-24 -10z
M885 852h-328q-14 0 -23 9t-10 24t9 23t24 10h328q14 0 23 -9t10 -24t-9 -23t-24 -10zM197 66q-60 0 -110 33t-73 88t-12 114t54 101t102 54t114 -11t88 -73t33 -110q0 -53 -26 -98t-72 -71t-98 -27zM197 393q-36 0 -66 -17t-47 -48t-18 -66t17 -66t48 -47t66 -18t66 17
t47 48t18 66t-17 66t-48 47t-66 18zM226 608q-5 -8 -12 -12t-17 -5t-17 4t-13 13l-164 328q-8 16 2 31t28 16h327q18 0 28 -15t2 -32zM86 918l111 -222l110 222h-221z" />
</svg>
