<?xml version="1.0" standalone="no"?>
<!DOCTYPE svg PUBLIC "-//W3C//DTD SVG 1.1//EN" "http://www.w3.org/Graphics/SVG/1.1/DTD/svg11.dtd" >
<svg xmlns="http://www.w3.org/2000/svg" xmlns:xlink="http://www.w3.org/1999/xlink" version="1.1" viewBox="-10 0 1069 1024">
   <path fill="#ffffff"
d="M295 295q0 13 -9 23t-23 10t-24 -10t-10 -23t10 -23t23 -10t23 9t10 24zM295 492q0 13 -9 22t-24 10t-23 -9t-10 -23t10 -23t23 -10t23 9t10 24zM295 688q0 13 -9 23t-23 10t-24 -10t-10 -23t10 -23t23 -10t23 9t10 24zM377 885h-246q-13 0 -23 -10t-10 -23v-721
q0 -14 10 -23t23 -10h787q13 0 22 9t10 24v246q0 7 5 11t12 5t11 -4t5 -12v-246q0 -27 -19 -46t-46 -19h-787q-27 0 -46 19t-19 46v721q0 27 19 46t46 20h246q7 0 11 -5t5 -12t-4 -11t-12 -5zM1046 596q-1 -9 -9 -12v0q-4 -2 -7 -2t-8 2v0l-114 64l-37 -67l109 -63
q8 -5 8 -14q0 -7 -7 -14v0q-24 -18 -57 -26l-1 -1q-24 -4 -38 -4q-57 0 -104 36h1q-29 23 -46 56t-17 73v25q0 23 -16 39l-219 220q-25 23 -25 59q0 17 8 35l-1 -1q11 22 31 35t44 13q16 0 31 -6t27 -18l202 -203q16 -16 37 -25t46 -9v0q37 0 69 -15t56 -42l1 -1
q18 -21 28 -49t11 -58q0 -14 -3 -28v1zM984 709q-18 22 -44 34t-56 13h-1q-30 0 -57 11t-48 33l-202 201q-15 15 -35 15q-6 0 -8 -1v0q-26 -5 -37 -28v0q-4 -8 -4 -20q0 -21 15 -36l220 -219q25 -25 25 -62v-26q0 -36 18 -66t48 -48t66 -18h1q16 0 32 4h-1q16 4 24 8h-1
l-85 48q-8 5 -12 13t-5 17t5 18v-1l38 66q5 8 12 12t16 5t19 -5h-1l90 -51q-2 49 -32 84v-1zM590 672q0 -7 -5 -12t-12 -5h-163q-7 0 -12 5t-5 12t5 11t12 5h163q7 0 12 -4t5 -12zM410 459q-7 0 -12 4t-5 12t5 12t12 5h262q7 0 11 -5t5 -12t-4 -11t-12 -5h-262zM819 279
q0 -7 -4 -12t-12 -5h-393q-7 0 -12 5t-5 12t5 11t12 5h393q7 0 11 -4t5 -12z" />
</svg>
