<?xml version="1.0" standalone="no"?>
<!DOCTYPE svg PUBLIC "-//W3C//DTD SVG 1.1//EN" "http://www.w3.org/Graphics/SVG/1.1/DTD/svg11.dtd" >
<svg xmlns="http://www.w3.org/2000/svg" xmlns:xlink="http://www.w3.org/1999/xlink" version="1.1" viewBox="-10 0 1034 1024">
   <path fill="#ffffff"
d="M852 393h-66v-131q0 -71 -35 -131t-95 -96t-132 -35t-131 35t-96 95t-35 132v131h-65q-36 0 -66 17t-47 48t-18 66v394q0 35 17 65t48 48t66 18h655q35 0 65 -17t48 -48t18 -66v-394q0 -35 -17 -65t-48 -48t-66 -18zM328 262q0 -53 26 -98t72 -71t98 -27t98 26t72 72
t27 98v131h-393v-131zM918 918q0 27 -19 46t-47 19h-655q-28 0 -47 -19t-19 -46v-394q0 -27 19 -46t47 -19h655q27 0 46 19t20 46v394zM393 721q0 27 -19 46t-46 19t-46 -19t-20 -46t19 -46t47 -20t46 19t19 47zM590 721q0 27 -19 46t-47 19t-46 -19t-19 -46t19 -46t46 -20
t46 19t20 47zM786 721q0 27 -19 46t-46 19t-46 -19t-20 -46t19 -46t47 -20t46 19t19 47z" />
</svg>
