<?xml version="1.0" standalone="no"?>
<!DOCTYPE svg PUBLIC "-//W3C//DTD SVG 1.1//EN" "http://www.w3.org/Graphics/SVG/1.1/DTD/svg11.dtd" >
<svg xmlns="http://www.w3.org/2000/svg" xmlns:xlink="http://www.w3.org/1999/xlink" version="1.1" viewBox="-10 0 1034 1024">
   <path fill="#ffffff"
d="M295 66q-61 -1 -113 28t-84 81t-32 113q0 109 96 250q50 72 117 142l4 4q5 4 12 4t11 -4l1 -1q62 -62 114 -136q103 -146 103 -259q-1 -61 -32 -112t-83 -81t-114 -29zM295 648q-65 -66 -115 -142q-82 -124 -82 -218q1 -53 28 -96t71 -69t98 -26t97 25t72 69t28 97
q0 94 -82 218q-50 76 -115 142zM295 197q-40 0 -69 28t-29 69t29 70t69 29t69 -29t29 -69t-28 -69t-70 -29zM295 360q-27 0 -46 -19t-20 -46t19 -46t47 -20t46 19t19 47t-19 46t-46 19zM754 360q-45 -1 -87 15t-74 48t-50 73t-19 87q0 63 33 137q26 61 73 126q33 47 74 92
q26 30 38 40q5 5 12 5t11 -5q12 -10 38 -40q41 -45 74 -92q47 -65 73 -126q33 -74 33 -137q-1 -45 -18 -86t-50 -73t-74 -48t-87 -16zM754 943q-64 -66 -115 -143q-82 -124 -82 -217q0 -53 26 -98t72 -71t99 -27t99 26t71 72t26 98q0 93 -82 217q-49 75 -114 143zM754 492
q-41 0 -70 28t-29 70t29 69t70 29t69 -28t29 -70t-28 -69t-70 -29zM754 655q-27 0 -46 -19t-20 -46t19 -46t47 -20t46 19t19 47t-19 46t-46 19z" />
</svg>
