<?xml version="1.0" standalone="no"?>
<!DOCTYPE svg PUBLIC "-//W3C//DTD SVG 1.1//EN" "http://www.w3.org/Graphics/SVG/1.1/DTD/svg11.dtd" >
<svg xmlns="http://www.w3.org/2000/svg" xmlns:xlink="http://www.w3.org/1999/xlink" version="1.1" viewBox="-10 0 1034 1024">
   <path fill="#ffffff"
d="M970 328l-102 -23q-7 -1 -12 2t-7 10t1 13t11 7l89 20v524l-262 -59v-216q0 -7 -5 -12t-11 -5t-12 5t-5 12v219l-262 116v-521l101 -44q6 -3 8 -9t0 -13t-9 -8t-13 0l-105 46l-289 -64q-8 -2 -14 3t-6 13v557q0 6 3 10t9 6l295 66q5 1 10 -1l290 -129l290 64q8 2 14 -3
t6 -13v-557q0 -6 -3 -10t-10 -6zM98 365l262 58v523l-262 -58v-523zM672 557q7 0 12 -5t23 -26q25 -29 46 -61q29 -44 46 -87q20 -52 20 -99q0 -40 -20 -74t-53 -54t-74 -20t-74 20t-54 54t-20 74q0 85 66 186q34 51 70 87q5 5 12 5zM672 164q31 0 57 15t41 42t16 58
q0 65 -45 143q-29 50 -69 95q-41 -46 -69 -95q-46 -78 -46 -143q0 -31 15 -57t42 -42t58 -16zM721 279q0 -21 -14 -35t-35 -15t-34 14t-15 36t14 35t35 14t34 -14t15 -35zM655 279q0 -7 5 -11t11 -5t12 4t5 12t-5 12t-11 5t-12 -5t-5 -12z" />
</svg>
