<?xml version="1.0" standalone="no"?>
<!DOCTYPE svg PUBLIC "-//W3C//DTD SVG 1.1//EN" "http://www.w3.org/Graphics/SVG/1.1/DTD/svg11.dtd" >
<svg xmlns="http://www.w3.org/2000/svg" xmlns:xlink="http://www.w3.org/1999/xlink" version="1.1" viewBox="-11 0 1070 1024">
   <path fill="#ffffff"
d="M262 0q-71 0 -131 35t-96 95t-35 132q0 93 60 207q43 82 113 168q35 43 66 74q10 10 23 10t24 -10l3 -3q73 -76 128 -159q107 -161 107 -287q0 -71 -35 -131t-95 -96t-132 -35zM262 640q-71 -80 -119 -158q-77 -125 -77 -220q0 -54 26 -99t71 -71t99 -26t99 26t71 71
t27 99q0 95 -77 220q-48 77 -120 158zM786 328q-71 0 -131 35t-95 95q-36 61 -36 132q0 125 108 286q55 83 128 160l3 3q11 9 24 9t23 -9l3 -3q73 -77 128 -160q108 -161 108 -286q0 -71 -35 -131t-96 -96t-132 -35zM786 968q-71 -80 -119 -158q-77 -126 -77 -220
q0 -54 26 -99t72 -71t98 -27t98 26t72 72t27 99q0 94 -77 220q-50 80 -120 158zM262 197q-27 0 -46 19t-19 46t19 46t46 20t46 -19t20 -47t-19 -46t-47 -19zM786 524q-27 0 -46 19t-19 47t19 46t46 19t46 -19t20 -46t-19 -46t-47 -20z" />
</svg>
