<?xml version="1.0" standalone="no"?>
<!DOCTYPE svg PUBLIC "-//W3C//DTD SVG 1.1//EN" "http://www.w3.org/Graphics/SVG/1.1/DTD/svg11.dtd" >
<svg xmlns="http://www.w3.org/2000/svg" xmlns:xlink="http://www.w3.org/1999/xlink" version="1.1" viewBox="-10 0 1034 1024">
   <path fill="#ffffff"
d="M480 263q-11 -3 -18 6l-183 262l-184 -262q-3 -4 -8 -6t-10 0t-8 6t-3 10v491q0 7 4 11t12 5t11 -4t5 -12v-439l167 238q5 7 13 7t14 -7l167 -238v439q0 7 5 12t11 5t12 -5t5 -12v-491q0 -6 -3 -10t-9 -6zM978 595q-5 -5 -11 -5t-12 5l-136 136v-452q0 -7 -5 -11t-11 -5
t-12 4t-5 12v452l-135 -136q-5 -5 -12 -5t-11 4t-5 12t4 12l164 164q5 5 11 5t12 -5l164 -164q5 -5 5 -11t-5 -12z" />
</svg>
