<?xml version="1.0" standalone="no"?>
<!DOCTYPE svg PUBLIC "-//W3C//DTD SVG 1.1//EN" "http://www.w3.org/Graphics/SVG/1.1/DTD/svg11.dtd" >
<svg xmlns="http://www.w3.org/2000/svg" xmlns:xlink="http://www.w3.org/1999/xlink" version="1.1" viewBox="-10 0 1036 1024">
   <path fill="#ffffff"
d="M508 885h-377q-14 0 -23 -9t-10 -24v-655q0 -14 9 -23t24 -10h787q13 0 22 10t10 23v311q0 7 5 11t11 5t12 -4t5 -12v-311q0 -27 -19 -46t-46 -20h-787q-27 0 -46 19t-19 47v655q0 27 19 46t46 20h377q7 0 12 -5t5 -11t-5 -12t-12 -5zM483 360h25q7 0 11 -4t5 -12t-4 -11
t-12 -5h-25q-33 0 -61 16t-45 46q-16 -29 -45 -45t-62 -17h-24q-7 0 -11 4t-5 12t4 11t12 5h24q38 0 64 26t26 65v73h-49q-7 0 -11 5t-5 11t4 12t12 5h49v41q0 37 -26 63t-64 27h-24q-7 0 -12 5t-5 11t5 12t12 5h24q33 0 62 -17t45 -46q16 29 44 46t62 17h25q7 0 11 -5
t5 -11t-4 -12t-12 -5h-25q-37 0 -63 -26t-27 -64v-41h49q7 0 12 -5t5 -11t-5 -12t-12 -5h-49v-73q0 -38 26 -64t64 -27zM950 590h-295q-27 0 -46 19t-19 46v295q0 27 19 46t46 20h295q27 0 46 -19t20 -47v-295q0 -27 -19 -46t-47 -19zM623 655q0 -13 9 -22t23 -10h108
l-140 140v-108zM623 950v-140l187 -187h140q4 0 8 1l-334 334q-1 -4 -1 -8zM983 950q0 14 -9 23t-24 10h-108l141 -141v108zM983 796l-187 187h-141q-4 0 -8 -2l335 -334q1 4 1 8v141z" />
</svg>
