<?xml version="1.0" standalone="no"?>
<!DOCTYPE svg PUBLIC "-//W3C//DTD SVG 1.1//EN" "http://www.w3.org/Graphics/SVG/1.1/DTD/svg11.dtd" >
<svg xmlns="http://www.w3.org/2000/svg" xmlns:xlink="http://www.w3.org/1999/xlink" version="1.1" viewBox="-10 0 1069 1024">
   <path fill="#ffffff"
d="M819 590h-360v-361q0 -13 -10 -22t-23 -10q-116 0 -215 58q-96 57 -153 153q-58 99 -58 215t58 215q57 96 153 153q99 58 215 58t215 -58q96 -57 153 -153q58 -99 58 -215q0 -14 -9 -23t-24 -10zM426 983q-96 2 -180 -44q-81 -45 -131 -123q-51 -80 -55 -176t39 -181
q42 -83 119 -135q79 -53 175 -60v359q0 9 5 16v0l184 307q-74 37 -156 37zM638 912l-154 -257h301q-7 77 -45 144t-102 113zM557 0q-14 0 -23 9t-10 24v459q0 13 10 22t23 10h459q13 0 23 -9t10 -23q0 -134 -67 -248q-65 -112 -177 -177q-114 -67 -248 -67zM590 459v-392
q103 8 191 62q86 53 139 139q54 88 62 191h-392z" />
</svg>
