<?xml version="1.0" standalone="no"?>
<!DOCTYPE svg PUBLIC "-//W3C//DTD SVG 1.1//EN" "http://www.w3.org/Graphics/SVG/1.1/DTD/svg11.dtd" >
<svg xmlns="http://www.w3.org/2000/svg" xmlns:xlink="http://www.w3.org/1999/xlink" version="1.1" viewBox="-10 0 1069 1024">
   <path fill="#ffffff"
d="M377 267q-8 -4 -16 -4t-16 4t-12 11t-5 17v459q0 9 4 16t12 12t16 4t17 -4l393 -229q8 -4 12 -12t4 -16t-4 -17t-12 -12zM524 0q-107 0 -204 42q-94 39 -166 112t-112 167q-41 97 -41 203t41 204q40 94 112 166t167 113q98 41 204 41t204 -41q94 -40 166 -112t113 -167
q41 -97 41 -204t-42 -204q-39 -94 -112 -166t-167 -113q-97 -41 -204 -41zM524 983q-125 0 -232 -63q-104 -60 -164 -164q-63 -107 -63 -232t63 -232q60 -104 164 -164q107 -63 232 -63t232 63q104 60 164 164q63 107 63 232t-63 232q-60 104 -164 164q-107 63 -232 63z" />
</svg>
