<?xml version="1.0" standalone="no"?>
<!DOCTYPE svg PUBLIC "-//W3C//DTD SVG 1.1//EN" "http://www.w3.org/Graphics/SVG/1.1/DTD/svg11.dtd" >
<svg xmlns="http://www.w3.org/2000/svg" xmlns:xlink="http://www.w3.org/1999/xlink" version="1.1" viewBox="-10 0 1034 1024">
   <path fill="#ffffff"
d="M786 295h-98v-213q0 -7 -5 -11t-11 -5t-12 4t-5 12v213h-262v-213q0 -7 -5 -11t-11 -5t-12 4t-5 12v213h-98q-14 0 -23 9t-10 24v101q0 36 13 70t38 61l105 118q8 9 8 22v86q0 14 9 23t24 10h82v148q0 7 5 11t11 5t12 -4t5 -12v-148h82q13 0 22 -10t10 -23v-86
q0 -13 9 -22l105 -118q24 -27 37 -61t13 -70v-101q0 -14 -9 -23t-24 -10zM786 429q0 30 -10 58t-31 52l-106 117q-16 19 -16 44v86h-197v-86q0 -25 -17 -44l-105 -117q-20 -23 -31 -51t-11 -59v-101h524v101z" />
</svg>
