<?xml version="1.0" standalone="no"?>
<!DOCTYPE svg PUBLIC "-//W3C//DTD SVG 1.1//EN" "http://www.w3.org/Graphics/SVG/1.1/DTD/svg11.dtd" >
<svg xmlns="http://www.w3.org/2000/svg" xmlns:xlink="http://www.w3.org/1999/xlink" version="1.1" viewBox="-10 0 1059 1024">
   <path fill="#ffffff"
d="M590 328q0 -14 -9 -23t-24 -10h-98v-213q0 -7 -5 -11t-11 -5t-12 4t-5 12v213h-197v-213q0 -7 -4 -11t-12 -5t-11 4t-5 12v213h-99q-13 0 -22 10t-10 23v70q0 50 27 91l98 147q6 8 6 18v67q0 13 9 23t23 10h82v213q0 7 5 11t11 5t12 -4t5 -12v-213h82q14 0 23 -9t10 -24
v-67q0 -10 5 -18l98 -147q28 -41 28 -91v-70zM557 398q0 39 -22 72l-98 147q-11 17 -11 37v67h-197v-67q0 -20 -11 -37l-98 -147q-22 -33 -22 -72v-70h459v70zM1029 855l-50 -52l50 -52q8 -8 9 -18t-4 -21l-37 -64q-6 -9 -16 -13t-20 -2l-70 17l-20 -69q-3 -10 -11 -17
t-20 -7h-74q-11 0 -19 7t-12 17l-20 69l-70 -17q-11 -3 -21 1t-16 14l-36 64q-6 9 -5 20t9 19l51 52l-51 52q-7 8 -8 19t4 20l36 64q6 10 16 14t21 1l70 -17l20 69q3 10 11 17t20 7h74q11 0 19 -7t12 -17l20 -69l70 17q10 3 20 -1t16 -14l37 -64q5 -10 4 -20t-9 -19z
M969 941l-70 -17q-13 -3 -24 3t-15 20l-20 69h-74l-20 -70q-4 -12 -15 -18t-24 -4l-70 17l-37 -64l50 -51q9 -10 9 -23t-9 -23l-50 -52l37 -64l70 18q13 3 24 -3t15 -20l20 -69h73l20 69q4 13 15 19t24 4l70 -18l37 64l-50 52q-9 10 -9 23t9 23l50 51zM803 721q-34 0 -58 24
t-24 58t24 58t58 24t58 -24t24 -58t-24 -58t-58 -24zM803 852q-20 0 -34 -14t-15 -35t14 -34t35 -15t34 14t15 35t-14 34t-35 15z" />
</svg>
