<?xml version="1.0" standalone="no"?>
<!DOCTYPE svg PUBLIC "-//W3C//DTD SVG 1.1//EN" "http://www.w3.org/Graphics/SVG/1.1/DTD/svg11.dtd" >
<svg xmlns="http://www.w3.org/2000/svg" xmlns:xlink="http://www.w3.org/1999/xlink" version="1.1" viewBox="-10 0 1073 1024">
   <path fill="#ffffff"
d="M229 459q-66 0 -122 36q48 -106 134 -184t196 -116q12 -5 17 -17t1 -24t-16 -18t-24 -3q-120 39 -214 122q-92 82 -145 193q-53 114 -56 240q0 62 31 114t83 84t115 31t114 -31t84 -83t31 -115t-31 -114t-83 -84t-115 -31zM229 852q-45 0 -82 -22t-60 -59t-22 -83t22 -82
t59 -60t83 -22t82 22t60 59t22 83t-22 82t-59 60t-83 22zM819 459q-66 0 -122 36q48 -106 134 -184t196 -116q9 -2 15 -9t9 -16t-1 -18t-11 -14t-16 -7t-18 2q-120 39 -214 122q-92 82 -145 193q-53 114 -56 240q0 62 31 114t83 84t115 31t114 -31t84 -83t31 -115t-31 -114
t-83 -84t-115 -31zM819 852q-45 0 -82 -22t-60 -59t-22 -83t22 -82t59 -60t83 -22t82 22t60 59t22 83t-22 82t-59 60t-83 22z" />
</svg>
