<?xml version="1.0" standalone="no"?>
<!DOCTYPE svg PUBLIC "-//W3C//DTD SVG 1.1//EN" "http://www.w3.org/Graphics/SVG/1.1/DTD/svg11.dtd" >
<svg xmlns="http://www.w3.org/2000/svg" xmlns:xlink="http://www.w3.org/1999/xlink" version="1.1" viewBox="-12 0 1072 1024">
   <path fill="#ffffff"
d="M950 594v-140q41 -10 68 -42t31 -75t-18 -79t-62 -52t-81 -7t-69 43l-167 -83q9 -39 -6 -76t-48 -60t-74 -23t-73 22t-49 60t-6 77l-167 83q-27 -31 -66 -41t-78 3t-62 48t-24 75t23 75t62 48t78 5t67 -42l167 84q-7 34 3 66t34 56t59 32v140q-34 9 -59 33t-35 57t-2 67
t33 60t57 35t67 3t60 -32t36 -56t3 -68l167 -83q28 32 69 41t80 -6t61 -52t20 -78t-31 -75t-68 -43zM918 262q27 0 46 19t20 47t-19 46t-47 20t-46 -19t-20 -47t19 -46t47 -20zM524 66q20 0 37 11t25 29t4 38t-18 34t-34 19t-38 -4t-30 -25t-11 -37q0 -27 19 -46t46 -19z
M131 393q-20 0 -36 -11t-25 -30t-4 -38t18 -34t34 -18t38 4t30 25t11 37q0 27 -19 46t-47 19zM459 524q0 -20 11 -36t30 -25t38 -4t34 18t18 34t-4 38t-25 30t-37 11q-27 0 -46 -19t-19 -47zM524 983q-20 0 -36 -11t-25 -30t-4 -38t18 -34t34 -18t38 4t30 25t11 37
q0 27 -19 46t-47 19zM623 832q-27 -31 -66 -41v-140q41 -10 68 -42t30 -75t-18 -79t-62 -52t-80 -7t-69 42l-167 -83q6 -27 0 -55l167 -83q18 22 44 34t54 12t55 -12t44 -34l166 83q-7 34 3 66t34 56t59 32v140q-34 8 -58 31t-35 56t-3 67zM918 786q-20 0 -37 -11t-25 -29
t-4 -38t18 -34t34 -19t38 4t30 25t11 37q0 27 -19 46t-46 19z" />
</svg>
