<?xml version="1.0" standalone="no"?>
<!DOCTYPE svg PUBLIC "-//W3C//DTD SVG 1.1//EN" "http://www.w3.org/Graphics/SVG/1.1/DTD/svg11.dtd" >
<svg xmlns="http://www.w3.org/2000/svg" xmlns:xlink="http://www.w3.org/1999/xlink" version="1.1" viewBox="-11 0 1071 1024">
   <path fill="#ffffff"
d="M197 66q-54 0 -99 26t-71 72t-27 98t26 98t72 72t99 27t99 -26t71 -72t26 -99t-26 -99t-72 -71t-98 -26zM197 393q-36 0 -66 -17t-47 -48t-18 -66t17 -66t48 -47t66 -18t66 17t47 48t18 66t-17 66t-48 47t-66 18zM262 262q0 27 -19 46t-46 20t-46 -19t-20 -47t19 -46
t47 -19t46 19t19 46zM197 590q-54 0 -99 26t-71 72t-27 98t26 98t72 72t99 27t99 -26t71 -72t26 -99t-26 -99t-72 -71t-98 -26zM197 918q-36 0 -66 -17t-47 -48t-18 -67t17 -66t48 -47t66 -18t66 17t47 48t18 66t-17 66t-48 48t-66 18zM557 197h459q14 0 23 -10t10 -23
t-9 -23t-24 -10h-459q-13 0 -23 9t-10 23t10 24t23 10zM1016 328h-459q-14 0 -23 9t-10 23t10 23t23 10h459q14 0 23 -9t10 -24t-9 -23t-24 -9zM1016 655h-459q-13 0 -23 9t-10 23t10 24t23 10h459q14 0 23 -10t10 -23t-9 -23t-24 -10zM1016 852h-459q-13 0 -23 9t-10 23
t10 24t23 10h459q14 0 23 -10t10 -23t-9 -23t-24 -10z" />
</svg>
