<?xml version="1.0" standalone="no"?>
<!DOCTYPE svg PUBLIC "-//W3C//DTD SVG 1.1//EN" "http://www.w3.org/Graphics/SVG/1.1/DTD/svg11.dtd" >
<svg xmlns="http://www.w3.org/2000/svg" xmlns:xlink="http://www.w3.org/1999/xlink" version="1.1" viewBox="-10 0 1034 1024">
   <path fill="#ffffff"
d="M262 66q-60 0 -109 33t-73 89t-11 113t54 101t101 54t114 -11t88 -73t33 -110q0 -53 -26 -98t-72 -71t-99 -27zM262 426q-45 0 -82 -22t-60 -59t-22 -83t22 -82t59 -60t83 -22t82 22t60 59t22 83t-22 82t-59 60t-83 22zM262 590q-60 0 -109 33t-73 89t-11 113t54 101
t101 54t114 -11t88 -73t33 -110q0 -53 -26 -98t-72 -71t-99 -27zM262 950q-45 0 -82 -22t-60 -59t-22 -83t22 -82t59 -60t83 -22t82 22t60 59t22 83t-22 82t-59 60t-83 22zM262 197q-20 0 -36 11t-25 30t-4 38t18 34t34 18t38 -4t30 -25t11 -37q0 -27 -19 -46t-47 -19z
M262 295q-14 0 -23 -9t-10 -24t9 -23t24 -10t23 9t10 24t-9 23t-24 10zM541 197h426q7 0 11 -5t5 -11t-4 -12t-12 -5h-426q-7 0 -11 5t-5 11t4 12t12 5zM967 328h-426q-7 0 -11 4t-5 12t4 11t12 5h426q7 0 11 -4t5 -12t-4 -11t-12 -5zM967 688h-426q-7 0 -11 5t-5 11t4 12
t12 5h426q7 0 11 -5t5 -11t-4 -12t-12 -5zM967 852h-426q-7 0 -11 5t-5 11t4 12t12 5h426q7 0 11 -5t5 -11t-4 -12t-12 -5z" />
</svg>
