<?xml version="1.0" standalone="no"?>
<!DOCTYPE svg PUBLIC "-//W3C//DTD SVG 1.1//EN" "http://www.w3.org/Graphics/SVG/1.1/DTD/svg11.dtd" >
<svg xmlns="http://www.w3.org/2000/svg" xmlns:xlink="http://www.w3.org/1999/xlink" version="1.1" viewBox="-10 0 1070 1024">
   <path fill="#ffffff"
d="M1032 885h-999v-738q0 -6 -5 -11t-12 -5t-11 5t-5 11v754q0 6 5 11t11 6h1016q6 0 11 -5t6 -12t-5 -11t-12 -5zM803 492h131q6 0 11 -5t5 -12v-262q0 -6 -5 -11t-11 -5h-131q-6 0 -11 5t-6 11v262q0 6 5 11t12 6zM819 229h99v230h-99v-230zM573 623h132q6 0 11 -5t5 -12
v-196q0 -7 -5 -12t-11 -5h-132q-6 0 -11 5t-5 12v196q0 6 5 11t11 6zM590 426h98v164h-98v-164zM115 623h131q6 0 11 -5t5 -12v-262q0 -6 -5 -11t-11 -5h-131q-7 0 -12 5t-5 11v262q0 6 5 11t12 6zM131 360h98v230h-98v-230zM344 819h131q6 0 11 -5t6 -11v-295q0 -6 -5 -11
t-12 -5h-131q-6 0 -11 5t-5 11v295q0 6 5 11t11 5zM360 524h99v262h-99v-262z" />
</svg>
