<?xml version="1.0" standalone="no"?>
<!DOCTYPE svg PUBLIC "-//W3C//DTD SVG 1.1//EN" "http://www.w3.org/Graphics/SVG/1.1/DTD/svg11.dtd" >
<svg xmlns="http://www.w3.org/2000/svg" xmlns:xlink="http://www.w3.org/1999/xlink" version="1.1" viewBox="-10 0 1034 1024">
   <path fill="#ffffff"
d="M967 885h-869v-738q0 -7 -4 -11t-12 -5t-11 4t-5 12v754q0 7 4 12t12 5h885q7 0 11 -5t5 -11t-4 -12t-12 -5zM279 786q25 0 45 -14t30 -37t5 -47t-22 -42t-42 -22t-48 4t-36 31t-14 46q0 34 24 57t58 24zM279 655q20 0 34 14t14 35t-14 34t-35 15t-34 -14t-15 -34t14 -35
t36 -15zM606 688q34 0 58 -24t24 -58t-24 -58t-58 -24t-58 24t-24 58t24 58t58 24zM606 557q20 0 34 14t15 35t-14 34t-35 15t-34 -14t-15 -35t14 -34t35 -15zM377 459q34 0 58 -24t24 -58t-24 -58t-58 -24t-58 24t-24 58t24 58t58 24zM377 328q20 0 34 14t15 35t-14 34
t-35 15t-34 -14t-15 -35t14 -34t35 -15zM901 557q34 0 58 -24t24 -58t-24 -58t-58 -24t-58 24t-24 58t24 58t58 24zM901 426q20 0 34 14t15 35t-14 34t-35 15t-34 -14t-15 -35t14 -34t35 -15zM672 295q34 0 58 -24t24 -58t-24 -58t-58 -24t-58 24t-24 58t24 58t58 24z
M672 164q20 0 34 14t15 35t-14 34t-35 15t-34 -14t-15 -35t14 -34t35 -15z" />
</svg>
