<?xml version="1.0" standalone="no"?>
<!DOCTYPE svg PUBLIC "-//W3C//DTD SVG 1.1//EN" "http://www.w3.org/Graphics/SVG/1.1/DTD/svg11.dtd" >
<svg xmlns="http://www.w3.org/2000/svg" xmlns:xlink="http://www.w3.org/1999/xlink" version="1.1" viewBox="-13 0 1069 1024">
   <path fill="#ffffff"
d="M623 393h-164v-164q0 -14 -9 -23t-24 -10t-23 9t-10 24v164h-164q-14 0 -23 9t-10 24t9 23t24 10h164v164q0 14 9 23t24 10t23 -9t10 -24v-164h164q14 0 23 -9t10 -24t-9 -23t-24 -10zM1039 993l-290 -290q74 -86 95 -196q21 -107 -12 -211q-34 -108 -117 -184t-192 -103
q-106 -25 -212 4q-108 30 -188 110t-110 188q-29 106 -4 212q26 109 102 192t185 117q104 33 211 12q110 -21 196 -95l290 290q10 7 22 6t20 -9t10 -21t-6 -22zM426 786q-98 0 -182 -49q-81 -48 -129 -129q-49 -84 -49 -182t49 -182q48 -81 129 -129q84 -49 182 -49t182 49
q81 48 129 129q49 84 49 182t-49 181q-48 82 -130 130q-83 49 -181 49z" />
</svg>
