<?xml version="1.0" standalone="no"?>
<!DOCTYPE svg PUBLIC "-//W3C//DTD SVG 1.1//EN" "http://www.w3.org/Graphics/SVG/1.1/DTD/svg11.dtd" >
<svg xmlns="http://www.w3.org/2000/svg" xmlns:xlink="http://www.w3.org/1999/xlink" version="1.1" viewBox="-10 0 1069 1024">
   <path fill="#ffffff"
d="M983 131h-917q-27 0 -46 19t-20 47v655q0 27 19 46t47 20h360q14 0 23 -9t10 -24t-9 -23t-24 -10h-360v-524h917v98q0 14 9 23t24 10t23 -9t10 -24v-229q0 -27 -19 -46t-47 -20zM66 262v-65h917v65h-917zM890 844q28 -41 28 -90v0q0 -45 -22 -82t-59 -60t-83 -22t-82 22
t-60 59t-22 83t22 82t59 60t83 22v0q49 0 90 -28l83 84q10 10 23 10t24 -10t10 -23t-10 -24zM754 852q-41 0 -69 -28t-29 -70t28 -69t70 -29t69 28t29 70t-28 69t-70 29z" />
</svg>
