<?xml version="1.0" standalone="no"?>
<!DOCTYPE svg PUBLIC "-//W3C//DTD SVG 1.1//EN" "http://www.w3.org/Graphics/SVG/1.1/DTD/svg11.dtd" >
<svg xmlns="http://www.w3.org/2000/svg" xmlns:xlink="http://www.w3.org/1999/xlink" version="1.1" viewBox="-11 0 1070 1024">
   <path fill="#ffffff"
d="M1049 721v-393q0 -36 -17 -66t-48 -47t-66 -18h-885q-12 2 -19 11t-8 21t7 22t20 11h295v524h-295q-14 0 -23 9t-10 24t9 23t24 10h885q36 0 66 -17t47 -48t18 -66zM983 721q0 27 -19 46t-46 19h-525v-524h525q27 0 46 19t19 47v393zM711 613q-10 9 -23 9t-23 -9
l-131 -131q-7 -10 -6 -22t9 -20t21 -10t22 6l108 108l108 -108q10 -7 22 -6t20 9t10 21t-6 22z" />
</svg>
