<?xml version="1.0" standalone="no"?>
<!DOCTYPE svg PUBLIC "-//W3C//DTD SVG 1.1//EN" "http://www.w3.org/Graphics/SVG/1.1/DTD/svg11.dtd" >
<svg xmlns="http://www.w3.org/2000/svg" xmlns:xlink="http://www.w3.org/1999/xlink" version="1.1" viewBox="-10 0 1034 1024">
   <path fill="#ffffff"
d="M295 66h-197q-13 0 -22 9t-10 23v197q0 13 9 23t23 10h197q14 0 23 -9t10 -24v-197q0 -13 -10 -22t-23 -10zM623 66h-197q-13 0 -23 9t-10 23v197q0 14 9 23t24 10h197q13 0 22 -10t10 -23v-197q0 -13 -9 -22t-23 -10zM590 262h-131v-131h131v131zM950 66h-196
q-13 0 -23 9t-10 23v197q0 14 9 23t24 10h196q14 0 23 -9t10 -24v-197q0 -13 -10 -22t-23 -10zM918 262h-132v-131h132v131zM295 393h-197q-13 0 -22 10t-10 23v197q0 13 9 22t23 10h197q13 0 23 -9t10 -23v-197q0 -14 -9 -23t-24 -10zM262 590h-131v-131h131v131zM623 393
h-197q-14 0 -23 9t-10 24v197q0 13 10 22t23 10h197q13 0 22 -9t10 -23v-197q0 -13 -9 -23t-23 -10zM590 590h-131v-131h131v131zM950 393h-196q-14 0 -23 9t-10 24v197q0 13 10 22t23 10h196q13 0 23 -9t10 -23v-197q0 -14 -9 -23t-24 -10zM918 590h-132v-131h132v131z
M295 721h-197q-13 0 -22 10t-10 23v196q0 13 9 23t23 10h197q14 0 23 -9t10 -24v-196q0 -14 -9 -23t-24 -10zM262 918h-131v-132h131v132zM623 721h-197q-14 0 -23 9t-10 24v196q0 14 9 23t24 10h197q13 0 22 -10t10 -23v-196q0 -13 -9 -23t-23 -10zM590 918h-131v-132h131
v132zM950 721h-196q-14 0 -23 9t-10 24v196q0 14 9 23t24 10h196q14 0 23 -9t10 -24v-196q0 -14 -9 -23t-24 -10zM918 918h-132v-132h132v132z" />
</svg>
