<?xml version="1.0" standalone="no"?>
<!DOCTYPE svg PUBLIC "-//W3C//DTD SVG 1.1//EN" "http://www.w3.org/Graphics/SVG/1.1/DTD/svg11.dtd" >
<svg xmlns="http://www.w3.org/2000/svg" xmlns:xlink="http://www.w3.org/1999/xlink" version="1.1" viewBox="-10 0 1034 1024">
   <path fill="#ffffff"
d="M426 983h197q13 0 22 -10t10 -23v-852q0 -13 -9 -22t-23 -10h-197q-13 0 -23 9t-10 23v852q0 14 9 23t24 10zM98 983h197q14 0 23 -9t10 -24v-852q0 -13 -10 -22t-23 -10h-197q-13 0 -22 9t-10 23v852q0 13 9 23t23 10zM131 131h131v787h-131v-787zM950 66h-196
q-13 0 -23 9t-10 23v852q0 14 9 23t24 10h196q14 0 23 -9t10 -24v-852q0 -13 -10 -22t-23 -10zM918 918h-132v-787h132v787z" />
</svg>
