<?xml version="1.0" standalone="no"?>
<!DOCTYPE svg PUBLIC "-//W3C//DTD SVG 1.1//EN" "http://www.w3.org/Graphics/SVG/1.1/DTD/svg11.dtd" >
<svg xmlns="http://www.w3.org/2000/svg" xmlns:xlink="http://www.w3.org/1999/xlink" version="1.1" viewBox="-10 0 1069 1024">
   <path fill="#ffffff"
d="M449 337q-10 -9 -23 -9t-23 9l-164 164q-10 10 -10 23t10 24l164 163q6 8 15 11t18 2t17 -9t9 -16t-1 -19t-12 -15l-141 -141l141 -140q10 -10 10 -23t-10 -24zM983 66h-262q-27 0 -46 19t-20 46v33q0 14 9 23t24 10t23 -9t10 -24v-33h262v787h-262v-33q0 -14 -9 -23
t-24 -10t-23 9t-10 24v33q0 27 19 46t47 19h262q27 0 46 -19t20 -46v-787q0 -27 -19 -46t-47 -19zM360 852q-13 0 -22 10t-10 23v33h-262v-787h262v33q2 12 11 19t21 8t22 -7t11 -20v-33q0 -27 -19 -46t-46 -19h-262q-27 0 -46 19t-20 46v787q0 27 19 46t47 19h262
q27 0 46 -19t19 -46v-33q0 -14 -9 -23t-24 -10zM810 501l-164 -164q-10 -10 -23 -10t-24 10t-10 23t10 24l141 140l-141 141q-8 10 -8 23t10 22t22 9t23 -8l164 -163q10 -10 10 -23t-10 -24z" />
</svg>
