<?xml version="1.0" standalone="no"?>
<!DOCTYPE svg PUBLIC "-//W3C//DTD SVG 1.1//EN" "http://www.w3.org/Graphics/SVG/1.1/DTD/svg11.dtd" >
<svg xmlns="http://www.w3.org/2000/svg" xmlns:xlink="http://www.w3.org/1999/xlink" version="1.1" viewBox="-11 0 1071 1024">
   <path fill="#ffffff"
d="M1049 1016q0 14 -9 23t-24 10h-393q-14 0 -23 -9t-10 -24t9 -23t24 -10h393q14 0 23 9t10 24zM426 983h-393q-14 0 -23 9t-10 24t9 23t24 10h393q14 0 23 -9t10 -24t-9 -23t-24 -10zM1016 262q12 -2 19 -11t8 -21t-7 -22t-20 -11h-230q-27 0 -46 19t-19 46v262
q0 27 19 46t46 20h230q14 0 23 -9t10 -24t-9 -23t-24 -10h-230v-262h230zM508 352q0 44 -25 84l97 98q7 10 6 22t-9 20t-21 10t-22 -6l-98 -97q-40 25 -83 25t-78 -21t-57 -57t-21 -78t21 -77t56 -57t78 -21t78 21t57 56t21 78zM442 352q0 -37 -26 -63t-64 -27t-63 26
t-27 64t26 63t64 27t63 -26t27 -64zM1016 721h-885q-27 0 -46 -19t-19 -47v-524q0 -27 19 -46t46 -19h885q14 0 23 -9t10 -24t-9 -23t-24 -10h-885q-35 0 -65 17t-48 48t-18 66v524q0 36 17 66t48 47t66 18h885q12 -2 19 -11t8 -21t-7 -22t-20 -11z" />
</svg>
