<?xml version="1.0" standalone="no"?>
<!DOCTYPE svg PUBLIC "-//W3C//DTD SVG 1.1//EN" "http://www.w3.org/Graphics/SVG/1.1/DTD/svg11.dtd" >
<svg xmlns="http://www.w3.org/2000/svg" xmlns:xlink="http://www.w3.org/1999/xlink" version="1.1" viewBox="-10 0 1034 1024">
   <path fill="#ffffff"
d="M229 393h590q10 0 17 -5t12 -14t3 -18t-7 -17l-295 -328q-10 -10 -24 -10t-25 10l-295 328q-6 7 -7 16t2 18t12 14t17 6zM524 82l222 246h-443zM819 655h-590q-10 0 -18 5t-12 15t-2 18t8 17l295 328q10 11 24 11t25 -11l295 -328q7 -7 8 -17t-2 -19t-13 -14t-18 -5z
M524 967l-221 -246h443z" />
</svg>
