<?xml version="1.0" standalone="no"?>
<!DOCTYPE svg PUBLIC "-//W3C//DTD SVG 1.1//EN" "http://www.w3.org/Graphics/SVG/1.1/DTD/svg11.dtd" >
<svg xmlns="http://www.w3.org/2000/svg" xmlns:xlink="http://www.w3.org/1999/xlink" version="1.1" viewBox="-10 0 1070 1024">
   <path fill="#ffffff"
d="M1042 823l-327 -262q-8 -6 -17 -2t-9 14l-1 416q0 5 3 9t8 7t10 0t8 -6l112 -133l82 173q3 6 9 8t12 0t9 -9t-1 -13l-82 -173h174q5 0 9 -3t7 -8t0 -10t-6 -8zM833 819q-8 0 -13 6l-99 119v-336l264 211h-152zM688 328h262v180q0 7 5 11t11 5t12 -4t5 -12v-410
q0 -13 -10 -22t-23 -10h-852q-13 0 -22 9t-10 23v656q0 13 9 22t23 10h443q7 0 11 -4t5 -12t-4 -11t-12 -5h-148v-197h148q7 0 12 -5t5 -11t-5 -12t-12 -5h-148v-196h262v114q0 7 5 12t11 5t12 -5t5 -12v-114zM950 295h-262v-197h262v197zM360 98v197h-262v-197h262z
M360 754h-262v-197h262v197zM360 524h-262v-196h262v196zM393 295v-197h262v197h-262z" />
</svg>
