<?xml version="1.0" standalone="no"?>
<!DOCTYPE svg PUBLIC "-//W3C//DTD SVG 1.1//EN" "http://www.w3.org/Graphics/SVG/1.1/DTD/svg11.dtd" >
<svg xmlns="http://www.w3.org/2000/svg" xmlns:xlink="http://www.w3.org/1999/xlink" version="1.1" viewBox="-10 0 1034 1024">
   <path fill="#ffffff"
d="M560 526l272 -272q8 -6 11 -15t2 -18t-9 -17t-16 -9t-19 1t-15 12l-272 271l-272 -271q-10 -7 -22 -6t-20 9t-10 21t6 22l272 272l-272 271q-8 10 -8 22t9 22t22 10t23 -7l272 -272l272 272q10 8 23 8t22 -10t9 -22t-8 -23z" />
</svg>
