<?xml version="1.0" standalone="no"?>
<!DOCTYPE svg PUBLIC "-//W3C//DTD SVG 1.1//EN" "http://www.w3.org/Graphics/SVG/1.1/DTD/svg11.dtd" >
<svg xmlns="http://www.w3.org/2000/svg" xmlns:xlink="http://www.w3.org/1999/xlink" version="1.1" viewBox="-10 0 1069 1024">
   <path fill="#ffffff"
d="M524 0q-107 0 -204 42q-94 39 -166 112t-112 167q-41 97 -41 203t41 204q40 94 112 166t167 113q98 41 204 41t204 -41q94 -40 166 -112t113 -167q41 -97 41 -204t-42 -204q-39 -94 -112 -166t-167 -113q-97 -41 -204 -41zM663 710l-139 -139l-139 139q-10 8 -23 8
t-22 -10t-9 -22t8 -23l139 -139l-139 -139q-8 -6 -11 -15t-2 -18t9 -17t16 -9t19 1t15 12l139 139l139 -139q10 -8 22 -8t22 9t10 22t-7 23l-139 139l139 139q10 10 10 23t-10 24t-23 10t-24 -10z" />
</svg>
