<?xml version="1.0" standalone="no"?>
<!DOCTYPE svg PUBLIC "-//W3C//DTD SVG 1.1//EN" "http://www.w3.org/Graphics/SVG/1.1/DTD/svg11.dtd" >
<svg xmlns="http://www.w3.org/2000/svg" xmlns:xlink="http://www.w3.org/1999/xlink" version="1.1" viewBox="-10 0 1034 1024">
   <path fill="#ffffff"
d="M885 688q0 -96 -48 -179l-284 -493q-4 -8 -12 -12t-16 -4t-17 4t-12 12l-285 493q-36 65 -44 138t13 143t70 128t115 89t139 37t144 -20t123 -76t83 -118t31 -142zM819 688q0 61 -24 117t-68 97t-101 63t-118 19t-115 -31t-94 -74t-57 -105t-11 -118t37 -114l256 -444
l256 444q39 68 39 146z" />
</svg>
