<?xml version="1.0" standalone="no"?>
<!DOCTYPE svg PUBLIC "-//W3C//DTD SVG 1.1//EN" "http://www.w3.org/Graphics/SVG/1.1/DTD/svg11.dtd" >
<svg xmlns="http://www.w3.org/2000/svg" xmlns:xlink="http://www.w3.org/1999/xlink" version="1.1" viewBox="-10 0 1051 1024">
   <path fill="#ffffff"
d="M328 721q54 0 99 -26t71 -72t27 -99t-26 -99t-72 -71t-99 -27t-99 26t-71 72t-27 99t26 99t72 71t99 27zM328 393q36 0 66 17t47 48t18 66t-17 66t-48 47t-66 18t-66 -17t-47 -48t-18 -66t17 -66t48 -47t66 -18zM328 852h393q86 -5 158 -50q70 -45 110 -117
q42 -75 42 -160t-42 -161q-40 -72 -110 -117q-72 -45 -158 -50h-393q-86 5 -158 50q-70 45 -110 117q-42 75 -42 160t42 161q40 72 110 117q72 45 158 50zM328 262h393q71 0 131 35t96 95t35 132t-35 131t-95 96t-132 35h-393q-71 0 -131 -35t-96 -95t-35 -132t35 -131
t95 -96t132 -35z" />
</svg>
