<?xml version="1.0" standalone="no"?>
<!DOCTYPE svg PUBLIC "-//W3C//DTD SVG 1.1//EN" "http://www.w3.org/Graphics/SVG/1.1/DTD/svg11.dtd" >
<svg xmlns="http://www.w3.org/2000/svg" xmlns:xlink="http://www.w3.org/1999/xlink" version="1.1" viewBox="-10 0 1034 1024">
   <path fill="#ffffff"
d="M295 328q40 0 69 -28t29 -69t-28 -70t-69 -29t-70 28t-29 69q0 20 7 38t21 32t32 21t38 8zM295 197q10 0 18 5t12 15t2 20t-9 17t-17 8t-19 -2t-15 -12t-5 -19q0 -13 10 -22t23 -10zM295 459h459q62 0 115 -31t83 -83t31 -115t-30 -115t-84 -84t-115 -31h-459
q-62 0 -115 31t-84 83t-31 115t31 115t84 84t115 31zM295 66h459q42 3 76 26t55 59t20 78t-20 79t-54 59t-77 26h-459q-42 -3 -76 -26t-55 -59t-20 -78t20 -79t54 -59t77 -26zM754 721q-41 0 -69 28t-29 70t28 69t70 29t69 -28t29 -70t-28 -69t-70 -29zM754 852
q-10 0 -18 -5t-13 -14t-3 -20t9 -17t17 -9t19 1t15 12t6 19q0 13 -9 23t-23 10zM754 590h-459q-62 0 -115 31t-84 83t-31 115t31 115t84 84t115 31h459q62 0 115 -31t83 -83t31 -115t-30 -115t-84 -84t-115 -31zM754 983h-459q-45 0 -82 -22t-60 -59t-22 -83t22 -82t59 -60
t83 -22h459q45 0 82 22t60 59t22 83t-22 82t-59 60t-83 22z" />
</svg>
