<?xml version="1.0" standalone="no"?>
<!DOCTYPE svg PUBLIC "-//W3C//DTD SVG 1.1//EN" "http://www.w3.org/Graphics/SVG/1.1/DTD/svg11.dtd" >
<svg xmlns="http://www.w3.org/2000/svg" xmlns:xlink="http://www.w3.org/1999/xlink" version="1.1" viewBox="-10 0 1069 1024">
   <path fill="#ffffff"
d="M983 564l-164 -72q-10 -5 -14 -11t-5 -16v-6q40 -30 62 -82t23 -115q0 -71 -32 -132q-31 -59 -83 -94t-115 -36t-114 35t-84 96t-31 131v7q-9 -5 -16 -6q-5 -1 -17 -1q-61 0 -113 35t-84 95q-32 61 -32 132q0 63 22 116t63 87v7q0 7 -5 13q-3 4 -11 10l-4 3l-163 66
q-31 15 -48 40t-18 58v92q0 14 9 23t24 10h721q14 0 23 -9t9 -24v-92q0 -29 -18 -56t-47 -42l-98 -40h393q14 0 23 -9t10 -23v-92q0 -29 -18 -56t-48 -42zM655 66q45 0 83 26t59 70t22 100t-22 100t-59 71t-83 26q-13 0 -20 -1q-13 -1 -26 -6q-15 -55 -43 -97
q-31 -43 -74 -67v-26q0 -55 21 -99t59 -71t83 -26zM229 524q0 -55 21 -99t60 -71t83 -26t83 26t59 70t22 100t-22 100t-59 71t-83 26t-83 -26t-59 -71t-22 -100zM695 891q26 14 26 40v52h-655v-59q0 -12 6 -22q6 -13 20 -17l164 -72q22 -11 33 -22q14 -13 19 -31
q19 14 39 20t46 6q47 0 85 -19q11 20 24 34t29 18zM983 721h-439q36 -36 57 -86q22 -54 22 -111v-6q9 4 16 5q5 1 16 1q47 0 86 -19q10 20 23 34t29 18l164 72q11 6 18 15q8 11 8 24v53z" />
</svg>
