<?xml version="1.0" standalone="no"?>
<!DOCTYPE svg PUBLIC "-//W3C//DTD SVG 1.1//EN" "http://www.w3.org/Graphics/SVG/1.1/DTD/svg11.dtd" >
<svg xmlns="http://www.w3.org/2000/svg" xmlns:xlink="http://www.w3.org/1999/xlink" version="1.1" viewBox="-10 0 1059 1024">
   <path fill="#ffffff"
d="M475 885h-115v-557h590v147q0 7 5 11t11 5t12 -4t5 -12v-278q0 -27 -19 -46t-46 -20h-787q-27 0 -46 19t-19 47v655q0 27 19 46t46 20h344q7 0 12 -5t5 -11t-5 -12t-12 -5zM98 197q0 -14 9 -23t24 -10h787q13 0 22 10t10 23v98h-852v-98zM328 885h-197q-14 0 -23 -9
t-10 -24v-524h230v557zM1029 855l-50 -52l50 -52q8 -8 9 -18t-4 -21l-37 -64q-6 -9 -16 -13t-20 -2l-70 17l-20 -69q-3 -10 -11 -17t-20 -7h-74q-11 0 -19 7t-12 17l-20 69l-70 -17q-11 -3 -21 1t-16 14l-36 64q-6 9 -5 20t9 19l51 52l-51 52q-7 8 -8 19t4 20l36 64
q6 10 16 14t21 1l70 -17l20 69q3 10 11 17t20 7h74q11 0 19 -7t12 -17l20 -69l70 17q10 3 20 -1t16 -14l37 -64q5 -10 4 -20t-9 -19zM969 941l-70 -17q-13 -3 -24 3t-15 20l-20 69h-74l-20 -70q-4 -12 -15 -18t-24 -4l-70 17l-37 -64l50 -51q9 -10 9 -23t-9 -23l-50 -52
l37 -64l70 18q13 3 24 -3t15 -20l20 -69h73l20 69q4 13 15 19t24 4l70 -18l37 64l-50 52q-9 10 -9 23t9 23l50 51zM803 721q-34 0 -58 24t-24 58t24 58t58 24t58 -24t24 -58t-24 -58t-58 -24zM803 852q-20 0 -34 -14t-15 -35t14 -34t35 -15t34 14t15 35t-14 34t-35 15z" />
</svg>
