<?xml version="1.0" standalone="no"?>
<!DOCTYPE svg PUBLIC "-//W3C//DTD SVG 1.1//EN" "http://www.w3.org/Graphics/SVG/1.1/DTD/svg11.dtd" >
<svg xmlns="http://www.w3.org/2000/svg" xmlns:xlink="http://www.w3.org/1999/xlink" version="1.1" viewBox="-10 0 1034 1024">
   <path fill="#ffffff"
d="M918 131h-787q-27 0 -46 19t-19 47v655q0 27 19 46t46 20h787q27 0 46 -19t19 -47v-655q0 -27 -19 -46t-46 -20zM688 885h-557q-14 0 -23 -9t-10 -24v-524h590v557zM950 852q0 13 -9 23t-23 10h-197v-557h229v524zM950 295h-852v-98q0 -14 9 -23t24 -10h787q13 0 22 10
t10 23v98zM246 492h295q7 0 12 -5t5 -11t-5 -12t-12 -5h-295q-7 0 -11 5t-5 11t4 12t12 5zM246 623h295q7 0 12 -5t5 -11t-5 -12t-12 -5h-295q-7 0 -11 5t-5 11t4 12t12 5zM246 754h295q7 0 11 -5t5 -11t-4 -12t-12 -5h-295q-7 0 -12 5t-5 11t5 12t12 5z" />
</svg>
