<?xml version="1.0" standalone="no"?>
<!DOCTYPE svg PUBLIC "-//W3C//DTD SVG 1.1//EN" "http://www.w3.org/Graphics/SVG/1.1/DTD/svg11.dtd" >
<svg xmlns="http://www.w3.org/2000/svg" xmlns:xlink="http://www.w3.org/1999/xlink" version="1.1" viewBox="-10 0 1034 1024">
   <path fill="#ffffff"
d="M197 393q35 0 65 -17t48 -48t18 -66t-17 -66t-48 -47t-66 -18t-65 17t-48 48t-18 66t17 66t48 47t66 18zM197 164q41 0 69 28t29 69t-28 70t-70 29t-70 -29t-29 -69t29 -69t70 -29zM229 262q0 14 -9 23t-23 10t-23 -10t-10 -23t9 -23t24 -10t23 9t9 24zM868 393
q36 0 66 -17t47 -48t18 -66t-17 -66t-48 -47t-66 -18t-66 17t-47 48t-18 66t17 66t48 47t66 18zM868 164q41 0 70 28t29 70t-29 69t-70 29t-69 -28t-29 -70t29 -69t69 -29zM524 131q-35 0 -65 17t-48 48t-18 66t17 65t48 48t66 18t65 -17t48 -48t18 -65t-17 -66t-48 -48
t-66 -18zM524 360q-40 0 -69 -29t-29 -69t29 -69t69 -29t70 29t29 69t-29 69t-70 29zM385 526q-4 -2 -8 -2t-9 3l-295 180q-7 5 -7 14t7 14l295 180q5 3 10 3t10 -5t5 -12v-360q0 -10 -8 -15v0zM360 872l-247 -151l247 -151v302zM680 527q-3 -3 -7 -3t-9 2v0q-9 5 -9 15v360
q0 7 5 12t11 5t9 -3l295 -180q8 -5 8 -14t-8 -14v0zM688 872v-302l247 151z" />
</svg>
