<?xml version="1.0" standalone="no"?>
<!DOCTYPE svg PUBLIC "-//W3C//DTD SVG 1.1//EN" "http://www.w3.org/Graphics/SVG/1.1/DTD/svg11.dtd" >
<svg xmlns="http://www.w3.org/2000/svg" xmlns:xlink="http://www.w3.org/1999/xlink" version="1.1" viewBox="-10 0 1034 1024">
   <path fill="currentColor"
d="M624 360h-51q-7 0 -11 5t-5 12v295q0 7 4 11t12 5h51q45 0 82 -22t60 -59t22 -83t-22 -82t-59 -60t-83 -22zM623 655h-33v-262h34q36 0 66 18t47 48t18 65t-18 66t-48 47t-66 18zM466 507q18 -18 23 -43t-4 -50t-31 -39t-48 -15h-33q-36 0 -61 26l-12 12q-5 5 -5 11t5 12
t11 5t12 -5l12 -12q16 -16 38 -16h33q16 0 29 9t20 24t3 31t-15 27l-120 120q-13 14 -20 31t-8 37q0 7 4 11t12 5h164q7 0 12 -5t5 -11t-5 -12t-12 -5h-145q4 -16 16 -28zM524 66q-92 0 -176 35t-148 99t-100 150t-35 176t35 175t100 149t149 99t175 35t176 -35t149 -100
t99 -149t35 -176q0 -125 -63 -231q-61 -104 -165 -165q-106 -62 -231 -62zM524 950q-116 0 -215 -58q-96 -57 -153 -153q-58 -99 -58 -215t58 -215q57 -96 153 -153q99 -58 215 -58t215 58q96 57 153 153q58 99 58 215t-58 215q-57 96 -153 153q-99 58 -215 58z" />
</svg>
