<?xml version="1.0" standalone="no"?>
<!DOCTYPE svg PUBLIC "-//W3C//DTD SVG 1.1//EN" "http://www.w3.org/Graphics/SVG/1.1/DTD/svg11.dtd" >
<svg xmlns="http://www.w3.org/2000/svg" xmlns:xlink="http://www.w3.org/1999/xlink" version="1.1" viewBox="-10 0 1034 1024">
   <path fill="currentColor"
d="M852 197h-149l-154 -185q-10 -11 -25 -11t-25 11l-154 185h-148q-27 0 -46 19t-20 46v721q0 27 19 46t47 20h655q27 0 46 -19t20 -47v-721q0 -27 -19 -46t-47 -19zM197 983v-721h163q16 0 26 -12l138 -166l139 166q10 12 25 12h164v721h-655zM688 786h-328q-14 0 -23 9
t-10 24t9 23t24 10h328q14 0 23 -9t10 -24t-9 -23t-24 -10zM688 590h-328q-12 2 -19 11t-8 21t7 22t20 11h328q12 -2 19 -11t8 -21t-7 -22t-20 -11zM688 393h-328q-14 0 -23 9t-10 24t9 23t24 10h328q14 0 23 -9t10 -24t-9 -23t-24 -10z" />
</svg>
