<?xml version="1.0" standalone="no"?>
<!DOCTYPE svg PUBLIC "-//W3C//DTD SVG 1.1//EN" "http://www.w3.org/Graphics/SVG/1.1/DTD/svg11.dtd" >
<svg xmlns="http://www.w3.org/2000/svg" xmlns:xlink="http://www.w3.org/1999/xlink" version="1.1" viewBox="-10 0 1034 1024">
   <path fill="currentColor"
d="M365 512l24 -25l-223 -223l98 -98l52 52l-49 49l18 19l50 -50l38 38l-50 50l19 18l49 -49l38 38l-49 49l18 19l49 -50l40 40l25 -24l-223 -224q-10 -10 -24 -10t-25 10l-99 99q-10 10 -10 24t10 25zM684 536l-25 25l40 40l-49 49l18 19l50 -50l38 38l-50 50l19 18l49 -49
l38 38l-49 49l18 19l49 -50l53 52l-99 99l-223 -224l-25 25l224 223q10 10 24 10t25 -10l98 -98q10 -10 10 -24t-10 -25zM886 163q-24 -24 -60 -24q-39 0 -67 27l-497 498q-21 21 -34 48l-73 152q-5 12 1 21t19 10q5 0 9 -2l152 -72q27 -13 49 -34l503 -503q25 -25 25 -60
t-27 -61zM748 227l74 74l-39 38l-74 -73zM202 846l57 -119q2 -4 3 -5l65 64l-6 4zM360 762l-3 3l-1 1l-73 -73q1 -2 3 -4l405 -405l74 74zM863 259l-23 23l-74 -73l18 -18q18 -17 42 -17q20 0 35 13q17 17 17 37t-15 35z" />
</svg>
