<?xml version="1.0" standalone="no"?>
<!DOCTYPE svg PUBLIC "-//W3C//DTD SVG 1.1//EN" "http://www.w3.org/Graphics/SVG/1.1/DTD/svg11.dtd" >
<svg xmlns="http://www.w3.org/2000/svg" xmlns:xlink="http://www.w3.org/1999/xlink" version="1.1" viewBox="-10 0 1034 1024">
   <path fill="currentColor"
d="M974 264l-131 -66q-5 -3 -11 -2t-10 7l-188 251l-250 -125q-5 -2 -9 -1t-9 4l-268 254v-439q0 -7 -4 -11t-12 -5t-11 4t-5 12v754q0 7 4 12t12 5h885q7 0 11 -5t5 -12v-622q0 -10 -9 -15zM950 885h-741l173 -289l248 155q9 5 17 0l303 -181v315zM950 531l-311 187
l-254 -158q-6 -4 -12 -3t-10 8l-192 320h-73v-254l282 -267l252 126q5 3 11 2t9 -7l188 -251l110 55v242z" />
</svg>
