<?xml version="1.0" standalone="no"?>
<!DOCTYPE svg PUBLIC "-//W3C//DTD SVG 1.1//EN" "http://www.w3.org/Graphics/SVG/1.1/DTD/svg11.dtd" >
<svg xmlns="http://www.w3.org/2000/svg" xmlns:xlink="http://www.w3.org/1999/xlink" version="1.1" viewBox="-10 0 1034 1024">
   <path fill="currentColor"
d="M501 908q10 10 23 10t24 -10l360 -360q10 -10 10 -23t-10 -24t-23 -10t-24 10l-304 305v-773q-2 -12 -11 -19t-21 -8t-22 7t-11 20v773l-305 -305q-10 -8 -23 -8t-22 10t-9 22t8 23zM885 983h-721q-14 0 -23 9t-10 24t9 23t24 10h721q14 0 23 -9t10 -24t-9 -23t-24 -10z
" />
</svg>
