<?xml version="1.0" standalone="no"?>
<!DOCTYPE svg PUBLIC "-//W3C//DTD SVG 1.1//EN" "http://www.w3.org/Graphics/SVG/1.1/DTD/svg11.dtd" >
<svg xmlns="http://www.w3.org/2000/svg" xmlns:xlink="http://www.w3.org/1999/xlink" version="1.1" viewBox="-10 0 1034 1024">
   <path fill="currentColor"
d="M974 796l-164 -164q-10 -10 -23 -10t-24 10t-10 23t10 24l108 107h-412q-89 0 -165 -45q-74 -43 -118 -117q-45 -76 -45 -165v-361q-2 -12 -11 -19t-21 -8t-22 7t-11 20v361q0 107 54 198q52 89 141 141q91 54 198 54h412l-108 108q-8 10 -8 23t10 22t22 9t23 -8
l164 -164q9 -10 9 -23t-9 -23z" />
</svg>
