<?xml version="1.0" standalone="no"?>
<!DOCTYPE svg PUBLIC "-//W3C//DTD SVG 1.1//EN" "http://www.w3.org/Graphics/SVG/1.1/DTD/svg11.dtd" >
<svg xmlns="http://www.w3.org/2000/svg" xmlns:xlink="http://www.w3.org/1999/xlink" version="1.1" viewBox="-11 0 1071 1024">
   <path fill="currentColor"
d="M1016 852h-33v-229q0 -14 -9 -23t-24 -10h-196q-14 0 -23 9t-10 24v229h-66v-688q0 -13 -9 -23t-23 -10h-197q-14 0 -23 9t-10 24v688h-65v-492q0 -13 -10 -22t-23 -10h-197q-13 0 -22 9t-10 23v492h-33q-14 0 -23 9t-10 24t9 23t24 10h983q14 0 23 -9t10 -24t-9 -23
t-24 -10zM262 852h-131v-459h131v459zM590 852h-131v-655h131v655zM918 852h-132v-197h132v197z" />
</svg>
