<?xml version="1.0" standalone="no"?>
<!DOCTYPE svg PUBLIC "-//W3C//DTD SVG 1.1//EN" "http://www.w3.org/Graphics/SVG/1.1/DTD/svg11.dtd" >
<svg xmlns="http://www.w3.org/2000/svg" xmlns:xlink="http://www.w3.org/1999/xlink" version="1.1" viewBox="-10 0 1034 1024">
   <path fill="currentColor"
d="M164 262h721q12 -2 19 -11t8 -21t-7 -22t-20 -11h-721q-12 2 -19 11t-8 21t7 22t20 11zM885 393h-721q-14 0 -23 9t-10 24t9 23t24 10h721q14 0 23 -9t10 -24t-9 -23t-24 -10zM885 590h-721q-12 2 -19 11t-8 21t7 22t20 11h721q12 -2 19 -11t8 -21t-7 -22t-20 -11z
M885 786h-721q-14 0 -23 9t-10 24t9 23t24 10h721q14 0 23 -9t10 -24t-9 -23t-24 -10z" />
</svg>
