<?xml version="1.0" standalone="no"?>
<!DOCTYPE svg PUBLIC "-//W3C//DTD SVG 1.1//EN" "http://www.w3.org/Graphics/SVG/1.1/DTD/svg11.dtd" >
<svg xmlns="http://www.w3.org/2000/svg" xmlns:xlink="http://www.w3.org/1999/xlink" version="1.1" viewBox="-10 0 1034 1024">
   <path fill="currentColor"
d="M973 98q-74 -32 -154 -32q-85 0 -162 36t-133 102q-55 -65 -132 -101t-163 -37q-80 0 -154 32q-9 5 -9 15v737q0 9 7 13t15 2q67 -30 141 -30q83 1 157 38t125 104q5 7 13 7t13 -7q50 -66 124 -103t158 -39q74 0 141 30q8 4 15 -1t8 -14v-737q0 -11 -10 -15zM229 802
q-68 0 -131 24v-702q63 -26 131 -26q82 1 155 37t124 101v688q-54 -58 -127 -89t-152 -33zM950 826q-63 -24 -131 -24q-79 1 -151 32t-127 89v-687q50 -64 123 -100t155 -38q68 0 131 26v702zM610 363q5 8 14 8q5 0 9 -3q49 -31 105 -44t113 -9q7 1 12 -3t6 -12t-3 -12
t-12 -6q-63 -6 -124 9t-115 50q-6 4 -7 10t2 12zM854 434q-63 -6 -124 9t-115 49q-6 4 -7 10t2 13t10 7t13 -2q49 -31 105 -44t113 -9q7 1 12 -3t6 -12t-3 -12t-12 -6zM854 586q-63 -6 -124 9t-115 49q-5 3 -7 8t-1 10t6 9t10 3l10 -2q48 -31 104 -45t114 -9q7 1 12 -3
t5 -11t-3 -12t-11 -6z" />
</svg>
