<?xml version="1.0" standalone="no"?>
<!DOCTYPE svg PUBLIC "-//W3C//DTD SVG 1.1//EN" "http://www.w3.org/Graphics/SVG/1.1/DTD/svg11.dtd" >
<svg xmlns="http://www.w3.org/2000/svg" xmlns:xlink="http://www.w3.org/1999/xlink" version="1.1" viewBox="-10 0 1068 1024">
   <path fill="currentColor"
d="M1042 505l-233 -320q-18 -25 -46 -39t-59 -15h-638q-27 0 -46 19t-20 47v655q0 27 19 46t47 20h638q31 0 59 -14t47 -40l232 -320q6 -9 6 -19t-6 -20zM518 505l-224 -308h181l238 327l-238 328h-181l224 -308q6 -9 6 -19t-6 -20zM66 197h147l238 327l-238 328h-147v-655z
M757 825q-9 13 -23 20t-30 7h-148l224 -308q6 -9 6 -19t-6 -20l-224 -308h148q16 0 30 7t23 20l218 300z" />
</svg>
