<?xml version="1.0" standalone="no"?>
<!DOCTYPE svg PUBLIC "-//W3C//DTD SVG 1.1//EN" "http://www.w3.org/Graphics/SVG/1.1/DTD/svg11.dtd" >
<svg xmlns="http://www.w3.org/2000/svg" xmlns:xlink="http://www.w3.org/1999/xlink" version="1.1" viewBox="-10 0 1034 1024">
   <path fill="currentColor"
d="M951 524h-165v-131q26 0 50 -10t43 -28t29 -42t10 -51v-164q0 -14 -9 -23t-24 -10t-23 9t-10 24v164q0 27 -19 46t-47 20h-66q0 -54 -26 -99t-72 -71t-99 -27t-99 26t-71 72t-27 99h-64q-27 0 -46 -19t-19 -47v-164q0 -14 -9 -23t-24 -10t-23 9t-10 24v164q0 36 17 66
t48 47t66 18v131h-163q-14 0 -23 9t-10 24t9 23t24 10h163q1 37 12 73l-104 104q-18 18 -28 42t-10 50l-1 91q0 14 9 23t24 10t23 -9t10 -24v-91q0 -27 19 -46l86 -86q35 58 94 91t128 34t127 -33t95 -92l86 86q19 19 20 46v91q0 14 9 23t24 10t23 -9t10 -24l-1 -91
q0 -26 -10 -50t-29 -42l-101 -102l-2 -1q11 -36 11 -74h165q14 0 23 -9t10 -24t-9 -23t-24 -10zM523 197q36 0 66 17t47 48t18 66h-262q0 -36 17 -66t48 -47t66 -18zM524 786q-53 0 -98 -26t-71 -72t-27 -98v-197h393v197q0 53 -26 98t-72 71t-99 27zM524 492q-13 0 -22 9
t-10 23v131q2 12 11 19t21 8t22 -7t11 -20v-131q0 -13 -10 -22t-23 -10z" />
</svg>
