<?xml version="1.0" standalone="no"?>
<!DOCTYPE svg PUBLIC "-//W3C//DTD SVG 1.1//EN" "http://www.w3.org/Graphics/SVG/1.1/DTD/svg11.dtd" >
<svg xmlns="http://www.w3.org/2000/svg" xmlns:xlink="http://www.w3.org/1999/xlink" version="1.1" viewBox="-10 0 1036 1024">
   <path fill="currentColor"
d="M786 557q-62 0 -115 31t-84 83t-31 115t31 115t84 84t115 31t115 -31t83 -83t31 -115t-30 -116t-84 -83t-115 -31zM786 950q-42 -3 -76 -26t-55 -59t-20 -78t20 -79t54 -59t77 -26q44 0 81 22t60 59t23 82t-22 82t-59 60t-83 22zM819 773v-52q0 -14 -9 -23t-23 -10t-24 9
t-10 24v65q0 13 10 23l65 66q10 10 23 10t23 -10t10 -23t-10 -23zM617 505q11 -11 27 -15t34 -2q68 13 131 -13t101 -85q34 -49 38 -111t-21 -116q-7 -15 -24 -18t-29 9l-104 104q-11 13 -23 0l-23 -23q-4 -4 -4 -11t4 -12l104 -104q12 -12 10 -29q-1 -7 -6 -14t-13 -11
q-55 -26 -115 -22t-111 38q-58 40 -84 102t-14 130q6 39 -16 63l-415 412q-15 14 -23 33t-8 39q0 41 31 72l23 -23l-23 24q14 14 32 21t38 8q44 0 72 -30zM504 623l52 -52zM99 849q0 -13 10 -25l417 -412q23 -23 32 -54t2 -66q-9 -49 10 -93t60 -73q25 -16 54 -23t59 -3
l-65 66q-24 24 -24 58t24 58l23 23q23 23 58 23t58 -23l65 -66q4 30 -3 60t-23 54q-28 42 -73 61t-93 9q-9 -2 -27 -2q-27 0 -51 9t-42 27l-411 416q-10 10 -24 10t-26 -9t-10 -25z" />
</svg>
