<?xml version="1.0" standalone="no"?>
<!DOCTYPE svg PUBLIC "-//W3C//DTD SVG 1.1//EN" "http://www.w3.org/Graphics/SVG/1.1/DTD/svg11.dtd" >
<svg xmlns="http://www.w3.org/2000/svg" xmlns:xlink="http://www.w3.org/1999/xlink" version="1.1" viewBox="-10 0 1034 1024">
   <path fill="currentColor"
d="M786 328h-524q-51 4 -93 31t-66 71t-24 94t24 95t66 71t93 31h524q51 -4 93 -31t66 -71t24 -94t-24 -95t-66 -71t-93 -31zM786 688h-524q-45 0 -82 -22t-60 -59t-22 -83t22 -82t59 -60t83 -22h524q45 0 82 22t60 59t22 83t-22 82t-59 60t-83 22z" />
</svg>
