<?xml version="1.0" standalone="no"?>
<!DOCTYPE svg PUBLIC "-//W3C//DTD SVG 1.1//EN" "http://www.w3.org/Graphics/SVG/1.1/DTD/svg11.dtd" >
<svg xmlns="http://www.w3.org/2000/svg" xmlns:xlink="http://www.w3.org/1999/xlink" version="1.1" viewBox="-10 0 1034 1024">
   <path fill="currentColor"
d="M272 524q9 0 13 -7t1 -16q-24 -50 -24 -105q0 -74 43 -134q13 38 37 69t59 53q6 3 12 2t11 -7q56 -93 55 -202q0 -34 -7 -67q73 42 115 115t44 158q0 5 2 9t8 6t10 1t8 -5q56 -61 80 -140q47 82 47 177q0 37 -7 74q-1 7 2 12t11 7t12 -2t7 -11q8 -40 8 -80
q0 -61 -18 -119t-55 -108q-6 -9 -16 -7t-13 13q-14 72 -57 132q-9 -92 -64 -166t-141 -110q-10 -5 -18 2t-4 18q12 45 13 91q1 90 -42 170q-29 -23 -48 -54t-27 -69q-2 -9 -11 -12t-16 4q-35 36 -54 83t-19 97q0 63 28 119q5 9 15 9zM876 349q-6 -3 -12 -1t-10 8t-1 12t8 10
q51 26 74 77t11 107t-58 91t-102 35h-524q-57 0 -101 -35t-58 -91t10 -106t75 -78q6 -3 8 -9t-1 -13t-9 -8t-13 1q-60 31 -88 93t-13 128t69 108t121 43h524q68 0 121 -42t70 -108t-12 -129t-89 -93z" />
</svg>
