<?xml version="1.0" standalone="no"?>
<!DOCTYPE svg PUBLIC "-//W3C//DTD SVG 1.1//EN" "http://www.w3.org/Graphics/SVG/1.1/DTD/svg11.dtd" >
<svg xmlns="http://www.w3.org/2000/svg" xmlns:xlink="http://www.w3.org/1999/xlink" version="1.1" viewBox="-10 0 1055 1024">
   <path fill="currentColor"
d="M852 590h-655q-51 4 -93 31t-66 71t-24 94t24 95t66 71t93 31h655q51 -4 93 -31t66 -71t24 -94t-24 -95t-66 -71t-93 -31zM852 918h-655q-36 0 -66 -17t-48 -48t-18 -66t18 -66t48 -48t66 -18h655q36 0 66 17t47 48t18 66t-17 66t-48 48t-66 18zM273 520q12 -7 15 -20
t-3 -25q-24 -42 -23 -90t28 -90q34 64 97 98q11 6 23 3t20 -13q30 -43 46 -93t16 -104q0 -16 -2 -32q59 36 94 95t38 129q1 9 6 17t14 11t18 2t17 -8q50 -46 78 -108q31 61 31 129q0 32 -7 63q-3 13 4 24t20 15q3 1 7 1q11 0 20 -7t12 -18q19 -79 0 -158t-72 -142
q-6 -7 -15 -10t-18 -1t-15 9t-9 16q-11 47 -37 87q-22 -83 -81 -145t-140 -88q-9 -3 -18 -1t-15 8t-9 16t0 18q12 38 13 78q0 71 -34 133q-46 -36 -59 -93q-2 -8 -8 -14t-14 -10q-17 -5 -31 6q-43 37 -64 88t-19 107t31 105q7 12 20 15t25 -3z" />
</svg>
