<?xml version="1.0" standalone="no"?>
<!DOCTYPE svg PUBLIC "-//W3C//DTD SVG 1.1//EN" "http://www.w3.org/Graphics/SVG/1.1/DTD/svg11.dtd" >
<svg xmlns="http://www.w3.org/2000/svg" xmlns:xlink="http://www.w3.org/1999/xlink" version="1.1" viewBox="-10 0 1034 1024">
   <path fill="currentColor"
d="M754 66h-459q-40 0 -69 28t-29 70v721q0 40 29 69t69 29h459q41 0 69 -29t29 -69v-721q0 -41 -28 -69t-70 -29zM295 98h459q27 0 46 19t19 47v164h-590v-164q0 -27 19 -46t47 -20zM754 950h-459q-27 0 -46 -19t-20 -46v-525h590v525q0 27 -19 46t-46 19zM393 492
q0 14 -9 23t-24 9t-23 -9t-9 -23t9 -23t23 -10t23 9t10 24zM557 492q0 13 -9 22t-23 10t-23 -9t-10 -23t9 -23t23 -10t23 9t10 24zM721 492q0 13 -9 22t-24 10t-23 -9t-10 -23t10 -23t23 -10t23 9t10 24zM393 655q0 14 -9 23t-24 10t-23 -9t-9 -24t9 -23t23 -9t23 9t10 23z
M557 655q0 13 -9 23t-23 10t-23 -9t-10 -24t9 -23t23 -9t23 9t10 23zM721 655q0 13 -9 23t-23 10t-24 -10t-10 -23t9 -22t24 -10t23 9t10 23zM393 819q0 14 -9 23t-24 10t-23 -9t-9 -24t9 -23t23 -10t23 9t10 24zM557 819q0 13 -9 23t-23 10t-23 -9t-10 -24t9 -23t23 -10
t23 9t10 24zM721 819q0 13 -9 23t-23 10t-24 -10t-10 -23t10 -23t23 -10t23 9t10 24z" />
</svg>
