<?xml version="1.0" standalone="no"?>
<!DOCTYPE svg PUBLIC "-//W3C//DTD SVG 1.1//EN" "http://www.w3.org/Graphics/SVG/1.1/DTD/svg11.dtd" >
<svg xmlns="http://www.w3.org/2000/svg" xmlns:xlink="http://www.w3.org/1999/xlink" version="1.1" viewBox="-10 0 1034 1024">
   <path fill="currentColor"
d="M852 131h-66v-33q0 -14 -9 -23t-23 -9t-23 9t-10 23v33h-393v-33q0 -14 -9 -23t-24 -9t-24 9t-9 23v33h-65q-35 0 -65 17t-48 48t-18 66v590q0 35 17 65t48 48t66 18h655q35 0 65 -17t48 -48t18 -66v-590q0 -35 -17 -65t-48 -48t-66 -18zM197 197h65v32q0 15 9 24t24 9
t24 -9t9 -24v-32h393v32q0 15 9 24t24 9t23 -9t9 -24v-32h66q29 0 47 18t19 47v66h-787v-66q0 -29 18 -47t48 -18zM852 918h-655q-30 0 -48 -18t-18 -48v-459h787v459q0 29 -18 47t-48 19zM524 786q-14 0 -23 -9t-9 -23t9 -23t23 -10t23 9t10 24t-9 23t-24 9zM524 590
q-14 0 -23 -9t-9 -24t9 -24t23 -9t23 9t10 24t-9 24t-24 9zM754 786q-15 0 -24 -9t-9 -23t9 -23t24 -10t23 9t9 24t-9 23t-23 9zM754 590q-15 0 -24 -9t-9 -24t9 -24t24 -9t23 9t9 24t-9 24t-23 9zM295 786q-15 0 -24 -9t-9 -23t9 -23t24 -10t24 9t9 24t-9 23t-24 9z
M295 590q-15 0 -24 -9t-9 -24t9 -24t24 -9t24 9t9 24t-9 24t-24 9z" />
</svg>
