<?xml version="1.0" standalone="no"?>
<!DOCTYPE svg PUBLIC "-//W3C//DTD SVG 1.1//EN" "http://www.w3.org/Graphics/SVG/1.1/DTD/svg11.dtd" >
<svg xmlns="http://www.w3.org/2000/svg" xmlns:xlink="http://www.w3.org/1999/xlink" version="1.1" viewBox="-10 0 1069 1024">
   <path fill="currentColor"
d="M885 721h-99v-98q-2 -12 -11 -19t-21 -8t-22 7t-11 20v131q0 13 10 22t23 10h131q12 -2 19 -11t8 -21t-7 -22t-20 -11zM360 852h-229q-27 0 -46 -19t-19 -47v-458h720v32q0 14 9 23t24 10t23 -9t10 -24v-163q0 -36 -17 -66t-48 -47t-66 -18h-66v-33q-2 -12 -11 -19
t-21 -8t-22 7t-11 20v33h-328v-33q-2 -12 -11 -19t-21 -8t-22 7t-11 20v33h-66q-36 0 -66 17t-47 48t-18 66v589q0 26 10 50t28 43t42 29t51 10h229q14 0 23 -9t10 -24t-9 -23t-24 -10zM131 131h66v33q2 12 11 19t21 8t22 -7t11 -20v-33h328v33q2 12 11 19t21 8t22 -7
t11 -20v-33h66q27 0 46 19t19 47v65h-720v-65q0 -27 19 -46t46 -20zM754 459q-80 0 -149 40q-67 39 -106 106q-40 69 -40 149t40 149q39 67 106 106q69 40 149 40t149 -40q67 -39 106 -106q40 -69 40 -149t-40 -149q-39 -67 -106 -106q-69 -40 -149 -40zM754 983
q-62 0 -114 -31t-84 -83t-31 -115t31 -114t83 -84t115 -31t114 31t84 83t31 115t-31 114t-83 84t-115 31z" />
</svg>
