<?xml version="1.0" standalone="no"?>
<!DOCTYPE svg PUBLIC "-//W3C//DTD SVG 1.1//EN" "http://www.w3.org/Graphics/SVG/1.1/DTD/svg11.dtd" >
<svg xmlns="http://www.w3.org/2000/svg" xmlns:xlink="http://www.w3.org/1999/xlink" version="1.1" viewBox="-10 0 1034 1024">
   <path fill="currentColor"
d="M726 365l-284 284l-119 -120q-5 -5 -11 -5t-12 5t-5 11t5 12l131 131q5 5 11 5t12 -5l295 -295q5 -5 5 -11t-5 -12t-11 -5t-12 5zM819 98h-590q-36 0 -66 17t-47 48t-18 66v590q0 36 17 66t48 47t66 18h590q36 0 66 -17t47 -48t18 -66v-590q0 -36 -17 -66t-48 -47
t-66 -18zM918 819q0 20 -7 38t-22 32t-32 21t-38 8h-590q-20 0 -38 -7t-31 -22t-21 -32t-8 -38v-590q0 -41 28 -69t70 -29h590q20 0 38 7t32 21t21 32t8 38v590z" />
</svg>
