<?xml version="1.0" standalone="no"?>
<!DOCTYPE svg PUBLIC "-//W3C//DTD SVG 1.1//EN" "http://www.w3.org/Graphics/SVG/1.1/DTD/svg11.dtd" >
<svg xmlns="http://www.w3.org/2000/svg" xmlns:xlink="http://www.w3.org/1999/xlink" version="1.1" viewBox="-10 0 1069 1024">
   <path fill="currentColor"
d="M524 1049q-107 0 -204 -42q-94 -39 -166 -112t-112 -167q-41 -97 -41 -203t41 -204q40 -94 112 -166t167 -113q97 -41 203 -41t204 41q94 40 167 112t112 166q42 97 42 204t-41 204q-40 95 -112 167t-168 113q-97 41 -204 41zM524 66q-92 0 -176 35t-148 99t-100 150
t-35 176t35 175t100 149t149 99t175 35t176 -35t149 -100t99 -149t35 -176q0 -125 -63 -231q-61 -104 -165 -165q-106 -62 -231 -62zM426 721q-14 0 -23 -10l-131 -131q-7 -10 -6 -22t9 -20t21 -10t22 6l108 108l304 -305q10 -10 23 -10t24 10t10 23t-10 24l-328 327
q-9 10 -23 10z" />
</svg>
