<?xml version="1.0" standalone="no"?>
<!DOCTYPE svg PUBLIC "-//W3C//DTD SVG 1.1//EN" "http://www.w3.org/Graphics/SVG/1.1/DTD/svg11.dtd" >
<svg xmlns="http://www.w3.org/2000/svg" xmlns:xlink="http://www.w3.org/1999/xlink" version="1.1" viewBox="-10 0 1069 1024">
   <path fill="currentColor"
d="M524 0q-107 0 -204 42q-94 39 -166 112t-112 167q-41 97 -41 203t41 204q40 94 112 166t167 113q98 41 204 41t204 -41q94 -40 166 -112t113 -167q41 -97 41 -204t-42 -204q-39 -94 -112 -166t-167 -113q-97 -41 -204 -41zM524 983q-125 0 -232 -63q-104 -60 -164 -164
q-63 -107 -63 -232t63 -232q60 -104 164 -164q107 -63 232 -63t232 63q104 60 164 164q63 107 63 232t-63 232q-60 104 -164 164q-107 63 -232 63zM557 511v-282q-2 -12 -11 -19t-21 -8t-22 7t-11 20v295q-1 14 9 24l209 208q6 8 15 11t18 2t17 -9t9 -16t-1 -19t-12 -15z
" />
</svg>
