<?xml version="1.0" standalone="no"?>
<!DOCTYPE svg PUBLIC "-//W3C//DTD SVG 1.1//EN" "http://www.w3.org/Graphics/SVG/1.1/DTD/svg11.dtd" >
<svg xmlns="http://www.w3.org/2000/svg" xmlns:xlink="http://www.w3.org/1999/xlink" version="1.1" viewBox="-10 0 1034 1024">
   <path fill="currentColor"
d="M524 49q-129 0 -240 65q-107 63 -170 170q-65 111 -65 240t65 240q63 107 170 170q111 65 240 65t240 -65q107 -63 170 -170q65 -111 65 -240t-65 -240q-63 -107 -170 -170q-111 -65 -240 -65zM524 967q-120 0 -223 -61q-100 -58 -158 -158q-60 -103 -60 -223t60 -223
q59 -100 159 -159q103 -60 223 -60t223 60q100 58 158 158q61 103 61 223t-60 224q-59 100 -159 159q-104 60 -224 60zM581 557q11 -19 8 -41t-19 -38l91 -158q4 -6 2 -12t-7 -10t-12 -3t-11 8l-91 158q-9 -2 -18 -2q-25 3 -41 22t-17 43t16 44t42 22q18 0 33 -9l169 168
q5 5 11 5t12 -5t5 -11t-5 -12zM524 557q-14 0 -23 -9t-10 -24t9 -23t24 -10t23 9t10 24t-9 23t-24 10zM180 492q-7 0 -11 4t-5 12v33q0 7 5 11t11 5t12 -4t5 -12v-33q0 -7 -5 -11t-12 -5zM868 492q-7 0 -11 4t-5 12v33q0 7 5 11t11 5t12 -4t5 -12v-33q0 -7 -5 -11t-12 -5z
M508 197h33q7 0 12 -5t5 -11t-5 -12t-12 -5h-33q-7 0 -11 5t-5 11t4 12t12 5zM541 852h-33q-7 0 -11 5t-5 11t4 12t12 5h33q7 0 12 -5t5 -11t-5 -12t-12 -5z" />
</svg>
