<?xml version="1.0" standalone="no"?>
<!DOCTYPE svg PUBLIC "-//W3C//DTD SVG 1.1//EN" "http://www.w3.org/Graphics/SVG/1.1/DTD/svg11.dtd" >
<svg xmlns="http://www.w3.org/2000/svg" xmlns:xlink="http://www.w3.org/1999/xlink" version="1.1" viewBox="-10 0 1037 1024">
   <path fill="currentColor"
d="M819 361v-1q0 -44 -22 -81t-59 -60t-83 -22v0q-42 0 -76 19l1 -1q-21 -66 -77 -107t-126 -42q-58 0 -107 28t-77 78t-29 107v0q0 29 8 59v-2q-62 20 -100 71t-39 117q0 50 23 93t65 71t90 32h2q6 0 10 -4t6 -11v-1q0 -7 -4 -11t-10 -6v0q-41 -3 -75 -26t-55 -59t-20 -78
q0 -59 37 -103t93 -57h1q13 -3 13 -16q0 -4 -1 -6v0q-11 -30 -11 -64q0 -49 24 -90t65 -66t91 -24q43 0 80 19t63 52t34 74v1q1 5 5 9t11 4t9 -3v0q37 -25 77 -25q35 0 65 17t47 48t18 66v0v0q0 10 -2 19v-1v3q0 7 6 12v0q5 4 11 4h3q13 -4 32 -4q40 0 74 20t53 54t20 74
t-19 74t-54 53t-74 20h-33q-7 0 -12 5t-5 12t5 11t12 5h33q49 0 90 -24t66 -66t24 -90t-24 -90t-65 -66t-91 -25l-18 1h1zM576 586q-13 -14 -31 -21t-38 -8h-147q-27 0 -46 19t-19 47v146q0 20 7 38t22 31l182 183q13 13 30 20t37 8t37 -7t31 -21l117 -118q28 -26 28 -67
q0 -20 -7 -37t-21 -31zM735 880l-117 117q-20 18 -44 18t-45 -18l-182 -182q-19 -19 -19 -46v-146q0 -14 9 -23t23 -10h147q27 0 46 19l182 182q19 19 19 45t-19 44zM459 688q0 13 -9 23t-23 10t-24 -10t-10 -23t10 -23t23 -10t23 9t10 24z" />
</svg>
