<?xml version="1.0" standalone="no"?>
<!DOCTYPE svg PUBLIC "-//W3C//DTD SVG 1.1//EN" "http://www.w3.org/Graphics/SVG/1.1/DTD/svg11.dtd" >
<svg xmlns="http://www.w3.org/2000/svg" xmlns:xlink="http://www.w3.org/1999/xlink" version="1.1" viewBox="-10 0 1069 1024">
   <path fill="currentColor"
d="M426 852q-5 0 -10 -2q-13 -4 -19 -16t-2 -25l197 -590q5 -11 16 -16t24 -1t18 15t4 23l-197 590q-3 10 -12 16t-19 6zM229 754q-14 0 -23 -10l-196 -196q-10 -10 -10 -23t10 -24l196 -197q10 -10 23 -10t24 10t10 23t-10 24l-174 173l174 174q7 7 9 17t-2 19t-12 14
t-19 6zM819 754q-10 0 -18 -5t-12 -15t-2 -19t9 -17l174 -174l-174 -173q-8 -10 -8 -22t9 -22t22 -10t23 7l197 197q10 10 10 23t-10 24l-197 196q-9 10 -23 10z" />
</svg>
