<?xml version="1.0" standalone="no"?>
<!DOCTYPE svg PUBLIC "-//W3C//DTD SVG 1.1//EN" "http://www.w3.org/Graphics/SVG/1.1/DTD/svg11.dtd" >
<svg xmlns="http://www.w3.org/2000/svg" xmlns:xlink="http://www.w3.org/1999/xlink" version="1.1" viewBox="-10 0 1034 1024">
   <path fill="currentColor"
d="M995 644q-5 -5 -12 -5t-12 5l-283 283l-119 -119q-5 -5 -12 -5t-11 4t-5 12t4 12l132 131q5 5 11 5t12 -5l295 -295q5 -5 5 -11t-5 -12zM426 66h-328q-13 0 -22 9t-10 23v820q0 13 9 22t23 10h328q13 0 23 -9t10 -23v-820q0 -13 -10 -22t-23 -10zM98 360h328v263h-328
v-263zM426 98v230h-328v-230h328zM426 934v-16h-328v-263h328v263v16z" />
</svg>
