<?xml version="1.0" standalone="no"?>
<!DOCTYPE svg PUBLIC "-//W3C//DTD SVG 1.1//EN" "http://www.w3.org/Graphics/SVG/1.1/DTD/svg11.dtd" >
<svg xmlns="http://www.w3.org/2000/svg" xmlns:xlink="http://www.w3.org/1999/xlink" version="1.1" viewBox="-10 0 1034 1024">
   <path fill="currentColor"
d="M524 459q-27 0 -46 19t-20 47t19 46t47 20t46 -19t20 -47t-19 -46t-47 -20zM524 558q-14 0 -23 -9t-10 -24t9 -23t24 -10t23 9t10 24t-9 23t-24 10zM328 459q-20 0 -37 11t-25 29t-4 38t18 34t33 19t39 -4t30 -24t11 -37q0 -27 -19 -46t-46 -20zM328 558q-10 0 -18 -5
t-13 -14t-3 -20t9 -17t17 -9t19 1t15 12t6 19q0 13 -9 23t-23 10zM721 459q-20 0 -37 11t-25 29t-4 38t18 34t33 19t39 -4t30 -24t11 -37q0 -27 -19 -46t-46 -20zM721 558q-14 0 -23 -9t-10 -24t9 -23t24 -10t23 9t10 24t-9 23t-24 10zM524 131q-124 0 -231 54
q-104 52 -164 141q-63 92 -63 198q1 73 29 140t82 117q-33 83 -105 136q-5 3 -7 8t-1 10t6 8t10 4q23 3 47 3q56 0 108 -17t97 -52q92 37 192 37q124 0 231 -54q104 -52 165 -141q63 -92 63 -199t-63 -198q-61 -89 -165 -141q-107 -54 -231 -54zM524 885q-98 0 -188 -38
q-9 -4 -17 3q-41 34 -92 51t-104 17q61 -57 89 -136q3 -10 -5 -17q-51 -46 -79 -109t-30 -132q0 -97 58 -181q57 -82 153 -130q99 -49 215 -49t215 49q96 48 153 130q58 84 58 181t-58 182q-57 81 -153 129q-100 50 -215 50z" />
</svg>
