<?xml version="1.0" standalone="no"?>
<!DOCTYPE svg PUBLIC "-//W3C//DTD SVG 1.1//EN" "http://www.w3.org/Graphics/SVG/1.1/DTD/svg11.dtd" >
<svg xmlns="http://www.w3.org/2000/svg" xmlns:xlink="http://www.w3.org/1999/xlink" version="1.1" viewBox="-10 0 1069 1024">
   <path fill="currentColor"
d="M524 66q-142 0 -264 54q-119 52 -188 141q-72 91 -72 198q5 98 57 179t136 126l2 1q-35 95 -115 154l-1 1q-6 5 -10 12t-4 14q0 13 8 22t21 11v0q32 4 54 4h1q87 0 165 -36q76 -36 131 -99v-1q119 14 231 -11q108 -25 192 -80t132 -131q49 -79 49 -166q0 -107 -72 -198
q-70 -89 -188 -141q-123 -54 -265 -54zM436 780h-5q-16 0 -25 12v0q-41 52 -99 84q-59 33 -126 40h-1q59 -67 85 -156v-3q1 -2 1 -8q0 -19 -17 -29v0q-78 -35 -127 -104t-56 -156v-1q0 -89 63 -165q60 -75 164 -118q107 -45 231 -45t231 45q104 43 165 118q63 76 63 165
q0 74 -45 141q-43 64 -120 110t-174 65q-102 20 -208 5zM393 459q0 27 -19 46t-46 19t-46 -19t-20 -46t19 -46t47 -20t46 19t19 47zM590 459q0 27 -19 46t-47 19t-46 -19t-19 -46t19 -46t46 -20t46 19t20 47zM786 459q0 27 -19 46t-46 19t-46 -19t-20 -46t19 -46t47 -20
t46 19t19 47z" />
</svg>
