<?xml version="1.0" standalone="no"?>
<!DOCTYPE svg PUBLIC "-//W3C//DTD SVG 1.1//EN" "http://www.w3.org/Graphics/SVG/1.1/DTD/svg11.dtd" >
<svg xmlns="http://www.w3.org/2000/svg" xmlns:xlink="http://www.w3.org/1999/xlink" version="1.1" viewBox="-10 0 1069 1024">
   <path fill="currentColor"
d="M148 983q-27 0 -54 -4q-10 -1 -17 -8t-10 -16t0 -19t12 -16q40 -29 69 -68t47 -87q-86 -45 -138 -127t-57 -179q0 -107 72 -198q69 -89 188 -141q122 -54 264 -54t265 54q118 52 188 141q72 91 72 198q0 87 -49 166q-47 76 -131 131t-193 80q-112 25 -231 11
q-56 65 -133 100t-164 36zM524 131q-124 0 -231 45q-104 43 -164 118q-63 76 -63 165q6 86 55 156t128 105q10 5 15 16t2 22q-25 89 -86 158q67 -6 126 -38t100 -86q5 -7 13 -10t17 -2q106 15 208 -5q97 -18 174 -64t120 -111q45 -67 45 -141q0 -89 -63 -165
q-61 -75 -165 -118q-107 -45 -231 -45z" />
</svg>
