<?xml version="1.0" standalone="no"?>
<!DOCTYPE svg PUBLIC "-//W3C//DTD SVG 1.1//EN" "http://www.w3.org/Graphics/SVG/1.1/DTD/svg11.dtd" >
<svg xmlns="http://www.w3.org/2000/svg" xmlns:xlink="http://www.w3.org/1999/xlink" version="1.1" viewBox="-10 0 1069 1024">
   <path fill="currentColor"
d="M721 459h-131v-131q0 -14 -9 -23t-24 -10t-23 9t-10 24v131h-131q-12 2 -19 11t-8 21t7 22t20 11h131v131q0 14 9 23t24 10t23 -9t10 -24v-131h131q12 -2 19 -11t8 -21t-7 -22t-20 -11zM557 66q-133 0 -248 58q-111 57 -176 153q-67 99 -67 215q0 62 20 120t57 109
q-39 117 -131 199q-7 6 -9 15t-1 18t10 16t16 8q32 6 64 6q74 0 143 -26t125 -75q95 36 197 36q133 0 248 -58q111 -57 177 -154q67 -99 67 -214t-67 -214q-66 -97 -177 -154q-115 -58 -248 -58zM557 852q-99 0 -190 -38q-9 -4 -18 -2t-17 8q-46 44 -104 69t-121 29
q72 -86 104 -193q5 -16 -5 -30q-36 -43 -55 -95t-20 -108q0 -98 58 -182q57 -82 153 -130q99 -49 215 -49t215 49q96 48 153 130q58 84 58 182t-58 182q-57 81 -153 129q-99 49 -215 49z" />
</svg>
