<?xml version="1.0" standalone="no"?>
<!DOCTYPE svg PUBLIC "-//W3C//DTD SVG 1.1//EN" "http://www.w3.org/Graphics/SVG/1.1/DTD/svg11.dtd" >
<svg xmlns="http://www.w3.org/2000/svg" xmlns:xlink="http://www.w3.org/1999/xlink" version="1.1" viewBox="-10 0 1034 1024">
   <path fill="currentColor"
d="M524 131q-124 0 -231 54q-104 52 -164 141q-63 92 -63 198q1 73 29 140t82 117q-33 83 -105 136q-5 3 -7 8t-1 10t6 8t10 4q23 3 47 3q56 0 108 -17t97 -52q92 37 192 37q124 0 231 -54q104 -52 165 -141q63 -92 63 -199t-63 -198q-61 -89 -165 -141q-107 -54 -231 -54z
M524 885q-98 0 -188 -38q-9 -4 -17 3q-41 33 -90 50t-102 18h-4q61 -57 89 -136q3 -10 -5 -17q-51 -46 -79 -109t-30 -132q0 -97 58 -181q57 -82 153 -130q99 -49 215 -49t215 49q96 48 153 130q58 84 58 181t-58 182q-57 81 -153 129q-100 50 -215 50zM658 328v0
q-26 0 -44 18l-235 235q-16 16 -24 38l-27 80q-3 8 2 15t14 7q3 0 5 -1l80 -27q22 -7 39 -23l235 -235q13 -14 16 -32t-3 -36t-23 -28t-35 -11zM444 646q-11 11 -25 16l-49 17l16 -49q5 -15 16 -26l188 -188l42 43zM679 412l-24 24l-42 -43l24 -24q9 -9 21 -9v0q9 0 17 5
t11 13t2 18t-9 16z" />
</svg>
