<?xml version="1.0" standalone="no"?>
<!DOCTYPE svg PUBLIC "-//W3C//DTD SVG 1.1//EN" "http://www.w3.org/Graphics/SVG/1.1/DTD/svg11.dtd" >
<svg xmlns="http://www.w3.org/2000/svg" xmlns:xlink="http://www.w3.org/1999/xlink" version="1.1" viewBox="-10 0 1034 1024">
   <path fill="currentColor"
d="M569 332q-5 -5 -12 -5t-12 5t-5 12t5 12l153 152h-387q-7 0 -11 5t-5 11t4 12t12 5h387l-153 152q-5 5 -5 12t5 11t12 5t12 -5l180 -180q5 -5 5 -11t-5 -12zM524 131q-124 0 -231 54q-104 52 -164 141q-63 92 -63 198q1 73 29 140t82 117q-33 83 -105 136q-5 3 -7 8
t-1 10t6 8t10 4q23 3 47 3q56 0 108 -17t97 -52q92 37 192 37q124 0 231 -54q104 -52 165 -141q63 -92 63 -199t-63 -198q-61 -89 -165 -141q-107 -54 -231 -54zM524 885q-98 0 -188 -38q-9 -4 -17 3q-41 34 -91 51t-105 17q61 -57 89 -136q3 -10 -5 -17q-51 -46 -79 -109
t-30 -132q0 -97 58 -181q57 -82 153 -130q99 -49 215 -49t215 49q96 48 153 130q58 84 58 181t-58 182q-57 81 -153 129q-100 50 -215 50z" />
</svg>
