<?xml version="1.0" standalone="no"?>
<!DOCTYPE svg PUBLIC "-//W3C//DTD SVG 1.1//EN" "http://www.w3.org/Graphics/SVG/1.1/DTD/svg11.dtd" >
<svg xmlns="http://www.w3.org/2000/svg" xmlns:xlink="http://www.w3.org/1999/xlink" version="1.1" viewBox="-10 0 1034 1024">
   <path fill="currentColor"
d="M426 590h-262q-12 2 -19 11t-8 21t7 22t20 11h183l-272 272q-10 10 -10 23t10 24t23 10t24 -10l271 -272v183q0 14 9 23t24 10t23 -9t10 -24v-262q0 -14 -9 -23t-24 -10zM974 75q-10 -10 -23 -10t-24 10l-272 272v-183q-2 -12 -11 -19t-21 -8t-22 7t-11 20v262q0 14 9 23
t24 10h262q14 0 23 -9t10 -24t-9 -23t-24 -10h-183l272 -271q10 -10 10 -23t-10 -24z" />
</svg>
