<?xml version="1.0" standalone="no"?>
<!DOCTYPE svg PUBLIC "-//W3C//DTD SVG 1.1//EN" "http://www.w3.org/Graphics/SVG/1.1/DTD/svg11.dtd" >
<svg xmlns="http://www.w3.org/2000/svg" xmlns:xlink="http://www.w3.org/1999/xlink" version="1.1" viewBox="-10 0 1069 1024">
   <path fill="currentColor"
d="M776 731q7 10 6 22t-9 20t-21 10t-22 -6l-206 -206l-206 206q-10 10 -23 10t-24 -10t-10 -23t10 -24l206 -206l-206 -206q-8 -10 -8 -23t10 -22t22 -9t23 8l206 206l206 -206q10 -7 22 -6t20 9t10 21t-6 22l-206 206zM1049 524q0 106 -41 204q-40 94 -113 167t-167 113
q-98 41 -204 41t-204 -41q-94 -40 -166 -113t-113 -167q-41 -98 -41 -204t41 -204q40 -94 112 -166t167 -113q98 -41 204 -41t204 41q94 40 167 112t113 167q41 98 41 204zM983 524q0 -124 -63 -231q-61 -104 -165 -164q-107 -63 -231 -63t-231 63q-104 60 -164 164
q-63 107 -63 231t63 231q60 104 164 165q107 63 231 63t231 -63q104 -61 165 -165q63 -107 63 -231z" />
</svg>
