<?xml version="1.0" standalone="no"?>
<!DOCTYPE svg PUBLIC "-//W3C//DTD SVG 1.1//EN" "http://www.w3.org/Graphics/SVG/1.1/DTD/svg11.dtd" >
<svg xmlns="http://www.w3.org/2000/svg" xmlns:xlink="http://www.w3.org/1999/xlink" version="1.1" viewBox="-10 0 1069 1024">
   <path fill="currentColor"
d="M983 131h-917q-27 0 -46 19t-20 47v655q0 27 19 46t47 20h360q14 0 23 -9t10 -24t-9 -23t-24 -10h-360v-524h917v98q0 14 9 23t24 10t23 -9t10 -24v-229q0 -27 -19 -46t-47 -20zM983 262h-917v-65h917v65zM974 711l-109 108l109 108q10 10 10 23t-10 24t-23 10t-24 -10
l-108 -109l-108 109q-10 8 -23 8t-22 -10t-9 -22t8 -23l108 -108l-108 -108q-7 -10 -6 -22t9 -20t21 -10t22 6l108 108l108 -108q10 -9 23 -9t22 9t10 23t-9 23h1z" />
</svg>
