<?xml version="1.0" standalone="no"?>
<!DOCTYPE svg PUBLIC "-//W3C//DTD SVG 1.1//EN" "http://www.w3.org/Graphics/SVG/1.1/DTD/svg11.dtd" >
<svg xmlns="http://www.w3.org/2000/svg" xmlns:xlink="http://www.w3.org/1999/xlink" version="1.1" viewBox="-10 0 1034 1024">
   <path fill="currentColor"
d="M852 66h-655q-36 0 -66 17t-47 48t-18 66v655q0 35 17 65t48 48t66 18h655q35 0 65 -17t48 -48t18 -66v-655q0 -36 -17 -66t-48 -47t-66 -18zM918 852q0 27 -19 46t-47 20h-655q-28 0 -47 -19t-19 -47v-655q0 -28 19 -47t47 -19h655q27 0 46 19t20 47v655zM459 393v99h98
q12 2 19 11t8 21t-7 22t-20 11h-98v98h164q14 0 23 9t10 24t-9 23t-24 10h-197q-14 0 -23 -9t-10 -24v-328q0 -13 10 -22t23 -10h197q12 2 19 11t8 21t-7 22t-20 11h-164z" />
</svg>
