<?xml version="1.0" standalone="no"?>
<!DOCTYPE svg PUBLIC "-//W3C//DTD SVG 1.1//EN" "http://www.w3.org/Graphics/SVG/1.1/DTD/svg11.dtd" >
<svg xmlns="http://www.w3.org/2000/svg" xmlns:xlink="http://www.w3.org/1999/xlink" version="1.1" viewBox="-10 0 1069 1024">
   <path fill="currentColor"
d="M449 449l-75 75l75 75q8 10 8 22t-9 22t-22 10t-23 -7l-75 -75l-75 75q-10 10 -23 10t-24 -10t-10 -23t10 -24l75 -75l-75 -75q-8 -10 -8 -23t10 -22t22 -9t23 8l75 75l75 -75q10 -7 22 -6t20 9t10 21t-6 22zM1049 524q0 71 -35 131t-96 96t-132 35h-264q-41 32 -90 48
q-50 18 -104 18q-89 0 -165 -45q-75 -43 -118 -118q-45 -76 -45 -165t45 -165q43 -74 118 -117q76 -45 165 -45q54 0 103 17t91 48h264q71 0 131 35t96 96t36 131zM590 524q0 -71 -35 -131t-96 -95t-131 -36t-131 35t-95 96t-36 131t35 131t95 95q61 36 132 36t131 -35
t96 -95t35 -132zM983 524q0 -53 -26 -98t-72 -71t-99 -27h-198q67 88 67 196q0 54 -17 104t-50 93h198q54 0 99 -26t71 -72t27 -99z" />
</svg>
