<?xml version="1.0" standalone="no"?>
<!DOCTYPE svg PUBLIC "-//W3C//DTD SVG 1.1//EN" "http://www.w3.org/Graphics/SVG/1.1/DTD/svg11.dtd" >
<svg xmlns="http://www.w3.org/2000/svg" xmlns:xlink="http://www.w3.org/1999/xlink" version="1.1" viewBox="-10 0 1070 1024">
   <path fill="currentColor"
d="M318 141q9 10 9 23t-9 23l-131 131q-10 9 -23 9t-23 -9l-131 -131q-7 -10 -6 -22t9 -20t21 -10t22 6l108 108l108 -108q10 -9 23 -9t23 9zM1016 590q14 0 23 -9t10 -24t-9 -23t-24 -10h-230v-262h230q12 -2 19 -11t8 -21t-7 -22t-20 -11h-524q-12 2 -19 11t-8 21t7 22
t20 11h229v623q0 14 9 23t24 10h262q14 0 23 -9t10 -24t-9 -23t-24 -10h-230v-262h230z" />
</svg>
