<?xml version="1.0" standalone="no"?>
<!DOCTYPE svg PUBLIC "-//W3C//DTD SVG 1.1//EN" "http://www.w3.org/Graphics/SVG/1.1/DTD/svg11.dtd" >
<svg xmlns="http://www.w3.org/2000/svg" xmlns:xlink="http://www.w3.org/1999/xlink" version="1.1" viewBox="-10 0 1068 1024">
   <path fill="currentColor"
d="M524 688q0 13 -9 23t-23 10h-361q-27 0 -46 -19t-19 -47v-589q0 -27 19 -46t46 -20h655q27 0 46 19t20 47v491q0 14 -9 23t-24 10t-23 -9t-10 -24v-491h-655v589h361q13 0 22 10t10 23zM1030 848l-393 197q-16 8 -31 -1t-16 -28v-393q0 -18 15 -28t32 -2l393 197
q8 4 12 12t5 17t-4 17t-13 12zM942 819l-287 -143v287zM328 229v197q0 14 -9 23t-24 10t-23 -9t-10 -24q-2 -12 -11 -19t-21 -8t-22 7t-11 20q0 40 29 69t69 29t69 -29t29 -69v-197q-2 -12 -11 -19t-21 -8t-22 7t-11 20zM655 426q0 -35 -23 -60t-65 -37t-43 -34q0 -14 9 -23
t24 -10q26 0 42 18q10 10 23 10t24 -10t10 -23t-10 -24q-18 -18 -41 -27t-48 -9q-40 0 -69 28t-29 70q0 35 23 60t65 37t43 34q0 14 -9 23t-24 10q-25 0 -42 -18q-10 -10 -23 -10t-24 10t-10 23t10 24q38 36 89 36q41 0 69 -29t29 -69z" />
</svg>
