<?xml version="1.0" standalone="no"?>
<!DOCTYPE svg PUBLIC "-//W3C//DTD SVG 1.1//EN" "http://www.w3.org/Graphics/SVG/1.1/DTD/svg11.dtd" >
<svg xmlns="http://www.w3.org/2000/svg" xmlns:xlink="http://www.w3.org/1999/xlink" version="1.1" viewBox="-10 0 1069 1024">
   <path fill="currentColor"
d="M1042 568q-88 112 -193 189q-162 119 -325 119q-93 0 -192 -42l52 -51q74 27 140 27q136 0 278 -100q92 -66 172 -162q-34 -41 -75 -80q-55 -52 -111 -90l48 -48q64 45 125 106q44 44 81 92q7 9 7 20t-7 20zM524 696q42 0 77 -20t56 -54t21 -74q0 -23 -10 -50l-190 190
q30 8 46 8zM950 121l-852 852q-10 10 -24 10t-23 -10t-9 -24t11 -24l159 -159q-64 -45 -124 -106q-44 -45 -81 -92q-7 -9 -7 -20t7 -20q86 -111 192 -189q162 -119 325 -119q93 0 192 42l186 -186q8 -8 20 -10t23 5q13 9 14 24t-9 26zM665 313q-68 -26 -141 -27
q-135 0 -277 100q-93 66 -172 162q86 103 185 170l120 -120q-9 -24 -9 -50q0 -40 20 -73t56 -54t77 -20q22 0 46 7z" />
</svg>
