<?xml version="1.0" standalone="no"?>
<!DOCTYPE svg PUBLIC "-//W3C//DTD SVG 1.1//EN" "http://www.w3.org/Graphics/SVG/1.1/DTD/svg11.dtd" >
<svg xmlns="http://www.w3.org/2000/svg" xmlns:xlink="http://www.w3.org/1999/xlink" version="1.1" viewBox="-10 0 1068 1024">
   <path fill="currentColor"
d="M328 885q0 14 -9 23t-24 10h-33q-35 0 -65 -17t-48 -48t-18 -67v-114q0 -16 -7 -29t-19 -24l-92 -68q-13 -10 -13 -26t13 -27l92 -69q12 -9 19 -23t7 -29v-115q0 -35 17 -65t48 -48t66 -18h33q14 0 23 9t10 24t-9 23t-24 10h-33q-27 0 -46 19t-19 46v115q0 31 -14 58
t-39 47l-57 42l57 43q25 19 39 46t14 59v114q0 28 19 47t46 19h33q14 0 23 9t10 24zM1035 498l-91 -69q-12 -9 -19 -23t-7 -29v-115q0 -35 -17 -65t-48 -48t-66 -18h-33q-14 0 -23 9t-10 24t9 23t24 10h33q27 0 46 19t19 46v115q0 30 14 58t38 47l57 42l-57 43
q-25 19 -38 46t-14 59v114q0 28 -19 47t-47 19h-32q-14 0 -23 9t-10 24t9 23t24 10h32q36 0 66 -17t48 -48t18 -67v-114q0 -33 26 -53l91 -68q13 -10 13 -26t-13 -27zM688 492h-328q-12 2 -19 11t-8 21t7 22t20 11h328q12 -2 19 -11t8 -21t-7 -22t-20 -11z" />
</svg>
