<?xml version="1.0" standalone="no"?>
<!DOCTYPE svg PUBLIC "-//W3C//DTD SVG 1.1//EN" "http://www.w3.org/Graphics/SVG/1.1/DTD/svg11.dtd" >
<svg xmlns="http://www.w3.org/2000/svg" xmlns:xlink="http://www.w3.org/1999/xlink" version="1.1" viewBox="-10 0 1034 1024">
   <path fill="currentColor"
d="M983 524q0 124 -63 231q-61 104 -165 165q-107 63 -231 63q-95 0 -181 -38t-152 -107l-70 70q-7 7 -16 9t-19 -2t-15 -12t-6 -18v-197q0 -14 9 -23t24 -10h197q10 0 18 5t12 15t2 19t-9 17l-81 81q56 60 130 92t157 33q107 0 199 -54q89 -52 141 -141q54 -91 54 -198
q-2 -10 2 -19t12 -14t18 -6t18 5t13 15t2 19zM98 557q14 0 23 -9t10 -24q0 -106 54 -198q52 -89 141 -141q92 -54 198 -54q82 0 157 33t130 92l-81 81q-7 7 -9 17t2 19t12 14t19 6h196q14 0 23 -9t10 -24v-196q0 -10 -5 -18t-15 -12t-19 -2t-17 9l-70 69q-65 -69 -151 -106
t-182 -38q-124 0 -231 63q-104 60 -164 164q-63 107 -63 231q0 14 9 23t23 10z" />
</svg>
