<?xml version="1.0" standalone="no"?>
<!DOCTYPE svg PUBLIC "-//W3C//DTD SVG 1.1//EN" "http://www.w3.org/Graphics/SVG/1.1/DTD/svg11.dtd" >
<svg xmlns="http://www.w3.org/2000/svg" xmlns:xlink="http://www.w3.org/1999/xlink" version="1.1" viewBox="-10 0 1069 1024">
   <path fill="currentColor"
d="M492 780q-32 6 -64 6q-42 -60 -72 -131q-42 -101 -49 -196h159q14 0 23 -9t10 -24t-9 -23t-24 -10h-159q7 -94 48 -193q29 -69 71 -132q80 121 107 238q4 12 15 18t23 4t20 -13t6 -24q-27 -110 -89 -215q73 17 133 61t97 110q7 11 20 14t24 -3t15 -19t-2 -25
q-57 -99 -156 -156t-214 -58t-214 58q-96 57 -153 153q-58 99 -58 215t58 215q57 96 153 153q99 58 215 58q40 0 78 -7q13 -2 21 -13t6 -25t-14 -21t-25 -6zM344 75q-40 68 -66 140q-32 90 -37 178h-174q7 -76 44 -142t97 -112t136 -64zM67 459h174q5 88 37 178
q26 72 66 140q-75 -18 -135 -63t-98 -112t-44 -143zM786 328q-71 0 -131 35t-95 95q-36 61 -36 132q0 83 106 257q55 89 129 187l1 2q10 13 26 13t26 -13q32 -41 73 -100q67 -98 108 -178q56 -108 56 -168q0 -71 -35 -131t-96 -96t-132 -35zM786 961q-73 -100 -125 -192
q-71 -124 -71 -178t26 -100t72 -71t98 -27t98 26t72 72t27 99t-71 179q-53 91 -126 192zM852 590q2 19 -6 36t-24 28t-35 10t-36 -10t-24 -27t-6 -37q3 -25 22 -41t43 -17t44 16t22 42z" />
</svg>
