<?xml version="1.0" standalone="no"?>
<!DOCTYPE svg PUBLIC "-//W3C//DTD SVG 1.1//EN" "http://www.w3.org/Graphics/SVG/1.1/DTD/svg11.dtd" >
<svg xmlns="http://www.w3.org/2000/svg" xmlns:xlink="http://www.w3.org/1999/xlink" version="1.1" viewBox="-10 0 1069 1024">
   <path fill="currentColor"
d="M524 0q-106 0 -204 41q-94 40 -166 112t-113 167q-41 98 -41 204t41 204q40 94 112 167t167 113q98 41 204 41t204 -41q94 -40 167 -112t113 -168q41 -97 41 -204t-41 -204q-40 -94 -112 -166t-168 -113q-97 -41 -204 -41zM701 767l-420 -419l67 -67l419 420z" />
</svg>
