<?xml version="1.0" standalone="no"?>
<!DOCTYPE svg PUBLIC "-//W3C//DTD SVG 1.1//EN" "http://www.w3.org/Graphics/SVG/1.1/DTD/svg11.dtd" >
<svg xmlns="http://www.w3.org/2000/svg" xmlns:xlink="http://www.w3.org/1999/xlink" version="1.1" viewBox="-10 0 1034 1024">
   <path fill="currentColor"
d="M337 220q-10 -10 -10 -23t10 -24l164 -163q10 -9 23 -9t23 9l164 163q8 10 8 22t-9 22t-22 10t-23 -7l-108 -108v281q-2 12 -11 19t-21 8t-22 -7t-11 -20v-281l-108 108q-10 10 -23 10t-24 -10zM852 492v393q0 46 -43 83t-118 59t-167 22t-168 -22q-74 -21 -116 -58
t-43 -84v-393q0 -39 30 -72t89 -56q8 -6 18 -6t19 6t12 15t2 19t-10 17t-17 9q-36 15 -57 33t-21 35q0 21 32 43q35 24 91 38q64 17 139 17t139 -17q56 -14 91 -38q32 -22 32 -43q0 -17 -20 -35t-57 -32q-9 -2 -15 -9t-9 -16t1 -19t12 -14t17 -6t18 3q58 22 88 55t31 73z
M786 788q-44 30 -111 47q-70 17 -151 17t-150 -17q-67 -17 -112 -47v97q0 21 32 43q35 24 91 38q64 17 139 17t139 -17q56 -14 91 -38q32 -22 32 -43v-97zM786 591q-44 30 -111 47q-70 17 -151 17t-150 -17q-67 -17 -112 -47v97q0 21 32 43q35 24 91 38q64 17 139 17
t139 -17q56 -14 91 -38q32 -22 32 -43v-97z" />
</svg>
