<?xml version="1.0" standalone="no"?>
<!DOCTYPE svg PUBLIC "-//W3C//DTD SVG 1.1//EN" "http://www.w3.org/Graphics/SVG/1.1/DTD/svg11.dtd" >
<svg xmlns="http://www.w3.org/2000/svg" xmlns:xlink="http://www.w3.org/1999/xlink" version="1.1" viewBox="-10 0 1034 1024">
   <path fill="currentColor"
d="M382 323q-5 -5 -5 -11t5 -12t11 -5t12 5l103 103v-321q0 -7 5 -11t11 -5t12 4t5 12v321l103 -103q5 -5 11 -5t12 5t5 11t-5 12l-131 131q-5 5 -11 5t-12 -5zM786 475v393q0 33 -34 59t-94 41t-134 15t-134 -15t-94 -41t-34 -59v-393q0 -25 21 -46t60 -38q6 -3 12 0t10 9
t0 12t-9 10q-28 11 -44 25t-17 28q0 20 29 39t81 30q54 13 119 13t120 -13q50 -11 80 -30t30 -39q0 -14 -16 -28t-45 -25q-6 -2 -9 -8t-1 -13t9 -9t13 -1q39 16 60 37t21 47zM754 794q-34 27 -94 42t-136 16t-135 -15t-94 -43v74q0 20 29 39t81 30q54 13 119 13t120 -13
q50 -11 80 -30t30 -39v-74zM754 663q-34 27 -94 42t-136 16t-135 -15t-94 -43v74q0 20 29 39t81 30q54 13 119 13t120 -13q50 -11 80 -30t30 -39v-74zM754 532q-34 27 -94 42t-136 16t-135 -15t-94 -43v74q0 20 29 39t81 30q54 13 119 13t120 -13q50 -11 80 -30t30 -39v-74z
" />
</svg>
