<?xml version="1.0" standalone="no"?>
<!DOCTYPE svg PUBLIC "-//W3C//DTD SVG 1.1//EN" "http://www.w3.org/Graphics/SVG/1.1/DTD/svg11.dtd" >
<svg xmlns="http://www.w3.org/2000/svg" xmlns:xlink="http://www.w3.org/1999/xlink" version="1.1" viewBox="-10 0 1069 1024">
   <path fill="currentColor"
d="M459 590q7 0 12 -5t5 -11t-5 -12t-12 -5q-102 0 -188 -20q-80 -19 -126 -49t-47 -62v-130q46 44 142 70t218 27t220 -27q95 -26 141 -70v146q0 7 5 12t11 5t12 -5t5 -12v-213q0 -45 -52 -82t-141 -59q-92 -22 -200 -22t-200 22q-88 21 -140 58t-53 83v590q0 45 52 82
t141 60q91 22 200 22q7 0 12 -5t5 -11t-5 -12t-12 -5q-102 0 -188 -20q-80 -19 -126 -49t-47 -62v-130q46 44 142 70t219 27q7 0 11 -4t5 -12t-4 -11t-12 -5q-102 0 -188 -20q-80 -19 -126 -49t-47 -62v-131q46 44 142 71q98 27 219 27zM459 98q102 0 188 20q79 19 125 49
t47 62t-46 61t-126 50q-86 20 -188 20t-188 -20q-79 -19 -126 -49t-47 -62t46 -61t127 -50q86 -20 188 -20zM1029 679l-102 -103q-19 -19 -46 -19h-226q-13 0 -22 10t-10 23v426q0 13 9 23t23 10h361q14 0 23 -9t10 -24v-291q-1 -27 -20 -46zM993 688h-75v-75zM655 1016
v-426h226l4 1v97q0 14 9 23t24 10h97l1 4v291h-361z" />
</svg>
