<?xml version="1.0" standalone="no"?>
<!DOCTYPE svg PUBLIC "-//W3C//DTD SVG 1.1//EN" "http://www.w3.org/Graphics/SVG/1.1/DTD/svg11.dtd" >
<svg xmlns="http://www.w3.org/2000/svg" xmlns:xlink="http://www.w3.org/1999/xlink" version="1.1" viewBox="-10 0 1034 1024">
   <path fill="currentColor"
d="M524 66q-108 0 -200 22q-88 21 -140 58t-53 83v590q0 45 52 82t141 60q92 22 200 22t200 -22q89 -22 141 -59t53 -83v-590q0 -45 -52 -82t-142 -59q-91 -22 -200 -22zM524 98q102 0 188 20q80 19 126 49t47 62t-46 61t-127 50q-86 20 -188 20t-188 -20q-79 -19 -125 -49
t-47 -62t46 -61t126 -50q86 -20 188 -20zM524 950q-102 0 -188 -20q-79 -19 -125 -49t-47 -62v-130q46 44 142 70t218 27t218 -26t143 -71v130q0 31 -46 61t-127 50q-86 20 -188 20zM524 754q-102 0 -188 -20q-79 -19 -125 -49t-47 -62v-131q46 44 141 71q99 27 219 27
t219 -27q96 -27 142 -71v131q0 31 -46 61t-127 50q-86 20 -188 20zM524 557q-102 0 -188 -20q-79 -19 -125 -49t-47 -62v-130q46 44 142 70t218 27t218 -26t143 -71v130q0 31 -46 61t-127 50q-86 20 -188 20z" />
</svg>
