<?xml version="1.0" standalone="no"?>
<!DOCTYPE svg PUBLIC "-//W3C//DTD SVG 1.1//EN" "http://www.w3.org/Graphics/SVG/1.1/DTD/svg11.dtd" >
<svg xmlns="http://www.w3.org/2000/svg" xmlns:xlink="http://www.w3.org/1999/xlink" version="1.1" viewBox="-10 0 1034 1024">
   <path fill="currentColor"
d="M524 0q-66 0 -140 6q-130 10 -210 35q-108 33 -108 90v787q0 57 108 90q80 25 210 35q74 6 140 6t140 -6q131 -10 210 -35q109 -33 109 -90v-787q0 -57 -109 -90q-79 -25 -210 -35q-74 -6 -140 -6zM131 468q75 34 228 48q84 8 165 8t166 -8q153 -14 228 -48v184
q-8 14 -56 29q-54 17 -134 28q-94 12 -203 12t-204 -12q-79 -11 -134 -28q-48 -15 -56 -28v-185zM524 459q-109 0 -203 -12q-79 -11 -134 -28q-48 -15 -56 -28v-186q75 35 228 49q84 8 165 8t166 -8q153 -14 228 -49v185q-8 14 -56 29q-54 17 -134 28q-94 12 -204 12z
M524 66q106 0 197 11q78 10 133 26q49 14 62 28q-13 14 -62 28q-55 17 -133 26q-91 12 -197 12t-197 -12q-78 -9 -133 -26q-48 -14 -61 -28q13 -14 61 -28q55 -16 133 -26q91 -11 197 -11zM524 983q-110 0 -204 -12q-80 -10 -134 -27q-48 -14 -55 -26v-188q75 34 228 48
q84 8 165 8t166 -8q153 -14 228 -49v185q-8 14 -55 29q-54 17 -134 28q-94 12 -205 12z" />
</svg>
