<?xml version="1.0" standalone="no"?>
<!DOCTYPE svg PUBLIC "-//W3C//DTD SVG 1.1//EN" "http://www.w3.org/Graphics/SVG/1.1/DTD/svg11.dtd" >
<svg xmlns="http://www.w3.org/2000/svg" xmlns:xlink="http://www.w3.org/1999/xlink" version="1.1" viewBox="-10 0 1034 1024">
   <path fill="currentColor"
d="M337 253q-10 -10 -10 -23t10 -24t23 -10t24 10l108 108v-281q2 -12 11 -19t21 -8t22 7t11 20v281l108 -108q10 -8 23 -8t22 10t9 22t-8 23l-164 163q-10 9 -23 9t-23 -9zM852 492v393q0 46 -43 83t-118 59t-167 22t-168 -22q-74 -21 -116 -58t-43 -84v-393q0 -12 2 -19
q0 -2 2 -8l3 -9l2 -4q2 -3 6 -11q8 -13 19 -24l4 -4q2 -2 4 -3q10 -10 17 -15q11 -8 24 -6t22 14t6 24t-14 22q-8 5 -15 12q-4 5 -9 12l-2 2q-6 8 -6 17q0 21 32 43q35 24 91 38q64 17 139 17t139 -17q56 -14 91 -38q32 -22 32 -43q0 -9 -5 -17q-1 0 -1 -1l-1 -1
q-4 -6 -10 -12t-15 -11t-12 -13t-5 -18t5 -18t15 -11t18 -3t17 8q5 3 12 10l12 10l2 2q4 4 10 12t9 13q2 3 6 11q2 4 4 12l3 8v3q2 11 2 16zM786 788q-44 30 -111 47q-70 17 -151 17t-150 -17q-67 -17 -112 -47v97q0 21 32 43q35 24 91 38q64 17 139 17t139 -17
q56 -14 91 -38q32 -22 32 -43v-97zM786 591q-44 30 -111 47q-70 17 -151 17t-150 -17q-67 -17 -112 -47v97q0 21 32 43q35 24 91 38q64 17 139 17t139 -17q56 -14 91 -38q32 -22 32 -43v-97z" />
</svg>
