<?xml version="1.0" standalone="no"?>
<!DOCTYPE svg PUBLIC "-//W3C//DTD SVG 1.1//EN" "http://www.w3.org/Graphics/SVG/1.1/DTD/svg11.dtd" >
<svg xmlns="http://www.w3.org/2000/svg" xmlns:xlink="http://www.w3.org/1999/xlink" version="1.1" viewBox="-10 0 1034 1024">
   <path fill="currentColor"
d="M721 492q-71 0 -131 26t-96 72t-35 98v98q0 54 35 99t95 71t132 27t131 -26t96 -72t35 -99v-98q0 -53 -35 -98t-96 -71t-131 -27zM950 786q0 45 -31 82t-83 60t-115 22t-114 -22t-84 -59t-31 -83v-3q42 51 102 77t127 25q66 2 126 -24t103 -78v3zM721 852q-62 0 -115 -22
t-83 -60t-31 -82t30 -82t84 -60t115 -22t115 22t83 60t31 82t-31 82t-83 60t-115 22zM590 360v-98q0 -53 -35 -98t-96 -71t-131 -27t-131 26t-95 72t-36 98v98q0 54 35 99t95 71t132 27t131 -26t96 -72t35 -99zM328 98q62 0 114 22t84 60t31 82t-31 82t-83 60t-115 22
t-115 -22t-84 -60t-31 -82t31 -82t84 -60t115 -22zM328 524q-63 0 -115 -22t-84 -59t-31 -83v-3q43 51 103 78t127 24q66 2 126 -24t103 -78v3q0 45 -31 82t-83 60t-115 22z" />
</svg>
