<?xml version="1.0" standalone="no"?>
<!DOCTYPE svg PUBLIC "-//W3C//DTD SVG 1.1//EN" "http://www.w3.org/Graphics/SVG/1.1/DTD/svg11.dtd" >
<svg xmlns="http://www.w3.org/2000/svg" xmlns:xlink="http://www.w3.org/1999/xlink" version="1.1" viewBox="-10 0 1034 1024">
   <path fill="currentColor"
d="M344 66q-77 0 -140 19t-101 53t-37 75t37 74t100 53t141 20t141 -19t101 -53t37 -75t-37 -74t-101 -53t-141 -20zM344 328q-65 0 -122 -16t-90 -42t-34 -57t33 -56t91 -43t122 -16t122 16t90 42t34 57t-33 56t-91 43t-122 16zM344 459q-77 0 -140 19t-101 54t-37 74v230
q0 40 37 74t100 53t141 20t141 -19t101 -54t37 -74v-230q0 -40 -37 -74t-101 -53t-141 -20zM590 836q0 30 -33 56t-91 42t-122 16t-122 -15t-90 -42t-34 -57v-159q36 35 100 56q66 21 146 21t146 -21q64 -21 100 -56v159zM344 721q-65 0 -122 -16t-90 -42t-34 -57t33 -56
t91 -42t122 -16t122 15t90 42t34 57t-33 56t-91 43t-122 16zM967 393h-148v-147q0 -7 -5 -11t-11 -5t-12 4t-5 12v147h-147q-7 0 -11 5t-5 11t4 12t12 5h147v147q0 7 5 11t11 5t12 -4t5 -12v-147h148q7 0 11 -5t5 -11t-4 -12t-12 -5z" />
</svg>
