<?xml version="1.0" standalone="no"?>
<!DOCTYPE svg PUBLIC "-//W3C//DTD SVG 1.1//EN" "http://www.w3.org/Graphics/SVG/1.1/DTD/svg11.dtd" >
<svg xmlns="http://www.w3.org/2000/svg" xmlns:xlink="http://www.w3.org/1999/xlink" version="1.1" viewBox="-10 0 1034 1024">
   <path fill="currentColor"
d="M524 98q-124 0 -231 47q-104 46 -164 124q-63 80 -63 173v164q0 93 63 174q60 77 164 123q107 47 231 47t231 -47q104 -46 165 -123q63 -81 63 -174v-164q0 -93 -63 -173q-61 -78 -165 -124q-107 -47 -231 -47zM950 606q0 85 -58 157q-57 71 -153 112q-99 43 -215 43
t-215 -43q-96 -41 -153 -112q-58 -72 -58 -157v-37q34 63 98 112t147 77q86 28 181 28t181 -28q84 -27 148 -76t97 -113v37zM524 754q-116 0 -215 -43q-96 -41 -153 -112q-58 -72 -58 -157t58 -157q57 -70 153 -112q99 -42 215 -42t215 43q96 41 153 111q58 73 58 157
t-58 157q-57 71 -153 112q-100 43 -215 43zM688 426h-147v-147q0 -7 -5 -11t-11 -5t-12 4t-5 12v147h-148q-7 0 -11 5t-5 11t4 12t12 5h148v147q0 7 5 11t11 5t12 -4t5 -12v-147h147q7 0 11 -5t5 -11t-4 -12t-12 -5z" />
</svg>
