<?xml version="1.0" standalone="no"?>
<!DOCTYPE svg PUBLIC "-//W3C//DTD SVG 1.1//EN" "http://www.w3.org/Graphics/SVG/1.1/DTD/svg11.dtd" >
<svg xmlns="http://www.w3.org/2000/svg" xmlns:xlink="http://www.w3.org/1999/xlink" version="1.1" viewBox="-17 0 1076 1024">
   <path fill="currentColor"
d="M383 518l-54 160q-5 16 4 29t27 14q6 0 11 -2l160 -53q44 -15 77 -48l404 -404q24 -24 32 -56t1 -65t-33 -56t-57 -33t-64 0t-57 33l-404 404q-33 33 -47 77zM881 83q11 -13 27 -18t33 -2t29 16t15 29t-1 33t-19 27l-53 53l-85 -84zM445 539q9 -30 31 -52l316 -315l85 84
l-316 316q-22 22 -51 32l-98 33zM1004 416q-13 2 -21 13t-6 24q6 35 6 71q0 92 -35 176t-99 148t-149 100t-176 36t-175 -34t-149 -100t-100 -149t-35 -175t35 -176t99 -149t149 -100t176 -35q36 0 71 6q13 1 23 -7t12 -21t-5 -23t-20 -14q-112 -18 -221 11q-107 29 -194 98
q-88 71 -139 172t-57 214q-6 111 34 214q40 106 120 186t186 120q104 39 214 34q113 -6 214 -58t171 -140q70 -87 98 -194q29 -109 11 -221q-2 -13 -13 -21t-25 -6z" />
</svg>
