<?xml version="1.0" standalone="no"?>
<!DOCTYPE svg PUBLIC "-//W3C//DTD SVG 1.1//EN" "http://www.w3.org/Graphics/SVG/1.1/DTD/svg11.dtd" >
<svg xmlns="http://www.w3.org/2000/svg" xmlns:xlink="http://www.w3.org/1999/xlink" version="1.1" viewBox="-10 0 1034 1024">
   <path fill="currentColor"
d="M926 338q-7 2 -9 9t0 13q39 93 32 193q-7 97 -56 182q-49 87 -132 143t-184 68q-97 13 -189 -19q-95 -32 -166 -103t-103 -166q-30 -93 -18 -190q13 -99 69 -182t144 -133q85 -48 182 -55q100 -6 193 33q6 2 12 0t9 -9t0 -12t-9 -9q-100 -42 -208 -34q-105 7 -196 59
q-94 54 -154 144t-74 197q-13 105 21 204q34 103 111 179t179 110q100 34 204 20q107 -14 197 -74t143 -155q52 -91 59 -197q7 -107 -35 -207q-2 -7 -9 -9t-13 0zM353 589l-57 142q-4 8 1 15t14 8q3 0 6 -2l142 -56q25 -10 44 -29l455 -455q17 -16 24 -39t1 -46t-23 -39
t-40 -22t-45 0t-39 25l-454 454q-19 19 -29 44zM860 114q16 -16 37 -16t38 16t16 37t-16 38l-37 36l-75 -75zM405 568l401 -400l75 75l-401 400q-14 14 -33 22l-106 43l42 -107q8 -19 22 -33z" />
</svg>
