<?xml version="1.0" standalone="no"?>
<!DOCTYPE svg PUBLIC "-//W3C//DTD SVG 1.1//EN" "http://www.w3.org/Graphics/SVG/1.1/DTD/svg11.dtd" >
<svg xmlns="http://www.w3.org/2000/svg" xmlns:xlink="http://www.w3.org/1999/xlink" version="1.1" viewBox="-10 0 1034 1024">
   <path fill="currentColor"
d="M164 983h262q12 -2 19 -11t8 -21t-7 -22t-20 -11h-183l272 -272q10 -10 10 -23t-10 -24t-23 -10t-24 10l-271 272v-183q0 -14 -9 -23t-24 -10t-23 9t-10 24v262q0 14 9 23t24 10zM599 449q10 10 23 10t24 -10l272 -272v183q2 12 11 19t21 8t22 -7t11 -20v-262
q0 -13 -10 -22t-23 -10h-262q-12 2 -19 11t-8 21t7 22t20 11h183l-272 272q-9 10 -9 23t9 23z" />
</svg>
