<?xml version="1.0" standalone="no"?>
<!DOCTYPE svg PUBLIC "-//W3C//DTD SVG 1.1//EN" "http://www.w3.org/Graphics/SVG/1.1/DTD/svg11.dtd" >
<svg xmlns="http://www.w3.org/2000/svg" xmlns:xlink="http://www.w3.org/1999/xlink" version="1.1" viewBox="-10 0 1034 1024">
   <path fill="currentColor"
d="M980 515q-81 -130 -210 -213l208 -209q5 -5 5 -11t-5 -12t-11 -5t-12 5l-214 215q-101 -56 -217 -56q-130 0 -247 74t-209 212q-6 9 0 18q82 130 211 214l-209 208q-5 5 -5 11t5 12t11 5t12 -5l215 -215q101 55 216 56q131 0 248 -73t208 -213q6 -9 0 -18zM102 524
q85 -127 194 -194t228 -68q102 0 192 47l-88 89q-22 -18 -48 -28t-56 -10q-45 0 -82 22t-60 59t-22 83q0 28 10 54t28 49l-95 96q-123 -77 -201 -199zM421 604q-32 -39 -30 -89t38 -85t86 -38t89 29zM627 444q32 39 30 89t-38 85t-86 38t-89 -29zM524 786q-101 -1 -191 -47
l88 -88q45 37 103 37q45 0 82 -22t60 -59t22 -83q0 -58 -37 -103l95 -95q123 77 201 198q-86 127 -195 194t-228 68z" />
</svg>
