<?xml version="1.0" standalone="no"?>
<!DOCTYPE svg PUBLIC "-//W3C//DTD SVG 1.1//EN" "http://www.w3.org/Graphics/SVG/1.1/DTD/svg11.dtd" >
<svg xmlns="http://www.w3.org/2000/svg" xmlns:xlink="http://www.w3.org/1999/xlink" version="1.1" viewBox="-10 0 1069 1024">
   <path fill="currentColor"
d="M868 319l-46 47q89 67 154 158q-92 127 -208 194t-244 68q-55 0 -109 -13l-53 52q79 26 162 27q148 0 282 -80t237 -229q6 -8 6 -18t-6 -19q-72 -108 -175 -187zM533 654l-59 59q24 7 50 8q54 0 99 -26t71 -72t27 -99q0 -25 -7 -50l-59 59q-3 49 -38 83t-84 38zM235 767
l-160 160q-10 10 -10 23t10 24t23 10t24 -10l174 -174l49 -50l421 -421l47 -48l161 -159q10 -10 10 -23t-10 -24t-23 -10t-24 10l-174 174q-109 -52 -229 -52q-148 0 -281 79t-237 230q-6 8 -6 18t6 19q91 136 229 224zM412 590q-23 -38 -17 -82t37 -75t76 -38t82 17z
M524 262q94 0 180 37l-66 65q-51 -36 -114 -36q-53 0 -98 26t-71 72t-27 98q0 63 36 114l-81 82q-126 -76 -210 -196q92 -127 208 -194t243 -68z" />
</svg>
