<?xml version="1.0" standalone="no"?>
<!DOCTYPE svg PUBLIC "-//W3C//DTD SVG 1.1//EN" "http://www.w3.org/Graphics/SVG/1.1/DTD/svg11.dtd" >
<svg xmlns="http://www.w3.org/2000/svg" xmlns:xlink="http://www.w3.org/1999/xlink" version="1.1" viewBox="-10 0 1034 1024">
   <path fill="currentColor"
d="M983 221q0 -42 -21 -77t-56 -57t-78 -21q-31 0 -59 11t-51 34l-112 112l-21 -22q-5 -5 -12 -5t-11 5t-5 12t5 12l21 21l-341 341q-43 43 -65 99l-34 84q-10 25 -25 48l-50 74q-4 5 -3 11t5 10l66 65q4 5 10 5t11 -3l74 -49q23 -15 48 -25l84 -34q56 -22 99 -65l341 -341
l21 21q5 5 11 5t12 -5t5 -11t-5 -12l-21 -22l111 -111q22 -22 34 -50t12 -60zM438 784q-38 38 -88 58l-83 33q-29 12 -54 29l-63 42l-47 -47l42 -63q17 -26 28 -54l34 -84q19 -48 55 -85l54 54q5 5 11 5t12 -5t5 -11t-5 -12l-54 -54l92 -92l54 54q5 5 11 5t12 -5t5 -11
t-5 -12l-54 -54l92 -91l53 54q5 5 12 5t12 -5t5 -12t-5 -12l-54 -54l91 -91l174 173zM803 419l-174 -173l112 -112q17 -17 40 -26t47 -10q37 0 68 21t45 55t7 71t-34 63z" />
</svg>
