<?xml version="1.0" standalone="no"?>
<!DOCTYPE svg PUBLIC "-//W3C//DTD SVG 1.1//EN" "http://www.w3.org/Graphics/SVG/1.1/DTD/svg11.dtd" >
<svg xmlns="http://www.w3.org/2000/svg" xmlns:xlink="http://www.w3.org/1999/xlink" version="1.1" viewBox="-10 0 1034 1024">
   <path fill="currentColor"
d="M852 66h-655q-35 0 -65 17t-48 48t-18 66v655q0 35 17 65t48 48t66 18h655q35 0 65 -17t48 -48t18 -66v-655q0 -35 -17 -65t-48 -48t-66 -18zM694 305h-61q-34 0 -47 16q-11 12 -11 41v74h115l-14 117h-101v299h-120v-299h-101v-117h101v-86q0 -72 41 -112t108 -41
q29 0 72 3l18 1v104z" />
</svg>
