<?xml version="1.0" standalone="no"?>
<!DOCTYPE svg PUBLIC "-//W3C//DTD SVG 1.1//EN" "http://www.w3.org/Graphics/SVG/1.1/DTD/svg11.dtd" >
<svg xmlns="http://www.w3.org/2000/svg" xmlns:xlink="http://www.w3.org/1999/xlink" version="1.1" viewBox="-11 0 1071 1024">
   <path fill="currentColor"
d="M581 509l-93 -31q-11 -2 -20 -9t-13 -18t-3 -22t9 -21t19 -13t22 -2h47q16 0 27 11t14 27q1 9 6 17t14 11t18 3t16 -8t10 -15t1 -18q-6 -40 -36 -66t-70 -27h-47q-40 1 -70 27t-36 65t14 73t58 47l92 31q15 5 23 18t7 30t-15 26t-29 10h-46q-16 0 -27 -10t-14 -27
q-3 -12 -13 -19t-23 -6t-21 11t-8 23q5 40 35 67t71 27h46q40 0 70 -26t36 -65t-13 -74t-58 -47zM974 509l-92 -31q-17 -3 -27 -17t-9 -31t17 -28t32 -9h47q16 0 27 11t14 27q2 14 13 22t25 6t22 -13t6 -25q-6 -40 -36 -66t-71 -27h-47q-40 1 -70 27t-36 65t14 73t58 47
l92 31q15 5 23 18t7 29t-15 26t-28 11h-47q-16 0 -27 -10t-14 -27q-3 -12 -13 -19t-23 -6t-21 11t-8 23q5 40 35 67t71 27h47q40 -1 70 -27t36 -65t-14 -73t-58 -47zM210 410q7 7 16 9t19 0t15 -12t7 -17t-4 -19t-14 -13q-37 -29 -85 -30q-49 5 -87 33t-60 71t-17 92
q-4 49 16 92t60 72t88 33q48 -1 85 -30q9 -4 14 -13t4 -18t-6 -18t-15 -11t-19 -2t-17 10q-32 24 -67 13q-33 -10 -55 -46t-22 -82t22 -81t54 -46q35 -11 68 13z" />
</svg>
