<?xml version="1.0" standalone="no"?>
<!DOCTYPE svg PUBLIC "-//W3C//DTD SVG 1.1//EN" "http://www.w3.org/Graphics/SVG/1.1/DTD/svg11.dtd" >
<svg xmlns="http://www.w3.org/2000/svg" xmlns:xlink="http://www.w3.org/1999/xlink" version="1.1" viewBox="-10 0 1069 1024">
   <path fill="currentColor"
d="M492 983h-295v-917h412l243 242v118q0 14 9 23t24 10t23 -9t10 -24v-118q-1 -27 -20 -46l-243 -243q-19 -19 -46 -19h-412q-27 0 -46 19t-20 47v917q0 27 19 46t47 20h295q14 0 23 -9t10 -24t-9 -23t-24 -10zM786 360q0 -13 -9 -22t-23 -10h-164v-164q0 -14 -9 -23
t-24 -10t-23 9t-10 24v164q0 27 19 46t47 19h164q13 0 22 -10t10 -23zM1020 619q-14 -14 -32 -21t-38 -8t-38 7t-31 22l-196 195q-19 19 -31 44v1l-59 127q-6 13 -4 26t12 24q12 12 29 13v0q11 0 21 -5v0l127 -59q26 -12 44 -32l196 -195q14 -14 21 -32t8 -38q0 -40 -29 -69
zM974 711l-196 196q-11 11 -26 18v0l-73 34l34 -72q8 -15 18 -27l196 -195q10 -9 23 -9t22 9t10 23t-9 23h1z" />
</svg>
