<?xml version="1.0" standalone="no"?>
<!DOCTYPE svg PUBLIC "-//W3C//DTD SVG 1.1//EN" "http://www.w3.org/Graphics/SVG/1.1/DTD/svg11.dtd" >
<svg xmlns="http://www.w3.org/2000/svg" xmlns:xlink="http://www.w3.org/1999/xlink" version="1.1" viewBox="-12 0 1072 1024">
   <path fill="currentColor"
d="M281 334q-11 -8 -24 -6t-22 14l-88 125l-87 -125q-4 -9 -12 -13t-18 -5t-18 5t-11 15t-3 18t8 17l102 145l-102 145q-8 11 -6 24t14 22t24 6t22 -14l87 -126l88 126q8 11 21 13t25 -5t13 -21t-5 -25l-102 -145l102 -145q7 -11 5 -24t-13 -21zM1016 655h-98v-295
q0 -14 -9 -23t-24 -10t-23 9t-10 24v328q0 14 9 23t24 10h131q14 0 23 -9t10 -24t-9 -23t-24 -10zM699 330q-10 -4 -20 -1t-17 11l-104 132l-107 -132q-7 -8 -16 -10t-19 0t-16 12t-7 18v328q0 14 9 23t24 10t23 -9t10 -24v-235l74 92q10 12 25 11t26 -12l71 -89v233
q0 14 9 23t24 10t23 -9t10 -24v-328q0 -10 -6 -18t-16 -12z" />
</svg>
