<?xml version="1.0" standalone="no"?>
<!DOCTYPE svg PUBLIC "-//W3C//DTD SVG 1.1//EN" "http://www.w3.org/Graphics/SVG/1.1/DTD/svg11.dtd" >
<svg xmlns="http://www.w3.org/2000/svg" xmlns:xlink="http://www.w3.org/1999/xlink" version="1.1" viewBox="-10 0 1069 1024">
   <path fill="currentColor"
d="M328 229h16q7 0 11 -4t5 -12t-4 -11t-12 -5h-16q-29 0 -49 22q-9 -11 -22 -16t-28 -6h-16q-7 0 -11 4t-5 12t4 11t12 5h16q14 0 23 9t10 24v98q0 14 -9 23t-24 10h-16q-7 0 -11 5t-5 11t4 12t12 5h16q14 0 27 -6t23 -17q19 23 49 23h16q7 0 12 -5t5 -11t-5 -12t-12 -5
h-16q-14 0 -23 -9t-10 -24v-98q0 -14 9 -23t24 -10zM541 819h-410q-14 0 -23 -9t-10 -24v-655q0 -14 9 -23t24 -10h787q13 0 22 10t10 23v377q0 7 5 11t11 5t12 -4t5 -12v-377q0 -27 -19 -46t-46 -19h-787q-27 0 -46 19t-19 46v655q0 27 19 46t46 20h410q7 0 12 -5t5 -11
t-5 -12t-12 -5zM1029 679l-102 -103q-19 -19 -46 -19h-226q-13 0 -22 10t-10 23v426q0 13 9 23t23 10h361q14 0 23 -9t10 -24v-291q-1 -27 -20 -46zM918 613l75 75h-75v-75zM655 1016v-426h226l4 1v97q0 14 9 23t24 10h97l1 4v291h-361z" />
</svg>
