<?xml version="1.0" standalone="no"?>
<!DOCTYPE svg PUBLIC "-//W3C//DTD SVG 1.1//EN" "http://www.w3.org/Graphics/SVG/1.1/DTD/svg11.dtd" >
<svg xmlns="http://www.w3.org/2000/svg" xmlns:xlink="http://www.w3.org/1999/xlink" version="1.1" viewBox="-10 0 1070 1024">
   <path fill="currentColor"
d="M328 229h16q7 0 11 -4t5 -12t-4 -11t-12 -5h-16q-29 0 -49 22q-9 -11 -22 -16t-28 -6h-16q-7 0 -11 4t-5 12t4 11t12 5h16q14 0 23 9t10 24v98q0 14 -9 23t-24 10h-16q-7 0 -11 5t-5 11t4 12t12 5h16q14 0 27 -6t23 -17q19 23 49 23h16q7 0 12 -5t5 -11t-5 -12t-12 -5
h-16q-14 0 -23 -9t-10 -24v-98q0 -14 9 -23t24 -10zM541 819h-410q-14 0 -23 -9t-10 -24v-655q0 -14 9 -23t24 -10h787q13 0 22 10t10 23v344q0 7 5 11t11 5t12 -4t5 -12v-344q0 -27 -19 -46t-46 -19h-787q-27 0 -46 19t-19 46v655q0 27 19 46t46 20h410q7 0 12 -5t5 -11
t-5 -12t-12 -5zM836 557q-60 0 -108 13t-77 35t-28 50v295q0 28 28 50t76 36t109 13t108 -13t77 -35t28 -51v-295q0 -28 -28 -50t-76 -35t-109 -13zM1016 950q0 16 -24 31t-64 25q-43 10 -92 10t-93 -10q-40 -10 -64 -25t-24 -31v-94q41 25 87 36t94 9q47 2 93 -9t87 -36v94
zM1016 803q0 16 -24 31t-64 24q-43 10 -92 10t-93 -10q-40 -9 -64 -24t-24 -31v-94q41 25 87 36t94 9q47 2 93 -9t87 -36v94zM836 721q-50 0 -93 -10q-40 -10 -64 -25t-24 -31t24 -31t64 -24q43 -10 93 -10t93 10q40 9 63 24t24 31t-24 31t-64 25q-43 10 -92 10z" />
</svg>
