<?xml version="1.0" standalone="no"?>
<!DOCTYPE svg PUBLIC "-//W3C//DTD SVG 1.1//EN" "http://www.w3.org/Graphics/SVG/1.1/DTD/svg11.dtd" >
<svg xmlns="http://www.w3.org/2000/svg" xmlns:xlink="http://www.w3.org/1999/xlink" version="1.1" viewBox="-10 0 1069 1024">
   <path fill="currentColor"
d="M328 229h16q7 0 11 -4t5 -12t-4 -11t-12 -5h-16q-29 0 -49 22q-9 -11 -22 -16t-28 -6h-16q-7 0 -11 4t-5 12t4 11t12 5h16q14 0 23 9t10 24v98q0 14 -9 23t-24 10h-16q-7 0 -11 5t-5 11t4 12t12 5h16q14 0 27 -6t23 -17q19 23 49 23h16q7 0 12 -5t5 -11t-5 -12t-12 -5
h-16q-14 0 -23 -9t-10 -24v-98q0 -14 9 -23t24 -10zM410 819h-279q-14 0 -23 -9t-10 -24v-655q0 -14 9 -23t24 -10h787q13 0 22 10t10 23v410q0 7 5 11t11 5t12 -4t5 -12v-410q0 -27 -19 -46t-46 -19h-787q-27 0 -46 19t-19 46v655q0 27 19 46t46 20h279q7 0 12 -5t5 -11
t-5 -12t-12 -5zM955 918l90 -105q4 -5 4 -12t-6 -11t-12 -4t-11 6l-86 100l-86 -100q-6 -7 -15 -6t-13 11t3 16l89 105l-89 104q-4 5 -4 12t6 11t12 4t11 -6l86 -100l86 100q4 5 11 5t12 -3t5 -11t-3 -12zM729 557q-29 0 -53 14t-38 39t-15 53v123h-82q-7 0 -12 5t-5 11
t5 12t12 5h82v123q1 24 -12 43t-36 27t-46 2t-37 -26q-4 -5 -10 -6t-12 3t-6 11t3 12q21 26 53 35t64 -2t51 -38t20 -61v-123h82q7 0 11 -5t5 -11t-4 -12t-12 -5h-82v-123q0 -24 13 -43t36 -26t45 -2t37 26q4 5 11 5t12 -3t5 -11t-3 -12q-15 -19 -36 -29t-46 -11z" />
</svg>
