<?xml version="1.0" standalone="no"?>
<!DOCTYPE svg PUBLIC "-//W3C//DTD SVG 1.1//EN" "http://www.w3.org/Graphics/SVG/1.1/DTD/svg11.dtd" >
<svg xmlns="http://www.w3.org/2000/svg" xmlns:xlink="http://www.w3.org/1999/xlink" version="1.1" viewBox="-10 0 1070 1024">
   <path fill="currentColor"
d="M344 426q7 0 12 -5t5 -11t-5 -12t-12 -5h-16q-14 0 -23 -9t-10 -24v-98q0 -14 9 -23t24 -10h16q7 0 11 -4t5 -12t-4 -11t-12 -5h-16q-29 0 -49 22q-9 -11 -22 -16t-28 -6h-16q-7 0 -11 4t-5 12t4 11t12 5h16q14 0 23 9t10 24v98q0 14 -9 23t-24 10h-16q-7 0 -11 5t-5 11
t4 12t12 5h16q14 0 27 -6t23 -17q19 23 49 23h16zM246 819h-115q-14 0 -23 -9t-10 -24v-655q0 -14 9 -23t24 -10h787q13 0 22 10t10 23v574q0 7 5 11t11 5t12 -4t5 -12v-574q0 -27 -19 -46t-46 -19h-787q-27 0 -46 19t-19 46v655q0 27 19 46t46 20h115q7 0 12 -5t5 -11
t-5 -12t-12 -5zM918 786q0 -26 -10 -50t-28 -43t-43 -28t-51 -10q-22 0 -43 8q-21 -55 -72 -84t-110 -19t-97 56t-38 105q0 20 5 40q-53 16 -82 62t-22 101t51 90t97 35h443q36 0 66 -17t47 -48t18 -66t-17 -66t-48 -48t-66 -18zM918 1016h-443q-44 -1 -76 -31t-37 -74
t22 -79t71 -44q7 -1 10 -7t2 -14q-13 -34 -6 -70t31 -63t59 -37t70 -3t61 35t35 61q2 8 9 11t14 -1q21 -12 46 -12q22 -1 42 8t34 25t19 38t2 43q-1 8 5 14t14 5q27 -4 52 7t41 33t18 49t-9 51t-36 39t-50 16z" />
</svg>
