<?xml version="1.0" standalone="no"?>
<!DOCTYPE svg PUBLIC "-//W3C//DTD SVG 1.1//EN" "http://www.w3.org/Graphics/SVG/1.1/DTD/svg11.dtd" >
<svg xmlns="http://www.w3.org/2000/svg" xmlns:xlink="http://www.w3.org/1999/xlink" version="1.1" viewBox="-10 0 1069 1024">
   <path fill="currentColor"
d="M1044 890q-5 -5 -11 -5t-12 5l-103 103v-370q0 -27 -19 -46t-47 -20h-180q-7 0 -11 5t-5 11t4 12t12 5h180q14 0 23 9t10 24v370l-103 -103q-5 -5 -12 -5t-11 4t-5 12t4 12l132 131q5 5 11 5t12 -5l131 -131q5 -5 5 -11t-5 -12zM672 1016h-180q-14 0 -23 -9t-10 -24v-370
l103 103q5 5 11 5t12 -5t5 -11t-5 -12l-131 -131q-5 -5 -11 -5t-12 5l-131 131q-5 5 -5 11t5 12t11 5t12 -5l103 -103v370q0 27 19 46t47 20h180q7 0 11 -5t5 -11t-4 -12t-12 -5zM344 426q7 0 12 -5t5 -11t-5 -12t-12 -5h-16q-14 0 -23 -9t-10 -24v-98q0 -14 9 -23t24 -10
h16q7 0 11 -4t5 -12t-4 -11t-12 -5h-16q-29 0 -49 22q-9 -11 -22 -16t-28 -6h-16q-7 0 -11 4t-5 12t4 11t12 5h16q14 0 23 9t10 24v98q0 14 -9 23t-24 10h-16q-7 0 -11 5t-5 11t4 12t12 5h16q14 0 27 -6t23 -17q19 23 49 23h16zM213 819h-82q-14 0 -23 -9t-10 -24v-655
q0 -14 9 -23t24 -10h787q13 0 22 10t10 23v344q0 7 5 11t11 5t12 -4t5 -12v-344q0 -27 -19 -46t-46 -19h-787q-27 0 -46 19t-19 46v655q0 27 19 46t46 20h82q7 0 12 -5t5 -11t-5 -12t-12 -5z" />
</svg>
