<?xml version="1.0" standalone="no"?>
<!DOCTYPE svg PUBLIC "-//W3C//DTD SVG 1.1//EN" "http://www.w3.org/Graphics/SVG/1.1/DTD/svg11.dtd" >
<svg xmlns="http://www.w3.org/2000/svg" xmlns:xlink="http://www.w3.org/1999/xlink" version="1.1" viewBox="-10 0 1034 1024">
   <path fill="currentColor"
d="M981 107q-4 -9 -14 -9h-885q-11 -1 -16 8t2 18l273 424q20 31 25 68l40 320q1 6 6 10t11 4h203q6 0 10 -4t6 -10l41 -320q5 -37 25 -68l272 -424q6 -8 1 -17zM611 918h-174l-29 -230h233zM680 530q-24 38 -30 82l-5 43h-241l-6 -43q-5 -44 -29 -82l-89 -137h488zM789 360
h-530l-147 -229h825z" />
</svg>
