<?xml version="1.0" standalone="no"?>
<!DOCTYPE svg PUBLIC "-//W3C//DTD SVG 1.1//EN" "http://www.w3.org/Graphics/SVG/1.1/DTD/svg11.dtd" >
<svg xmlns="http://www.w3.org/2000/svg" xmlns:xlink="http://www.w3.org/1999/xlink" version="1.1" viewBox="-10 0 1069 1024">
   <path fill="currentColor"
d="M1016 393h-983q-14 0 -23 9t-10 24v197q0 14 9 23t24 10t23 -9t10 -24v-164h262v164q2 12 11 19t21 8t22 -7t11 -20v-164h262v164q0 14 9 23t24 10t23 -9t10 -24v-164h262v164q0 14 9 23t24 10t23 -9t10 -24v-197q0 -14 -9 -23t-24 -10z" />
</svg>
