<?xml version="1.0" standalone="no"?>
<!DOCTYPE svg PUBLIC "-//W3C//DTD SVG 1.1//EN" "http://www.w3.org/Graphics/SVG/1.1/DTD/svg11.dtd" >
<svg xmlns="http://www.w3.org/2000/svg" xmlns:xlink="http://www.w3.org/1999/xlink" version="1.1" viewBox="-10 0 1069 1024">
   <path fill="currentColor"
d="M1016 262h-983q-14 0 -23 9t-10 24v197q0 14 9 23t24 10t23 -9t10 -24v-164h262v164q2 12 11 19t21 8t22 -7t11 -20v-164h262v164q0 14 9 23t24 10t23 -9t10 -24v-164h262v164q0 14 9 23t24 10t23 -9t10 -24v-197q0 -14 -9 -23t-24 -10zM623 655q-14 0 -23 9t-10 24v66
q2 12 11 19t21 8t22 -7t11 -20v-66q0 -13 -9 -23t-23 -10zM819 655q-14 0 -23 9t-10 24v66q0 14 9 23t24 10t23 -9t10 -24v-66q0 -14 -9 -23t-24 -10zM1016 655q-14 0 -23 9t-10 24v66q0 14 9 23t24 10t23 -9t10 -24v-66q0 -14 -9 -23t-24 -10zM33 655q-14 0 -23 9t-10 24
v66q0 14 9 23t24 10t23 -9t10 -24v-66q0 -14 -9 -23t-24 -10zM229 655q-13 0 -22 10t-10 23v66q2 12 11 19t21 8t22 -7t11 -20v-66q0 -14 -9 -23t-24 -10zM426 655q-14 0 -23 9t-10 24v66q0 14 9 23t24 10t23 -9t10 -24v-66q0 -14 -9 -23t-24 -10z" />
</svg>
