<?xml version="1.0" standalone="no"?>
<!DOCTYPE svg PUBLIC "-//W3C//DTD SVG 1.1//EN" "http://www.w3.org/Graphics/SVG/1.1/DTD/svg11.dtd" >
<svg xmlns="http://www.w3.org/2000/svg" xmlns:xlink="http://www.w3.org/1999/xlink" version="1.1" viewBox="-10 0 1045 1024">
   <path fill="currentColor"
d="M524 328q-60 0 -109 33t-73 89t-11 113t54 101t101 54t114 -11t88 -73t33 -110q0 -53 -26 -98t-72 -71t-99 -27zM524 655q-36 0 -66 -17t-47 -48t-18 -66t17 -66t48 -47t66 -18t66 17t47 48t18 66t-17 66t-48 47t-66 18zM919 573q-23 -19 -26 -49q3 -29 26 -48l79 -65
q20 -15 25 -39t-8 -47l-73 -126q-9 -15 -24 -24t-33 -9q-13 0 -25 5l-96 36q-12 4 -25 4q-16 1 -30 -6q-24 -17 -30 -46l-16 -102q-3 -24 -21 -40t-44 -17h-147q-25 0 -43 16t-22 41l-17 101q-5 29 -29 47q-14 7 -30 6q-13 0 -25 -4l-96 -36q-12 -5 -25 -5q-18 0 -33 9
t-24 24l-73 127q-12 21 -8 45t25 40l79 65q22 19 25 48q-3 30 -25 49l-79 65q-20 15 -24 39t7 46l73 127q9 15 24 24t33 9q13 0 25 -5l96 -36q12 -4 25 -4q16 -1 30 6q24 17 29 46l17 101q3 25 21 41t44 17h147q25 0 43 -16t22 -42l16 -101q6 -29 30 -46q14 -7 30 -7
q13 0 25 5l96 36q23 9 46 1t36 -29l73 -127q12 -21 8 -45t-25 -40zM883 816l-97 -36q-23 -8 -47 -8q-34 -1 -64 15q-24 16 -40 40t-21 53l-16 103l-147 -3l-17 -101q-5 -28 -21 -52t-41 -40q-29 -15 -62 -15q-25 0 -48 8l-99 37l-71 -128l80 -65q22 -19 35 -45t14 -55
q-2 -29 -15 -55t-35 -44l-81 -67l76 -125l96 36q23 8 48 8q34 0 63 -16q24 -16 40 -40t21 -52l17 -103h147v2l17 101q5 29 21 53t40 40q30 16 63 15q25 0 48 -9l98 -37l71 129l-79 65q-22 19 -35 45t-14 55q2 29 15 55t35 44l80 66z" />
</svg>
