<?xml version="1.0" standalone="no"?>
<!DOCTYPE svg PUBLIC "-//W3C//DTD SVG 1.1//EN" "http://www.w3.org/Graphics/SVG/1.1/DTD/svg11.dtd" >
<svg xmlns="http://www.w3.org/2000/svg" xmlns:xlink="http://www.w3.org/1999/xlink" version="1.1" viewBox="-10 0 1034 1024">
   <path fill="currentColor"
d="M856 549q-11 -10 -11 -24t11 -25l82 -71q18 -16 21 -39t-8 -44l-59 -102q-12 -20 -34 -28t-44 -2l-103 36q-14 5 -27 -2t-16 -23l-20 -106q-5 -23 -23 -38t-41 -15h-119q-23 0 -41 15t-23 38l-21 106q-3 15 -16 22t-27 3l-102 -36q-22 -7 -44 1t-34 29l-60 102
q-12 21 -8 44t22 39l82 71q11 10 11 24t-11 25l-82 71q-18 15 -21 38t7 44l60 103q12 20 34 28t44 1l102 -35q14 -5 27 2t16 23l21 106q5 23 23 38t41 15h119q23 0 41 -15t23 -38l21 -106q3 -14 15 -21t27 -4l103 35q22 8 44 0t34 -29l59 -103q11 -20 8 -43t-22 -39z
M923 686l-59 103q-6 10 -17 14t-22 0l-103 -35q-28 -10 -54 5t-32 44l-20 107q-2 11 -11 18t-21 8h-119q-12 0 -21 -7t-11 -19l-21 -107q-6 -29 -32 -44t-54 -5l-102 35q-11 4 -22 0t-17 -14l-59 -103q-6 -10 -4 -21t11 -20l82 -71q22 -20 22 -49t-22 -50l-82 -71
q-9 -8 -11 -19t4 -22l59 -103q6 -10 17 -14t22 -1l102 36q28 10 54 -5t32 -45l21 -106q2 -12 11 -19t21 -8h119q12 0 21 7t11 20l20 106q6 29 32 44t54 6l103 -36q11 -4 22 0t17 15l59 103q6 10 4 21t-11 20l-82 71q-22 20 -22 49t22 50l82 71q9 8 11 19t-4 22zM524 360
q-45 0 -82 22t-60 59t-22 83t22 82t59 60t83 22t82 -22t60 -59t22 -83t-22 -82t-59 -60t-83 -22zM524 655q-36 0 -66 -17t-47 -48t-18 -66t17 -66t48 -47t66 -18t66 17t47 48t18 66t-17 66t-48 47t-66 18z" />
</svg>
