<?xml version="1.0" standalone="no"?>
<!DOCTYPE svg PUBLIC "-//W3C//DTD SVG 1.1//EN" "http://www.w3.org/Graphics/SVG/1.1/DTD/svg11.dtd" >
<svg xmlns="http://www.w3.org/2000/svg" xmlns:xlink="http://www.w3.org/1999/xlink" version="1.1" viewBox="-10 0 1034 1024">
   <path fill="currentColor"
d="M352 815q0 6 10 6t11 -6q0 -3 -3 -5t-8 -1q-10 0 -10 6zM852 66h-655q-35 0 -65 17t-48 48t-18 66v655q0 35 17 65t48 48t66 18h213v-131l-20 3q-25 3 -47 1q-31 -2 -52 -14q-26 -15 -35 -43l-6 -15q-9 -17 -18 -29q-13 -18 -27 -24l-9 -8q-9 -8 -9 -14t20 -7l13 3
q16 5 29 13q19 13 30 32q25 46 71 50q30 3 62 -12q5 -38 28 -61q-94 -11 -143 -52q-66 -56 -66 -175q0 -68 48 -123q-8 -18 -9 -41q-3 -40 13 -80q17 -5 50 7q24 9 53 25l24 15q58 -16 114 -16t115 16l24 -15q29 -16 53 -25q33 -12 50 -7q24 61 4 120v1q47 53 47 123
q0 119 -67 175q-48 41 -142 52q14 11 22 31q9 23 9 53v172h213q35 0 65 -17t48 -48t18 -66v-655q0 -35 -17 -65t-48 -48t-66 -18zM315 807q0 5 9 8q3 1 7 0t4 -3t-1 -5t-6 -4q-9 -3 -13 4zM389 813q0 2 3 3t7 1l1 -1q8 -3 8 -6t-3 -5t-8 -1t-7 3t-1 6zM287 784q-3 1 -2 4
t4 7t6 3t5 0t2 -6t-3 -8t-6 -3t-6 3zM266 756q-3 1 -3 5t2 7t5 4t6 0t2 -5t-2 -7t-5 -4t-5 0zM227 719q-3 3 3 6t10 0q0 -6 -4 -8zM248 733q-3 3 0 10l2 1q6 3 8 1q3 -5 -2 -10q-2 -2 -4 -2h-4z" />
</svg>
