<?xml version="1.0" standalone="no"?>
<!DOCTYPE svg PUBLIC "-//W3C//DTD SVG 1.1//EN" "http://www.w3.org/Graphics/SVG/1.1/DTD/svg11.dtd" >
<svg xmlns="http://www.w3.org/2000/svg" xmlns:xlink="http://www.w3.org/1999/xlink" version="1.1" viewBox="-10 0 1034 1024">
   <path fill="currentColor"
d="M524 78q-125 0 -232 63q-103 60 -164 164q-62 107 -62 232q0 98 41 188q39 86 110 150t162 96q15 3 24 -4t9 -19l-2 -84l-20 3q-25 2 -47 0q-31 -3 -52 -15q-26 -15 -35 -43l-7 -14q-9 -17 -18 -30q-14 -17 -26 -24l-9 -7q-9 -8 -9 -14t20 -5l13 2q16 4 29 13
q19 12 30 32q25 45 71 49q30 2 62 -12q5 -39 28 -62q-94 -9 -143 -50q-66 -56 -66 -175q0 -72 48 -123q-8 -18 -9 -42q-3 -40 13 -81q17 -5 50 7q24 9 53 25l24 15q50 -14 113 -14t116 14l24 -15q29 -16 53 -25q33 -12 50 -7q24 62 4 122v1q47 50 47 123q0 119 -67 175
q-49 41 -142 50q14 12 22 32q9 24 9 54v125q0 12 6 18q8 8 25 5q91 -31 162 -95t110 -151q41 -90 41 -188q0 -125 -63 -232q-60 -104 -164 -164q-107 -63 -232 -63z" />
</svg>
