<?xml version="1.0" standalone="no"?>
<!DOCTYPE svg PUBLIC "-//W3C//DTD SVG 1.1//EN" "http://www.w3.org/Graphics/SVG/1.1/DTD/svg11.dtd" >
<svg xmlns="http://www.w3.org/2000/svg" xmlns:xlink="http://www.w3.org/1999/xlink" version="1.1" viewBox="-10 0 1034 1024">
   <path fill="currentColor"
d="M836 819q-34 0 -58 24t-24 58t24 58t58 24t58 -24t24 -58t-24 -58t-58 -24zM836 950q-20 0 -34 -14t-15 -35t14 -34t35 -15t34 14t15 35t-14 34t-35 15zM229 672q0 -34 -24 -58t-58 -24t-58 24t-24 58t24 58t58 24t58 -24t24 -58zM147 721q-20 0 -34 -14t-14 -35t14 -35
t35 -14t35 14t14 35t-14 35t-36 14zM901 426q-34 0 -58 24t-24 58t24 58t58 24t58 -24t24 -58t-24 -58t-58 -24zM901 557q-20 0 -34 -14t-15 -35t14 -34t35 -15t34 14t15 35t-14 34t-35 15zM213 524q40 0 73 -20t54 -53t20 -74t-20 -73t-53 -54t-74 -20t-73 20t-54 53
t-20 74t20 73t53 54t74 20zM213 262q31 0 57 15t42 42t16 58t-15 57t-42 42t-58 16t-57 -15t-42 -42t-16 -58t15 -57t42 -42t58 -16zM442 262q34 0 58 -24t24 -58t-24 -58t-58 -24t-58 24t-24 58t24 58t58 24zM442 131q20 0 34 14t15 35t-14 34t-35 15t-34 -14t-15 -35
t14 -34t35 -15zM737 360q40 0 73 -20t54 -53t20 -74t-20 -73t-53 -54t-74 -20t-73 20t-54 53t-20 74t20 73t53 54t74 20zM737 98q35 0 64 19t43 51t7 66t-31 60t-59 32t-66 -6t-52 -43t-20 -64q0 -31 15 -57t42 -42t57 -16zM279 819q-25 0 -46 13t-30 37t-6 47t22 42t42 23
t48 -4t37 -30t14 -46q0 -34 -23 -58t-58 -24zM279 950q-20 0 -34 -14t-15 -35t14 -34t35 -15t34 14t15 35t-14 34t-35 15zM557 426q-62 0 -114 31t-84 83t-31 115t31 114t83 84t115 31t114 -31t84 -83t31 -115t-31 -114t-83 -84t-115 -31zM557 852q-54 0 -99 -26t-71 -72
t-27 -99t26 -99t72 -71t99 -27t99 26t71 72t27 99t-26 99t-72 71t-99 27z" />
</svg>
