<?xml version="1.0" standalone="no"?>
<!DOCTYPE svg PUBLIC "-//W3C//DTD SVG 1.1//EN" "http://www.w3.org/Graphics/SVG/1.1/DTD/svg11.dtd" >
<svg xmlns="http://www.w3.org/2000/svg" xmlns:xlink="http://www.w3.org/1999/xlink" version="1.1" viewBox="-10 0 1072 1024">
   <path fill="currentColor"
d="M852 557q0 -14 -9 -23t-24 -10h-295v-295q-2 -12 -11 -19t-21 -8t-22 7t-11 20v328q0 14 9 23t24 10h327q14 0 23 -9t10 -24zM524 0q-107 0 -204 41q-94 40 -166 112t-113 167q-41 97 -41 204q0 115 49 218t139 176h-155q-12 2 -19 11t-8 21t7 22t20 11h262q14 0 23 -9
t10 -24v-262q0 -14 -9 -23t-24 -10t-23 9t-10 24v204q-92 -62 -144 -159t-52 -209q0 -123 61 -229q59 -103 161 -164q104 -63 227 -66t230 56q104 57 168 157q65 103 70 226t-50 231q-55 105 -154 171q-101 68 -224 76q-12 2 -19 11t-8 22t9 21t20 11h2q139 -9 255 -85
q113 -74 176 -193q65 -123 61 -262t-78 -258q-71 -115 -189 -181q-120 -69 -260 -68z" />
</svg>
