<?xml version="1.0" standalone="no"?>
<!DOCTYPE svg PUBLIC "-//W3C//DTD SVG 1.1//EN" "http://www.w3.org/Graphics/SVG/1.1/DTD/svg11.dtd" >
<svg xmlns="http://www.w3.org/2000/svg" xmlns:xlink="http://www.w3.org/1999/xlink" version="1.1" viewBox="-10 0 1034 1024">
   <path fill="currentColor"
d="M773 313q22 -30 34 -65t12 -74v-43q0 -27 -19 -46t-46 -19h-459q-27 0 -46 19t-20 46v43q0 37 12 73t35 66l124 165q15 21 15 46t-15 46l-124 165q-23 31 -35 67t-12 73v43q0 27 19 46t47 19h459q27 0 46 -19t19 -46v-43q0 -38 -12 -74t-34 -66l-124 -165
q-16 -20 -16 -45t16 -47zM623 590l123 165q40 54 40 120v43q0 13 -9 22t-23 10h-459q-14 0 -23 -9t-10 -23v-43q0 -32 10 -63t30 -57l124 -165q22 -29 22 -65t-22 -66l-124 -165q-40 -54 -40 -120v-43q0 -14 10 -23t23 -10h459q13 0 22 9t10 24v43q0 66 -40 120l-123 165
q-22 29 -22 65t22 66zM524 568l170 226q27 37 27 81v10h-393v-10q0 -47 27 -81zM664 295l-140 186l-139 -186h279z" />
</svg>
