<?xml version="1.0" standalone="no"?>
<!DOCTYPE svg PUBLIC "-//W3C//DTD SVG 1.1//EN" "http://www.w3.org/Graphics/SVG/1.1/DTD/svg11.dtd" >
<svg xmlns="http://www.w3.org/2000/svg" xmlns:xlink="http://www.w3.org/1999/xlink" version="1.1" viewBox="-10 0 1069 1024">
   <path fill="currentColor"
d="M524 0q-107 0 -204 42q-94 39 -166 112t-112 167q-41 97 -41 203t41 204q40 94 112 166t167 113q98 41 204 41t204 -41q94 -40 166 -112t113 -167q41 -97 41 -204t-42 -204q-39 -94 -112 -166t-167 -113q-97 -41 -204 -41zM590 721q-3 25 -22 41t-43 17t-44 -16t-22 -42
v-197q3 -25 22 -41t43 -17t44 16t22 42v197zM524 393q-20 0 -36 -11t-25 -30t-4 -38t18 -34t34 -18t38 4t30 25t11 37q0 27 -19 46t-47 19z" />
</svg>
