<?xml version="1.0" standalone="no"?>
<!DOCTYPE svg PUBLIC "-//W3C//DTD SVG 1.1//EN" "http://www.w3.org/Graphics/SVG/1.1/DTD/svg11.dtd" >
<svg xmlns="http://www.w3.org/2000/svg" xmlns:xlink="http://www.w3.org/1999/xlink" version="1.1" viewBox="-10 0 1069 1024">
   <path fill="currentColor"
d="M983 131h-917q-27 0 -46 19t-20 47v655q0 27 19 46t47 20h917q27 0 46 -19t20 -47v-655q0 -27 -19 -46t-47 -20zM197 852h-131v-131h131v131zM197 655h-131v-131h131v131zM197 459h-131v-131h131v131zM786 852h-524v-524h131v196h393v328zM983 852h-131v-131h131v131z
M983 655h-131v-131h131v131zM983 459h-524v-131h524v131zM983 262h-917v-65h917v65z" />
</svg>
