<?xml version="1.0" standalone="no"?>
<!DOCTYPE svg PUBLIC "-//W3C//DTD SVG 1.1//EN" "http://www.w3.org/Graphics/SVG/1.1/DTD/svg11.dtd" >
<svg xmlns="http://www.w3.org/2000/svg" xmlns:xlink="http://www.w3.org/1999/xlink" version="1.1" viewBox="-10 0 1034 1024">
   <path fill="currentColor"
d="M967 885h-869v-224l175 -186q25 17 56 17t56 -19l158 159q-18 25 -19 56q0 41 29 69t69 29t70 -28t29 -70q0 -34 -22 -61l134 -151q24 15 52 14q40 0 68 -29t29 -69t-29 -69t-69 -29t-69 29t-29 69q0 35 23 62l-134 151q-25 -16 -55 -15t-54 18l-158 -158q18 -26 18 -57
q0 -41 -29 -69t-69 -29t-70 28t-29 70q0 33 21 59l-152 161v-466q0 -7 -4 -11t-12 -5t-11 4t-5 12v754q0 7 4 12t12 5h885q7 0 11 -5t5 -11t-4 -12t-12 -5zM885 327q20 0 36 11t25 30t4 38t-18 34t-34 18t-38 -4t-30 -25t-11 -37q0 -27 19 -46t47 -19zM623 623q20 0 36 11
t25 30t4 38t-18 34t-34 18t-38 -4t-30 -25t-11 -37q0 -27 19 -46t47 -19zM328 328q20 0 36 11t25 30t4 38t-18 34t-34 18t-38 -4t-30 -25t-11 -37q0 -27 19 -46t47 -19z" />
</svg>
