<?xml version="1.0" standalone="no"?>
<!DOCTYPE svg PUBLIC "-//W3C//DTD SVG 1.1//EN" "http://www.w3.org/Graphics/SVG/1.1/DTD/svg11.dtd" >
<svg xmlns="http://www.w3.org/2000/svg" xmlns:xlink="http://www.w3.org/1999/xlink" version="1.1" viewBox="-10 0 1034 1024">
   <path fill="currentColor"
d="M918 557v-337q21 -12 28 -35t-1 -46t-32 -33t-45 -5t-37 27t-11 44t22 41t43 16v337q-15 9 -24 24h-358q-26 0 -50 -10t-42 -29l-108 -107q18 -15 22 -38t-7 -44t-34 -29t-45 0t-34 28t-8 44t23 39t42 15q5 0 9 -1l117 117q23 23 53 35t62 13h132q-10 7 -18 15l-209 208
q-18 19 -42 29t-51 10h-118q1 -25 -15 -44t-40 -23t-46 9t-28 37t3 46t32 33t47 3t37 -28h128q33 0 63 -12t53 -36l209 -209q18 -18 42 -28t51 -10h119q0 27 19 46t47 20t46 -19t20 -47t-19 -46t-47 -20zM262 426q-14 0 -23 -9t-10 -24t9 -23t24 -10t23 9t10 24t-9 23
t-24 10zM131 918q-14 0 -23 -9t-10 -24t9 -23t24 -10t23 9t10 24t-9 23t-24 10zM852 164q0 -14 9 -23t24 -10t23 9t10 24t-9 23t-24 10t-23 -9t-10 -24zM918 655q-10 0 -18 -5t-13 -15t-2 -19t9 -17t17 -9t19 2t14 12t6 19q0 13 -9 22t-23 10z" />
</svg>
