<?xml version="1.0" standalone="no"?>
<!DOCTYPE svg PUBLIC "-//W3C//DTD SVG 1.1//EN" "http://www.w3.org/Graphics/SVG/1.1/DTD/svg11.dtd" >
<svg xmlns="http://www.w3.org/2000/svg" xmlns:xlink="http://www.w3.org/1999/xlink" version="1.1" viewBox="-10 0 1070 1024">
   <path fill="currentColor"
d="M819 590h-259q-54 0 -93 -39l-198 -197q-11 -8 -24 -7t-22 13q-7 9 -7 20t7 20l197 198q28 28 64 42t76 15h49l-223 224q-41 39 -94 39h-63q-13 0 -22 9t-10 23t9 23t23 10h63q40 0 76 -15t63 -43l232 -231q19 -19 43 -29t50 -10h63q14 0 23 -9t10 -23t-9 -23t-24 -10z
M918 229v263q0 13 9 22t23 10t23 -9t10 -23v-263q0 -14 -9 -23t-24 -9t-23 9t-9 23zM918 0q-28 0 -47 19t-19 47t19 46t47 19t46 -19t19 -46t-19 -46t-46 -20zM983 590q-27 0 -46 19t-19 46t19 46t46 20t46 -19t20 -47t-19 -46t-47 -19zM131 197q-27 0 -46 19t-19 46t19 46
t46 20t46 -19t20 -47t-19 -46t-47 -19zM66 918q-28 0 -47 19t-19 46t19 46t46 20t47 -19t19 -47t-19 -46t-46 -19z" />
</svg>
