<?xml version="1.0" standalone="no"?>
<!DOCTYPE svg PUBLIC "-//W3C//DTD SVG 1.1//EN" "http://www.w3.org/Graphics/SVG/1.1/DTD/svg11.dtd" >
<svg xmlns="http://www.w3.org/2000/svg" xmlns:xlink="http://www.w3.org/1999/xlink" version="1.1" viewBox="-10 0 1034 1024">
   <path fill="currentColor"
d="M149 191l48 -32v270q0 14 9 23t24 10t23 -9t10 -24v-331q0 -9 -5 -16t-12 -12t-17 -5t-17 6l-99 65q-8 4 -13 12t-5 18t6 17t13 12t18 3t17 -7zM213 864l1 -1q35 -20 52 -33q29 -22 44 -45q18 -29 18 -64t-17 -66t-48 -47t-66 -18t-66 17t-47 48t-18 66q2 12 11 19t21 8
t22 -7t11 -20q3 -25 22 -41t43 -17t44 16t22 42q0 25 -22 46q-16 15 -60 40q-53 30 -76 54q-38 39 -38 89q0 13 9 23t23 10h197q12 -2 19 -11t8 -21t-7 -22t-20 -11h-153q30 -34 71 -54zM492 197h458q14 0 23 -9t10 -24t-9 -23t-24 -10h-458q-14 0 -23 9t-10 24t9 23t24 10z
M492 393h327q12 -2 19 -11t8 -21t-7 -22t-20 -11h-327q-12 2 -19 11t-8 21t7 22t20 11zM950 655h-458q-14 0 -23 9t-10 24t9 23t24 10h458q14 0 23 -9t10 -24t-9 -23t-24 -10zM819 852h-327q-14 0 -23 9t-10 24t9 23t24 10h327q14 0 23 -9t10 -24t-9 -23t-24 -10z" />
</svg>
