<?xml version="1.0" standalone="no"?>
<!DOCTYPE svg PUBLIC "-//W3C//DTD SVG 1.1//EN" "http://www.w3.org/Graphics/SVG/1.1/DTD/svg11.dtd" >
<svg xmlns="http://www.w3.org/2000/svg" xmlns:xlink="http://www.w3.org/1999/xlink" version="1.1" viewBox="-11 0 1071 1024">
   <path fill="currentColor"
d="M426 197h590q14 0 23 -9t10 -24t-9 -23t-24 -10h-590q-14 0 -23 9t-10 24t9 23t24 10zM1016 459h-590q-12 2 -19 11t-8 21t7 22t20 11h590q12 -2 19 -11t8 -21t-7 -22t-20 -11zM1016 786h-590q-14 0 -23 9t-10 24t9 23t24 10h590q14 0 23 -9t10 -24t-9 -23t-24 -10z
M131 66q-36 0 -66 17t-47 48t-18 66t17 66t48 47t66 18t66 -17t47 -48t18 -66t-17 -66t-48 -47t-66 -18zM131 262q-20 0 -36 -11t-25 -30t-4 -38t18 -34t34 -18t38 4t30 25t11 37q0 27 -19 46t-47 19zM131 393q-36 0 -66 17t-47 48t-18 66t17 66t48 47t66 18t66 -17t47 -48
t18 -66t-17 -66t-48 -47t-66 -18zM131 590q-27 0 -46 -19t-20 -47t19 -46t47 -20t46 19t20 47t-19 46t-47 20zM131 721q-36 0 -66 17t-47 48t-18 66t17 66t48 47t66 18t66 -17t47 -48t18 -66t-17 -66t-48 -47t-66 -18zM131 918q-27 0 -46 -19t-20 -47t19 -46t47 -20t46 19
t20 47t-19 46t-47 20z" />
</svg>
