<?xml version="1.0" standalone="no"?>
<!DOCTYPE svg PUBLIC "-//W3C//DTD SVG 1.1//EN" "http://www.w3.org/Graphics/SVG/1.1/DTD/svg11.dtd" >
<svg xmlns="http://www.w3.org/2000/svg" xmlns:xlink="http://www.w3.org/1999/xlink" version="1.1" viewBox="-10 0 1034 1024">
   <path fill="currentColor"
d="M410 229h557q7 0 11 -4t5 -12t-4 -11t-12 -5h-557q-7 0 -11 4t-5 12t4 11t12 5zM180 98q-31 0 -57 15t-42 42t-16 58t15 57t42 42t58 16t57 -15t42 -42t16 -58t-15 -57t-42 -42t-58 -16zM180 295q-34 0 -58 -24t-24 -58t24 -58t58 -24t58 24t24 58t-24 58t-58 24z
M967 852h-557q-7 0 -11 5t-5 11t4 12t12 5h557q7 0 11 -5t5 -11t-4 -12t-12 -5zM180 754q-35 0 -64 19t-42 52t-7 67t32 58t59 32t67 -7t51 -43t19 -64q0 -31 -15 -57t-42 -41t-58 -16zM180 950q-34 0 -58 -24t-24 -58t24 -58t58 -24t58 24t24 58t-24 58t-58 24zM967 524
h-557q-7 0 -11 5t-5 11t4 12t12 5h557q7 0 11 -5t5 -11t-4 -12t-12 -5zM180 426q-31 0 -57 15t-42 42t-16 58t15 57t42 42t58 16t57 -15t42 -42t16 -58t-15 -57t-42 -42t-58 -16zM180 623q-34 0 -58 -24t-24 -58t24 -58t58 -24t58 24t24 58t-24 58t-58 24z" />
</svg>
