<?xml version="1.0" standalone="no"?>
<!DOCTYPE svg PUBLIC "-//W3C//DTD SVG 1.1//EN" "http://www.w3.org/Graphics/SVG/1.1/DTD/svg11.dtd" >
<svg xmlns="http://www.w3.org/2000/svg" xmlns:xlink="http://www.w3.org/1999/xlink" version="1.1" viewBox="-10 0 1069 1024">
   <path fill="currentColor"
d="M969 818l-65 -38q22 -26 34 -58t12 -67q-4 -51 -31 -93t-71 -66t-94 -24t-95 24t-71 66t-31 93q0 34 12 66t34 59l-64 39q-37 22 -58 59t-22 81v57q0 14 9 23t24 10h524q14 0 23 -9t10 -24v-57q0 -43 -21 -81t-59 -60zM754 524q36 0 66 17t47 48t18 66t-17 66t-48 47
t-66 18t-66 -17t-47 -48t-18 -66t17 -66t48 -47t66 -18zM983 983h-459v-24q0 -26 13 -48t35 -36l83 -50q45 28 98 28t99 -28l83 50q22 13 35 35t13 49v24zM505 762l8 -5q-7 -18 -12 -36h-370q-27 0 -46 -19t-19 -47v-262q0 -27 19 -46t46 -19h393q27 0 46 19t20 46v59
q30 -24 65 -39v-20q0 -36 -17 -66t-48 -47t-66 -18v-65q-4 -51 -31 -93t-71 -66t-94 -24t-95 24t-71 66t-31 93v65q-36 0 -66 17t-47 48t-18 66v262q0 36 17 66t48 47t66 18h341q15 -14 33 -24zM197 197q0 -36 17 -66t48 -47t66 -18t66 17t47 48t18 66v65h-262v-65z" />
</svg>
