<?xml version="1.0" standalone="no"?>
<!DOCTYPE svg PUBLIC "-//W3C//DTD SVG 1.1//EN" "http://www.w3.org/Graphics/SVG/1.1/DTD/svg11.dtd" >
<svg xmlns="http://www.w3.org/2000/svg" xmlns:xlink="http://www.w3.org/1999/xlink" version="1.1" viewBox="-10 0 1034 1024">
   <path fill="currentColor"
d="M918 131h-787q-27 0 -46 19t-19 47v655q0 27 19 46t46 20h787q27 0 46 -19t19 -47v-655q0 -27 -19 -46t-46 -20zM131 164h197v164h-230v-131q0 -14 9 -23t24 -10zM328 721h-230v-164h230v164zM98 852v-98h230v131h-197q-14 0 -23 -9t-10 -24zM950 852q0 13 -9 23t-23 10
h-558v-344q0 -7 -4 -12t-12 -5h-246v-164h246q7 0 11 -4t5 -12v-180h558q13 0 22 10t10 23v655z" />
</svg>
