<?xml version="1.0" standalone="no"?>
<!DOCTYPE svg PUBLIC "-//W3C//DTD SVG 1.1//EN" "http://www.w3.org/Graphics/SVG/1.1/DTD/svg11.dtd" >
<svg xmlns="http://www.w3.org/2000/svg" xmlns:xlink="http://www.w3.org/1999/xlink" version="1.1" viewBox="-10 0 1034 1024">
   <path fill="currentColor"
d="M371 786q-71 0 -131 -35t-95 -94q-36 -61 -36 -132t35 -131t95 -96q61 -36 132 -36h307q71 0 132 36q60 35 95 95t35 132t-35 131t-95 95t-132 35h-307zM670 694q46 0 85 -23t62 -62t23 -85t-23 -85t-62 -62t-85 -23h-291q-46 0 -85 23t-62 62t-23 85t23 85t62 62t85 23
h291z" />
</svg>
