<?xml version="1.0" standalone="no"?>
<!DOCTYPE svg PUBLIC "-//W3C//DTD SVG 1.1//EN" "http://www.w3.org/Graphics/SVG/1.1/DTD/svg11.dtd" >
<svg xmlns="http://www.w3.org/2000/svg" xmlns:xlink="http://www.w3.org/1999/xlink" version="1.1" viewBox="-10 0 1034 1024">
   <path fill="currentColor"
d="M958 98l-426 -98h-16l-426 98q-12 3 -19 14t-5 25l131 754q2 12 18 24l295 132q6 2 14 2t13 -2l294 -132q18 -10 21 -24l131 -754q2 -14 -5 -25t-20 -14zM791 862l-267 117l-266 -117l-123 -706l389 -90l389 90zM328 360v263q0 47 63 74q55 24 133 24t134 -24
q63 -27 63 -74v-263q0 -47 -63 -74q-56 -24 -134 -24t-133 24q-63 27 -63 74zM655 621q-2 6 -18 13q-17 9 -43 14q-32 7 -69 7t-71 -7q-25 -5 -43 -13q-16 -7 -18 -12v-56q57 23 131 23t131 -23v54zM655 502q-58 22 -131 22t-131 -22v-66q57 23 131 23t131 -23v66zM524 393
q-36 0 -68 -6q-25 -6 -44 -14q-15 -6 -19 -11q4 -6 19 -13q18 -9 44 -14q31 -7 68 -7q52 0 91 12q29 9 40 20q-10 11 -40 21q-39 12 -91 12z" />
</svg>
