<?xml version="1.0" standalone="no"?>
<!DOCTYPE svg PUBLIC "-//W3C//DTD SVG 1.1//EN" "http://www.w3.org/Graphics/SVG/1.1/DTD/svg11.dtd" >
<svg xmlns="http://www.w3.org/2000/svg" xmlns:xlink="http://www.w3.org/1999/xlink" version="1.1" viewBox="-10 0 1034 1024">
   <path fill="currentColor"
d="M88 982l204 -87q35 -15 62 -42l596 -596q24 -24 30 -57t-6 -64t-41 -51t-62 -19v0q-22 0 -42 8t-37 24l-597 596q-27 27 -41 62l-87 204q-2 5 -1 9t4 9t8 5t10 -1zM124 910l52 -121l84 84l-122 52zM331 830q-17 17 -39 28l-102 -101q12 -22 29 -39l516 -517l112 112z
M927 234l-56 56l-113 -112l57 -57q23 -23 56 -23v0q24 0 44 13t30 35t5 47t-23 41z" />
</svg>
