<?xml version="1.0" standalone="no"?>
<!DOCTYPE svg PUBLIC "-//W3C//DTD SVG 1.1//EN" "http://www.w3.org/Graphics/SVG/1.1/DTD/svg11.dtd" >
<svg xmlns="http://www.w3.org/2000/svg" xmlns:xlink="http://www.w3.org/1999/xlink" version="1.1" viewBox="-10 0 1070 1024">
   <path fill="currentColor"
d="M1012 37q-18 -18 -41 -27t-48 -10t-48 9t-41 28l-731 732q-33 32 -48 76l-53 160q-3 9 -1 18t8 15t16 9t18 0l160 -54q44 -14 77 -47l732 -732q18 -18 27 -41t10 -47t-9 -48t-28 -41zM233 900q-22 21 -51 31l-77 26l-14 -14l26 -77q10 -29 32 -51l605 -605l84 85z
M966 168l-81 81l-85 -85l81 -81q18 -18 42 -18t43 18t18 42t-18 43z" />
</svg>
