<?xml version="1.0" standalone="no"?>
<!DOCTYPE svg PUBLIC "-//W3C//DTD SVG 1.1//EN" "http://www.w3.org/Graphics/SVG/1.1/DTD/svg11.dtd" >
<svg xmlns="http://www.w3.org/2000/svg" xmlns:xlink="http://www.w3.org/1999/xlink" version="1.1" viewBox="-10 0 1069 1024">
   <path fill="currentColor"
d="M1016 197h-245l-117 -182q-10 -15 -27 -15h-201q-17 0 -27 15l-122 182h-113q-17 0 -27 14l-131 197q-6 8 -6 18v262q0 11 7 20t18 12l243 61l61 243q3 11 11 18t20 7h328q11 0 20 -7l262 -197q8 -6 11 -16t0 -20l-60 -182l122 -183q6 -8 6 -18v-197q0 -13 -10 -22
t-23 -10zM983 416l-126 188q-9 14 -3 29l58 174l-235 176h-291l-59 -237q-2 -9 -8 -15t-16 -9l-237 -59v-227l115 -174h114q17 0 27 -14l122 -182h165l117 181q10 15 28 15h229v154z" />
</svg>
