<?xml version="1.0" standalone="no"?>
<!DOCTYPE svg PUBLIC "-//W3C//DTD SVG 1.1//EN" "http://www.w3.org/Graphics/SVG/1.1/DTD/svg11.dtd" >
<svg xmlns="http://www.w3.org/2000/svg" xmlns:xlink="http://www.w3.org/1999/xlink" version="1.1" viewBox="-10 0 1069 1024">
   <path fill="currentColor"
d="M524 0q-106 0 -204 41q-94 40 -166 112t-113 167q-41 98 -41 204t41 204q40 94 112 167t167 113q98 41 204 41t204 -41q94 -40 167 -112t113 -168q41 -97 41 -204t-42 -204q-40 -94 -112 -166t-167 -113q-97 -41 -204 -41zM524 983q-124 0 -231 -63q-104 -60 -164 -164
q-63 -107 -63 -232t63 -232q60 -103 164 -164q106 -62 230 -62t232 63q104 60 165 164q63 107 63 231t-63 232q-60 104 -164 164q-107 63 -232 63zM564 754q0 13 -9 22t-24 10t-23 -9t-10 -23t10 -23t23 -10t23 9t10 24zM531 262q-45 0 -82 22t-60 59t-22 83q0 13 10 23
t23 10t23 -10t10 -23q0 -41 29 -69t69 -29t69 28t29 70q0 32 -18 57t-48 36h-1q-29 11 -46 36t-18 56v12q0 13 9 22t24 10t23 -9t10 -23v-12q0 -9 5 -17t14 -13v0q50 -17 81 -59t31 -96q0 -45 -22 -82t-59 -60t-83 -22v0v0z" />
</svg>
