<?xml version="1.0" standalone="no"?>
<!DOCTYPE svg PUBLIC "-//W3C//DTD SVG 1.1//EN" "http://www.w3.org/Graphics/SVG/1.1/DTD/svg11.dtd" >
<svg xmlns="http://www.w3.org/2000/svg" xmlns:xlink="http://www.w3.org/1999/xlink" version="1.1" viewBox="-10 0 1034 1024">
   <path fill="currentColor"
d="M524 66q-124 0 -231 63q-104 60 -164 164q-63 107 -63 231t63 231q60 104 164 165q107 63 231 63t231 -63q104 -60 165 -164q63 -107 63 -231t-63 -232q-60 -104 -164 -164q-107 -63 -232 -63zM524 950q-116 0 -215 -58q-96 -56 -153 -153q-58 -99 -58 -215t58 -215
q57 -97 153 -153q99 -58 215 -58t215 58q96 57 153 153q58 99 58 215t-58 215q-57 96 -153 153q-99 58 -215 58zM549 762q0 10 -7 17t-18 7t-17 -7t-7 -17t7 -17t17 -8t17 7t8 18zM524 262h-6q-41 0 -76 19t-56 54t-25 74v1q0 7 4 11t12 5v0v0q7 0 11 -4t6 -12v0
q4 -49 39 -82t85 -33h7h-1h6q33 0 61 15t45 43t19 60v1q-1 36 -22 65t-54 43h-1q-30 11 -49 38t-21 60v52q0 7 4 11t12 5t12 -4t5 -12v-52q1 -23 14 -41t35 -27h1q43 -17 69 -54t28 -84v0q-1 -42 -23 -77t-57 -55t-78 -20h-6z" />
</svg>
