<?xml version="1.0" standalone="no"?>
<!DOCTYPE svg PUBLIC "-//W3C//DTD SVG 1.1//EN" "http://www.w3.org/Graphics/SVG/1.1/DTD/svg11.dtd" >
<svg xmlns="http://www.w3.org/2000/svg" xmlns:xlink="http://www.w3.org/1999/xlink" version="1.1" viewBox="-10 0 1034 1024">
   <path fill="currentColor"
d="M901 624v-200q33 -6 55 -30t26 -58t-15 -62t-50 -39t-63 -1t-51 39l-184 -84q4 -12 4 -25q0 -41 -29 -70t-69 -29t-70 29t-29 70q0 13 4 25l-185 84q-18 -27 -48 -37t-62 -2t-50 36t-19 58t19 58t50 35t61 0t49 -38l185 84q-6 20 -3 40t15 38t28 28t38 15v200
q-31 5 -53 26t-30 51t5 60t38 46t57 16t57 -19t35 -48t2 -60l184 -84q19 27 50 37t63 0t50 -39t16 -61t-25 -58t-56 -31zM164 393q-20 0 -37 -11t-25 -29t-4 -38t18 -34t34 -19t38 4t30 25t11 37q0 27 -19 46t-46 19zM885 262q27 0 46 19t20 47t-19 46t-47 20t-46 -19
t-20 -47t19 -46t47 -20zM524 98q20 0 37 11t25 29t4 38t-18 34t-33 19t-39 -4t-30 -24t-11 -37q0 -27 19 -46t46 -20zM459 492q0 -20 11 -37t29 -25t38 -4t34 18t19 34t-4 38t-25 30t-37 11q-27 0 -46 -19t-19 -46zM524 950q-20 0 -36 -11t-25 -30t-4 -38t18 -34t34 -18
t38 4t30 25t11 37q0 27 -19 46t-47 19zM786 721q0 13 4 25l-184 84q-11 -17 -28 -28t-37 -14v-200q33 -6 55 -30t26 -58t-15 -62t-50 -39t-63 -1t-51 39l-185 -84q7 -25 0 -50l185 -84q14 20 35 32t46 12t46 -12t36 -32l184 84q-4 12 -4 25q0 36 23 63t59 33v200
q-36 6 -59 33t-23 64zM885 786q-20 0 -37 -11t-25 -29t-4 -38t18 -34t34 -19t38 4t30 25t11 37q0 27 -19 46t-46 19z" />
</svg>
