<?xml version="1.0" standalone="no"?>
<!DOCTYPE svg PUBLIC "-//W3C//DTD SVG 1.1//EN" "http://www.w3.org/Graphics/SVG/1.1/DTD/svg11.dtd" >
<svg xmlns="http://www.w3.org/2000/svg" xmlns:xlink="http://www.w3.org/1999/xlink" version="1.1" viewBox="-10 0 1034 1024">
   <path fill="currentColor"
d="M281 594l350 190q9 5 17 0l187 -125l122 91q8 6 17 2t9 -15v-194q0 -7 -4 -13l-130 -195q-4 -6 -11 -7t-14 4l-118 119l-153 -183q-5 -6 -12 -6t-12 5l-117 117l-120 -180q-5 -7 -13 -7t-14 7l-167 250v-307q0 -7 -4 -11t-12 -5t-11 4t-5 12v754q0 7 4 12t12 5h885
q7 0 11 -5t5 -11t-4 -12t-12 -5h-869v-108zM98 513l181 -271l117 177q4 6 12 6t13 -4l119 -118l152 183q5 6 12 6t12 -5l117 -117l117 176v159l-105 -79q-4 -3 -9 -3t-10 2l-188 126l-352 -192q-5 -3 -10 -2t-9 5l-169 169v-218z" />
</svg>
