<?xml version="1.0" standalone="no"?>
<!DOCTYPE svg PUBLIC "-//W3C//DTD SVG 1.1//EN" "http://www.w3.org/Graphics/SVG/1.1/DTD/svg11.dtd" >
<svg xmlns="http://www.w3.org/2000/svg" xmlns:xlink="http://www.w3.org/1999/xlink" version="1.1" viewBox="-10 0 1034 1024">
   <path fill="currentColor"
d="M609 181l61 105l-74 42q-12 8 -12 22t13 21l173 96q12 6 23 0t13 -20l14 -204q1 -15 -11 -22t-26 -1l-85 49l-60 -105q-18 -30 -48 -48t-65 -18t-66 18t-48 48l-76 131q-3 6 -2 12t8 10q4 2 8 2q10 1 15 -8l75 -130q13 -23 36 -36t49 -13t49 13t36 36zM786 256l-12 176
l-149 -83zM940 688l-75 -130q-4 -6 -10 -7t-12 1t-8 10t2 13l75 130q13 23 13 49t-13 49t-36 36t-49 13h-122v-85q-1 -14 -13 -21t-24 0l-170 102q-11 7 -11 20t10 21l170 114q12 7 24 1t14 -21v-98h122q35 0 65 -17t48 -48t18 -66t-18 -66zM526 869l147 -88v186zM372 852
h-150q-26 0 -49 -13t-36 -36t-13 -49t13 -49l60 -106l74 43q13 7 25 0t12 -22l-3 -198q-1 -13 -12 -20t-24 -1l-183 89q-13 6 -14 21t12 23l85 49l-61 105q-18 30 -18 65t17 66t49 48t66 18h150q7 0 12 -5t5 -11t-5 -12t-12 -5zM114 513l158 -77l3 170z" />
</svg>
