<?xml version="1.0" standalone="no"?>
<!DOCTYPE svg PUBLIC "-//W3C//DTD SVG 1.1//EN" "http://www.w3.org/Graphics/SVG/1.1/DTD/svg11.dtd" >
<svg xmlns="http://www.w3.org/2000/svg" xmlns:xlink="http://www.w3.org/1999/xlink" version="1.1" viewBox="-10 0 1069 1024">
   <path fill="currentColor"
d="M197 492q0 50 27 91t74 61t95 9t84 -45t45 -85t-9 -94t-61 -73t-92 -28q-44 0 -81 22t-60 60t-22 82zM459 492q0 40 -29 68t-69 29t-69 -28t-29 -69t28 -70t69 -29q20 0 38 7t32 22t21 32t8 38zM1012 364q-25 -23 -57 -31t-64 -1t-57 32l-404 405q-33 33 -48 77l-53 160
q-5 16 4 29t27 14q6 0 11 -2l160 -53q44 -15 77 -48l404 -404q24 -24 32 -56t1 -65t-33 -57zM561 900q-22 21 -51 31l-98 33l33 -98q10 -29 31 -51l339 -339l85 86zM966 495l-20 20l-85 -85l19 -20q18 -18 43 -18t42 17t18 43t-17 43zM384 722l1 -1h-287q-13 0 -22 -10
t-10 -23v-590q0 -13 9 -22t23 -10h37v132q0 27 19 46t46 19h324q27 0 46 -19t20 -46v-131q22 3 38 18l74 73q19 19 19 46v181l65 -66v-115q0 -26 -10 -50t-28 -42l-73 -74q-19 -18 -43 -28t-50 -10h-484q-41 0 -69 28t-29 70v590q0 41 28 69t70 29h240q18 -36 46 -64z
M200 66h324v132h-324v-132z" />
</svg>
