<?xml version="1.0" standalone="no"?>
<!DOCTYPE svg PUBLIC "-//W3C//DTD SVG 1.1//EN" "http://www.w3.org/Graphics/SVG/1.1/DTD/svg11.dtd" >
<svg xmlns="http://www.w3.org/2000/svg" xmlns:xlink="http://www.w3.org/1999/xlink" version="1.1" viewBox="-10 0 1070 1024">
   <path fill="currentColor"
d="M1016 852h-950v-754q0 -14 -9 -23t-24 -10t-23 9t-10 24v787q0 14 9 23t24 10h983q14 0 23 -9t10 -24t-9 -23t-24 -10zM295 721q41 0 69 -28t29 -70t-28 -69t-70 -29t-69 28t-29 70t28 69t70 29zM295 590q14 0 23 9t10 24t-9 23t-24 10t-23 -9t-10 -24t9 -23t24 -10z
M623 590q40 0 68 -29t29 -69t-29 -69t-69 -29t-69 29t-29 69q0 20 7 38t22 31t32 21t38 8zM623 459q14 0 23 9t10 24t-9 23t-24 10t-23 -9t-10 -24t9 -23t24 -10zM950 524q41 0 69 -28t29 -70t-28 -69t-70 -29t-69 28t-29 70t28 69t70 29zM950 393q10 0 18 5t13 14t3 20
t-9 17t-17 9t-19 -1t-15 -12t-6 -19q0 -13 9 -23t23 -10zM688 262q41 0 69 -28t29 -70t-28 -69t-70 -29t-69 28t-29 70t28 69t70 29zM688 131q14 0 23 9t10 24t-9 23t-24 10t-23 -9t-10 -24t9 -23t24 -10z" />
</svg>
