<?xml version="1.0" standalone="no"?>
<!DOCTYPE svg PUBLIC "-//W3C//DTD SVG 1.1//EN" "http://www.w3.org/Graphics/SVG/1.1/DTD/svg11.dtd" >
<svg xmlns="http://www.w3.org/2000/svg" xmlns:xlink="http://www.w3.org/1999/xlink" version="1.1" viewBox="-10 0 1034 1024">
   <path fill="currentColor"
d="M262 590q-60 0 -109 33t-73 89t-11 113t54 101t101 54t114 -11t88 -73t33 -110q0 -53 -26 -98t-72 -71t-99 -27zM262 950q-45 0 -82 -22t-60 -59t-22 -83t22 -82t59 -60t83 -22t82 22t60 59t22 83t-22 82t-59 60t-83 22zM950 590h-327q-14 0 -23 9t-10 24v327q0 14 9 23
t24 10h327q14 0 23 -9t10 -24v-327q0 -14 -9 -23t-24 -10zM623 950v-327h327v327h-327zM300 492h449q10 0 15 -8t-1 -17l-224 -393q-5 -8 -14 -8t-15 8l-225 393q-6 8 -1 17t16 8zM524 115l197 344h-393z" />
</svg>
