<?xml version="1.0" standalone="no"?>
<!DOCTYPE svg PUBLIC "-//W3C//DTD SVG 1.1//EN" "http://www.w3.org/Graphics/SVG/1.1/DTD/svg11.dtd" >
<svg xmlns="http://www.w3.org/2000/svg" xmlns:xlink="http://www.w3.org/1999/xlink" version="1.1" viewBox="-10 0 1034 1024">
   <path fill="currentColor"
d="M388 382q-5 -5 -11 -5t-12 5l-131 131q-5 5 -5 11t5 12l131 131q5 5 11 5t12 -5t5 -11t-5 -12l-119 -120l119 -119q5 -5 5 -11t-5 -12zM393 131h-262q-27 0 -46 19t-19 47v655q0 27 19 46t46 20h262q27 0 46 -19t20 -47v-82q0 -7 -5 -12t-11 -5t-12 5t-5 12v82
q0 14 -9 23t-24 10h-262q-14 0 -23 -9t-10 -24v-655q0 -14 9 -23t24 -10h262q14 0 23 9t10 24v82q0 7 5 12t11 5t12 -5t5 -12v-82q0 -27 -19 -46t-47 -20zM918 131h-263q-27 0 -46 19t-19 47v82q0 7 5 12t11 5t12 -5t5 -12v-82q0 -13 9 -23t23 -10h263q13 0 22 10t10 23v655
q0 13 -9 23t-23 10h-263q-13 0 -22 -10t-10 -23v-82q0 -7 -5 -12t-11 -5t-12 5t-5 12v82q0 27 19 46t46 20h263q27 0 46 -19t19 -47v-655q0 -27 -19 -46t-46 -20zM660 667q5 5 11 5t12 -5l131 -131q5 -5 5 -11t-5 -12l-131 -131q-5 -5 -11 -5t-12 5t-5 11t5 12l120 119
l-120 120q-5 5 -5 11t5 12z" />
</svg>
