<?xml version="1.0" standalone="no"?>
<!DOCTYPE svg PUBLIC "-//W3C//DTD SVG 1.1//EN" "http://www.w3.org/Graphics/SVG/1.1/DTD/svg11.dtd" >
<svg xmlns="http://www.w3.org/2000/svg" xmlns:xlink="http://www.w3.org/1999/xlink" version="1.1" viewBox="-10 0 1034 1024">
   <path fill="currentColor"
d="M913 388l-22 22l22 21q5 5 5 11t-5 12t-11 5t-12 -5l-22 -21l-21 21q-5 5 -11 5t-12 -5t-5 -11t5 -12l21 -21l-21 -22q-5 -5 -5 -11t5 -12t11 -5t12 5l21 21l22 -21q5 -5 11 -5t12 5t5 11t-5 12zM377 385q0 27 -16 51l60 60q5 5 5 11t-5 12t-11 5t-12 -5l-60 -60
q-23 16 -51 16q-38 0 -64 -26t-26 -64t26 -64t64 -26t64 26t26 64zM344 385q0 -24 -17 -40t-40 -17t-41 16t-17 41t17 40t41 17t40 -16t17 -41zM967 620h-823q-19 0 -32 -13t-14 -32v-333q0 -19 13 -32t33 -13h823q7 0 11 -5t5 -11t-4 -12t-12 -5h-823q-32 0 -55 23t-23 55
v333q0 32 23 55t55 23h823q7 0 11 -5t5 -11t-4 -12t-12 -5zM983 328v164q0 13 -9 22t-24 10h-393q-14 0 -23 -9t-10 -23v-164q0 -14 10 -23t23 -10h393q14 0 23 9t10 24zM950 492v-164h-393v164h393zM393 754v98q0 14 -9 23t-24 10h-262q-13 0 -22 -10t-10 -23v-98
q0 -13 9 -23t23 -10h262q14 0 23 9t10 24zM360 754h-262v98h262v-98zM983 754v98q0 14 -9 23t-24 10h-458q-14 0 -23 -9t-10 -24v-98q0 -14 9 -23t24 -10h458q14 0 23 9t10 24zM950 754h-458v98h458v-98z" />
</svg>
