<?xml version="1.0" standalone="no"?>
<!DOCTYPE svg PUBLIC "-//W3C//DTD SVG 1.1//EN" "http://www.w3.org/Graphics/SVG/1.1/DTD/svg11.dtd" >
<svg xmlns="http://www.w3.org/2000/svg" xmlns:xlink="http://www.w3.org/1999/xlink" version="1.1" viewBox="-10 0 1035 1024">
   <path fill="currentColor"
d="M973 605l-127 34q-19 5 -38 3t-36 -13l-182 -105l182 -105q17 -10 36 -12t38 3l127 34q4 1 9 1q12 0 21 -8t11 -21t-5 -22t-19 -14l-127 -34q-11 -3 -23 -4q5 -11 8 -22l34 -127q2 -9 0 -17t-8 -15t-15 -8t-17 -1t-15 9t-9 15l-34 127q-10 39 -45 60l-182 105v-217
q0 -19 7 -37t22 -32l93 -93q10 -10 10 -23t-10 -24t-23 -10t-24 10l-93 93q-8 8 -15 18q-7 -10 -15 -18l-93 -93q-6 -7 -15 -10t-18 -1t-15 9t-9 16t1 18t10 15l93 92q14 14 21 32t8 38v217l-182 -105q-17 -10 -29 -25t-17 -35l-34 -127q-1 -10 -7 -17t-15 -11t-19 -1
t-16 10t-8 17t2 19l33 127q3 11 8 22q-12 1 -23 4l-126 34q-12 3 -19 13t-6 23t11 20t22 9q5 0 9 -2l126 -34q19 -5 38 -3t37 13l182 105l-182 105q-17 10 -36 12t-39 -2l-126 -34q-12 -1 -22 5t-13 19t1 23t17 16l127 34q11 3 22 5q-4 11 -7 22l-34 126q-3 13 3 24t20 16
q4 2 9 2q11 0 19 -7t12 -18l34 -126q5 -19 17 -34t29 -26l182 -105v217q0 19 -7 37t-22 32l-93 93q-8 6 -11 15t-2 18t9 17t16 9t19 -1t15 -12l93 -92q8 -8 15 -18q7 10 15 18l93 92q6 7 15 10t18 1t15 -8t9 -16t0 -18t-10 -15l-93 -93q-14 -14 -21 -32t-8 -37v-217l182 105
q17 10 29 25t17 35l34 127q3 10 11 17t20 7q5 0 9 -1q13 -4 19 -15t4 -25l-34 -127q-3 -11 -8 -22q12 -1 23 -4l127 -34q9 -2 15 -8t8 -15t1 -17t-9 -15t-14 -9t-18 0z" />
</svg>
