<?xml version="1.0" standalone="no"?>
<!DOCTYPE svg PUBLIC "-//W3C//DTD SVG 1.1//EN" "http://www.w3.org/Graphics/SVG/1.1/DTD/svg11.dtd" >
<svg xmlns="http://www.w3.org/2000/svg" xmlns:xlink="http://www.w3.org/1999/xlink" version="1.1" viewBox="-10 0 1069 1024">
   <path fill="currentColor"
d="M927 796l-141 141v-314q-2 -12 -11 -19t-21 -8t-22 7t-11 20v314l-141 -141q-10 -7 -22 -6t-20 9t-10 21t6 22l196 197q10 10 23 10t24 -10l197 -197q8 -10 8 -23t-10 -22t-22 -9t-23 8zM1016 66h-983q-13 0 -23 9t-10 23v721q0 14 9 23t24 10h327q14 0 23 -9t10 -24
v-360h623q14 0 23 -9t10 -24v-328q0 -13 -10 -22t-23 -10zM328 786h-262v-131h262v131zM328 590h-262v-131h262v131zM328 393h-262v-131h262v131zM655 393h-262v-131h262v131zM983 393h-262v-131h262v131zM983 197h-917v-66h917v66z" />
</svg>
