<?xml version="1.0" standalone="no"?>
<!DOCTYPE svg PUBLIC "-//W3C//DTD SVG 1.1//EN" "http://www.w3.org/Graphics/SVG/1.1/DTD/svg11.dtd" >
<svg xmlns="http://www.w3.org/2000/svg" xmlns:xlink="http://www.w3.org/1999/xlink" version="1.1" viewBox="-10 0 1034 1024">
   <path fill="currentColor"
d="M918 131h-787q-27 0 -46 19t-19 47v655q0 27 19 46t46 20h787q27 0 46 -19t19 -47v-655q0 -27 -19 -46t-46 -20zM950 197v98h-262v-131h230q13 0 22 10t10 23zM393 164h262v131h-262v-131zM918 885h-787q-14 0 -23 -9t-10 -24v-655q0 -14 9 -23t24 -10h229v147q0 7 5 12
t12 5h573v524q0 13 -9 23t-23 10z" />
</svg>
