<?xml version="1.0" standalone="no"?>
<!DOCTYPE svg PUBLIC "-//W3C//DTD SVG 1.1//EN" "http://www.w3.org/Graphics/SVG/1.1/DTD/svg11.dtd" >
<svg xmlns="http://www.w3.org/2000/svg" xmlns:xlink="http://www.w3.org/1999/xlink" version="1.1" viewBox="-10 0 1070 1024">
   <path fill="currentColor"
d="M315 335q-10 -8 -23 -7t-22 12l-106 132l-106 -132q-9 -9 -21 -9t-22 7t-12 20t4 23l115 143l-115 144q-6 11 -4 23t11 20t22 8t22 -10l106 -132l105 132q10 12 26 12q9 0 17 -5t12 -13t4 -18t-7 -17l-115 -144l115 -143q8 -11 7 -24t-13 -22zM663 340l-106 132
l-105 -132q-8 -11 -22 -12t-24 6t-12 22t6 25l124 155v152q0 14 9 23t24 10t23 -9t10 -24v-152l124 -155q6 -11 4 -23t-11 -20t-22 -8t-22 10zM1016 655h-139l167 -278q4 -8 4 -16t-4 -16t-11 -12t-17 -5h-197q-12 2 -19 11t-8 21t7 22t20 11h139l-167 278q-5 8 -5 16t4 17
t12 12t17 5h197q14 0 23 -9t10 -24t-9 -23t-24 -10z" />
</svg>
