<?xml version="1.0" standalone="no"?>
<!DOCTYPE svg PUBLIC "-//W3C//DTD SVG 1.1//EN" "http://www.w3.org/Graphics/SVG/1.1/DTD/svg11.dtd" >
<svg xmlns="http://www.w3.org/2000/svg" xmlns:xlink="http://www.w3.org/1999/xlink" version="1.1" viewBox="-10 0 1034 1024">
   <path fill="currentColor"
d="M393 360q-45 0 -82 22t-60 59t-22 83t22 82t59 60t83 22t82 -22t60 -59t22 -83t-22 -82t-59 -60t-83 -22zM393 655q-36 0 -66 -17t-47 -48t-18 -66t17 -66t48 -47t66 -18t66 17t47 48t18 66t-17 66t-48 47t-66 18zM655 197h-262q-86 5 -158 50q-70 45 -110 117
q-42 75 -42 160t42 161q40 72 110 117q72 45 158 50h262q86 -5 158 -50q70 -45 110 -117q42 -75 42 -160t-42 -161q-40 -72 -110 -117q-72 -45 -158 -50zM655 819h-262q-80 0 -149 -40q-67 -39 -106 -106q-40 -69 -40 -149t40 -149q39 -67 106 -106q69 -40 149 -40h262
q80 0 149 40q67 39 106 106q40 69 40 149t-40 149q-39 67 -106 106q-69 40 -149 40z" />
</svg>
