<?xml version="1.0" standalone="no"?>
<!DOCTYPE svg PUBLIC "-//W3C//DTD SVG 1.1//EN" "http://www.w3.org/Graphics/SVG/1.1/DTD/svg11.dtd" >
<svg xmlns="http://www.w3.org/2000/svg" xmlns:xlink="http://www.w3.org/1999/xlink" version="1.1" viewBox="-10 0 1034 1024">
   <path fill="currentColor"
d="M950 131h-229v-98q0 -14 -9 -23t-24 -10h-328q-13 0 -22 10t-10 23v98h-230q-14 0 -23 9t-10 24t9 23t24 10h68l63 821q1 13 10 22t23 9h524q13 0 22 -9t11 -22l63 -821h68q14 0 23 -9t10 -24t-9 -23t-24 -10zM393 66h262v65h-262v-65zM756 983h-464l-60 -786h585z
M426 918q14 0 23 -9t10 -24v-525q0 -14 -9 -23t-24 -10t-23 9t-10 24v525q0 14 9 23t24 10zM623 918q13 0 22 -10t10 -23v-525q-2 -12 -11 -19t-21 -8t-22 7t-11 20v525q0 14 9 23t24 10z" />
</svg>
