<?xml version="1.0" standalone="no"?>
<!DOCTYPE svg PUBLIC "-//W3C//DTD SVG 1.1//EN" "http://www.w3.org/Graphics/SVG/1.1/DTD/svg11.dtd" >
<svg xmlns="http://www.w3.org/2000/svg" xmlns:xlink="http://www.w3.org/1999/xlink" version="1.1" viewBox="-10 0 1034 1024">
   <path fill="currentColor"
d="M889 338v24q0 95 -35 188q-36 97 -103 172q-71 82 -167 126q-105 49 -230 49q-155 0 -288 -84q14 2 45 2q65 0 126 -22q59 -20 107 -58q-61 -1 -109 -38t-67 -93q12 2 37 2t49 -6q-44 -8 -78 -34t-54 -66t-20 -84v-2q37 21 86 24q-39 -27 -61 -68t-23 -89q0 -53 25 -95
q70 87 170 139q102 52 219 58q-6 -21 -6 -43q0 -51 25 -94t69 -68t94 -26q82 0 138 59q59 -11 120 -45q-11 32 -32 58t-52 44q49 -3 109 -28q-38 57 -94 98z" />
</svg>
