<?xml version="1.0" standalone="no"?>
<!DOCTYPE svg PUBLIC "-//W3C//DTD SVG 1.1//EN" "http://www.w3.org/Graphics/SVG/1.1/DTD/svg11.dtd" >
<svg xmlns="http://www.w3.org/2000/svg" xmlns:xlink="http://www.w3.org/1999/xlink" version="1.1" viewBox="-10 0 1034 1024">
   <path fill="currentColor"
d="M164 66h721q41 0 69 28t29 70v196q-2 12 -11 19t-21 8t-22 -7t-11 -20v-196q0 -14 -9 -23t-24 -10h-721q-14 0 -23 9t-10 24v721q0 14 9 23t24 10h557q41 0 78 -16t65 -45t42 -68t12 -79q-5 -53 -34 -96t-76 -67t-100 -23h-334l141 141q9 10 9 23t-9 23t-23 10t-24 -10
l-196 -196q-10 -10 -10 -23t10 -24l196 -196q10 -8 22 -8t22 9t10 22t-7 23l-141 141h334q70 -1 131 31t99 90t45 127q3 54 -15 104t-56 90t-87 61t-104 21h-557q-41 0 -69 -28t-29 -70v-721q0 -41 28 -69t70 -29z" />
</svg>
