<?xml version="1.0" standalone="no"?>
<!DOCTYPE svg PUBLIC "-//W3C//DTD SVG 1.1//EN" "http://www.w3.org/Graphics/SVG/1.1/DTD/svg11.dtd" >
<svg xmlns="http://www.w3.org/2000/svg" xmlns:xlink="http://www.w3.org/1999/xlink" version="1.1" viewBox="-10 0 1069 1024">
   <path fill="currentColor"
d="M970 773l-223 -91q-14 -5 -25 -19q-9 -11 -14 -27l-13 -46q56 -46 89 -114q35 -71 35 -148q0 -90 -40 -167q-39 -74 -106 -117t-149 -44t-148 43t-107 118q-40 77 -40 167q0 82 32 149t93 113l-13 46q-14 37 -40 46l-222 91q-35 15 -57 47t-22 71v125q0 14 9 23t24 10
h983q14 0 23 -9t10 -24v-125q0 -38 -22 -70t-57 -48zM295 328q0 -71 32 -132q31 -59 83 -94t114 -36t114 35t84 95q32 61 32 132t-32 132q-31 59 -83 94t-115 36t-114 -35t-84 -96t-31 -131zM983 983h-917v-92q0 -21 10 -37t29 -22l223 -91q28 -10 49 -37q18 -23 29 -55
l7 -20q43 26 110 26t119 -26l7 20q21 63 78 92l223 91q40 20 40 59v92h-7z" />
</svg>
