<?xml version="1.0" standalone="no"?>
<!DOCTYPE svg PUBLIC "-//W3C//DTD SVG 1.1//EN" "http://www.w3.org/Graphics/SVG/1.1/DTD/svg11.dtd" >
<svg xmlns="http://www.w3.org/2000/svg" xmlns:xlink="http://www.w3.org/1999/xlink" version="1.1" viewBox="-10 0 1069 1024">
   <path fill="currentColor"
d="M918 459h-328q-35 0 -65 17t-48 48t-18 66v328q0 35 17 65t48 48t66 18h328q35 0 65 -17t48 -48t18 -66v-328q0 -35 -17 -65t-48 -48t-66 -18zM983 918q0 29 -18 47t-47 18h-328q-29 0 -47 -18t-19 -47v-328q0 -29 18 -47t48 -19h328q29 0 47 18t18 48v328zM859 629
l-171 171l-39 -40q-10 -10 -23 -10t-23 10t-10 23t10 23l65 66q5 4 11 5q5 1 16 1t16 -1t10 -5l197 -197q10 -10 10 -23t-9 -22t-30 -8q-17 1 -30 7zM262 295q0 -62 26 -114t71 -84t100 -31t100 31t70 83t26 115q0 50 -19 98h72l3 -14q10 -56 10 -84q0 -81 -36 -149
q-35 -67 -95 -106t-131 -40t-131 39t-95 107q-36 68 -36 149q0 72 28 133q26 58 76 103l-6 20q-6 17 -12 24q-7 10 -21 15l-190 78q-35 15 -53 44t-19 68v105q0 14 9 23t24 10h360v-66h-327v-72q0 -15 9 -28t23 -18l190 -79q24 -10 42 -31t24 -47q6 -3 13 -3q4 0 13 1t13 2
q0 -23 13 -66q-42 -9 -74 -40t-51 -78t-19 -98z" />
</svg>
