<?xml version="1.0" standalone="no"?>
<!DOCTYPE svg PUBLIC "-//W3C//DTD SVG 1.1//EN" "http://www.w3.org/Graphics/SVG/1.1/DTD/svg11.dtd" >
<svg xmlns="http://www.w3.org/2000/svg" xmlns:xlink="http://www.w3.org/1999/xlink" version="1.1" viewBox="-10 0 1070 1024">
   <path fill="currentColor"
d="M803 557q-67 0 -123 33t-90 89t-33 124t33 123t89 90t124 33t123 -33t90 -89t33 -124t-33 -123t-89 -90t-124 -33zM999 721h-91q-16 -68 -57 -125q50 12 89 45t59 80zM885 803q0 25 -4 49h-156q-8 -49 0 -98h156q4 24 4 49zM803 590h2q50 58 69 131h-142q19 -73 68 -131
h3zM754 596q-40 57 -56 125h-92q20 -47 59 -80t89 -45zM590 803q0 -25 6 -49h96q-8 49 0 98h-96q-6 -24 -6 -49zM606 885h92q16 68 56 125q-50 -12 -89 -45t-59 -80zM803 1016h-3q-49 -58 -68 -131h142q-19 73 -69 131h-2zM851 1010q41 -57 57 -125h91q-20 47 -59 80t-89 45
zM914 852q8 -49 0 -98h96q12 49 0 98h-96zM475 885h-115v-557h590v147q0 7 5 11t11 5t12 -4t5 -12v-278q0 -27 -19 -46t-46 -20h-787q-27 0 -46 19t-19 47v655q0 27 19 46t46 20h344q7 0 12 -5t5 -11t-5 -12t-12 -5zM98 197q0 -14 9 -23t24 -10h787q13 0 22 10t10 23v98
h-852v-98zM328 885h-197q-14 0 -23 -9t-10 -24v-524h230v557z" />
</svg>
