<?xml version="1.0" standalone="no"?>
<!DOCTYPE svg PUBLIC "-//W3C//DTD SVG 1.1//EN" "http://www.w3.org/Graphics/SVG/1.1/DTD/svg11.dtd" >
<svg xmlns="http://www.w3.org/2000/svg" xmlns:xlink="http://www.w3.org/1999/xlink" version="1.1" viewBox="-10 0 1070 1024">
   <path fill="currentColor"
d="M1042 823l-327 -262q-8 -6 -17 -2t-9 14l-1 416q0 5 3 9t7 5t7 2q7 0 12 -6l112 -133l82 173q3 6 9 8t12 0t9 -9t-1 -13l-82 -173h174q5 0 9 -3t7 -8t0 -10t-6 -8zM833 819q-8 0 -13 6l-99 119v-336l264 211h-152zM541 819h-181v-557h590v246q0 7 5 11t11 5t12 -4t5 -12
v-377q0 -27 -19 -46t-46 -19h-787q-27 0 -46 19t-19 46v655q0 27 19 46t46 20h410q7 0 12 -5t5 -11t-5 -12t-12 -5zM98 131q0 -14 9 -23t24 -10h787q13 0 22 10t10 23v98h-852v-98zM328 819h-197q-14 0 -23 -9t-10 -24v-524h230v557z" />
</svg>
