<?xml version="1.0" standalone="no"?>
<!DOCTYPE svg PUBLIC "-//W3C//DTD SVG 1.1//EN" "http://www.w3.org/Graphics/SVG/1.1/DTD/svg11.dtd" >
<svg xmlns="http://www.w3.org/2000/svg" xmlns:xlink="http://www.w3.org/1999/xlink" version="1.1" viewBox="-10 0 1052 1024">
   <path fill="currentColor"
d="M1028 254q-3 -17 -18 -24t-31 1l-187 111l-65 -108l185 -108q15 -9 16 -26t-13 -29q-46 -33 -101 -46q-64 -15 -128 -1t-116 54t-80 100t-29 125v43q0 37 -26 63l-374 375q-33 32 -42 77t11 88q15 33 44 54t64 28q11 2 23 2q29 0 55 -11t47 -32l345 -345q27 -27 63 -41
t74 -15q63 0 121 -26t99 -75t57 -110t6 -124zM914 446q-31 37 -75 57t-92 20h-2q-51 0 -99 20t-84 56l-345 345q-15 15 -35 20t-41 -1t-36 -21t-20 -35t1 -41t21 -36l374 -374q22 -22 34 -50t12 -60v-43q0 -44 16 -84t48 -72t71 -48t85 -17q26 0 52 6q16 4 31 10l-136 79
q-23 13 -29 38t6 48l64 112q13 23 38 29t48 -6l145 -84q-2 36 -15 70t-37 62zM176 840q-14 0 -23 9t-10 24t9 23t24 10t23 -9t10 -24t-9 -23t-24 -10z" />
</svg>
