<?xml version="1.0" standalone="no"?>
<!DOCTYPE svg PUBLIC "-//W3C//DTD SVG 1.1//EN" "http://www.w3.org/Graphics/SVG/1.1/DTD/svg11.dtd" >
<svg xmlns="http://www.w3.org/2000/svg" xmlns:xlink="http://www.w3.org/1999/xlink" version="1.1" viewBox="-10 0 1034 1024">
   <path fill="currentColor"
d="M602 598q-18 0 -35 18v-77h-32v241h32v-18q19 20 35 20q10 0 17 -5t10 -15q2 -6 2 -35v-74q0 -28 -2 -35q-3 -10 -10 -15t-17 -5zM598 729q0 25 -14 25q-9 0 -17 -9v-110q8 -8 17 -8q14 0 14 24v78zM475 737q-6 9 -11 13t-11 4t-7 -9l-2 -12v-133h-30v143q0 21 2 27
q3 12 20 12q20 0 39 -22v20h31v-180h-31v137zM295 571h37v209h37v-209h39v-32h-113v32zM707 598q-27 0 -39 18q-6 6 -8 16t-3 27v62q0 33 11 43q12 18 38 18t39 -18q9 -11 9 -21l2 -20v-4h-35v20q-1 8 -4 11t-10 4q-9 0 -13 -6t-4 -19v-33h66v-36q0 -30 -11 -44
q-15 -18 -38 -18zM723 670h-33v-19q0 -12 4 -18t13 -6q16 0 16 24v19zM516 414q9 0 12 -6t4 -19v-78q0 -12 -3 -18t-13 -6q-14 0 -14 24v78q0 25 14 25zM852 66h-655q-35 0 -65 17t-48 48t-18 66v655q0 35 17 65t48 48t66 18h655q35 0 65 -17t48 -48t18 -66v-655
q0 -35 -17 -65t-48 -48t-66 -18zM592 260h35v146q0 4 2 6t6 2q9 0 20 -15v-139h33v182h-33v-20q-22 22 -39 22t-20 -14q-4 -8 -4 -27v-143zM469 317q0 -30 10 -41q13 -20 37 -20q28 0 39 20q10 11 10 41v66q0 30 -10 43q-6 9 -16 13t-23 5q-25 0 -37 -18q-10 -13 -10 -43
v-66zM379 197l27 96l24 -96h37l-43 145v100h-37v-100q-9 -40 -22 -78l-25 -67h39zM786 791q-6 22 -22 37t-37 16q-45 5 -101 7q-34 1 -102 1t-101 -1q-56 -2 -101 -7q-21 -1 -37 -16t-23 -37q-5 -27 -7 -64q-1 -21 -1 -64t1 -65q2 -36 7 -63q6 -22 22 -36t38 -18
q45 -4 101 -5q34 -1 101 -1t101 1q57 1 102 5q22 3 37 17t22 37q6 27 8 63q1 22 1 65t-1 64q-2 37 -8 64z" />
</svg>
