<?xml version="1.0" standalone="no"?>
<!DOCTYPE svg PUBLIC "-//W3C//DTD SVG 1.1//EN" "http://www.w3.org/Graphics/SVG/1.1/DTD/svg11.dtd" >
<svg xmlns="http://www.w3.org/2000/svg" xmlns:xlink="http://www.w3.org/1999/xlink" version="1.1" viewBox="-10 0 1034 1024">
   <path fill="currentColor"
d="M891 897q-8 31 -30 52t-52 24q-63 7 -142 9q-48 1 -142 1t-143 -1q-79 -2 -142 -9q-29 -3 -51 -24t-31 -52q-9 -38 -11 -88q-2 -30 -2 -90t2 -90q2 -50 11 -88q8 -31 31 -52t53 -24q61 -7 140 -9q48 -1 142 -1t143 1q79 2 142 9q29 3 51 23t31 51q8 38 11 89q1 30 1 90
t-1 91q-3 50 -11 88zM362 592v-49h-159v49h53v291h51v-291h55zM444 66l-61 204v138h-51v-138q-6 -33 -31 -108q-6 -17 -16 -49t-17 -47h54l36 135l35 -135h51zM500 883v-254h-45v194q-15 21 -31 21q-7 0 -10 -10v-205h-45v200q0 17 1 24q0 10 3 15q6 19 28 19q26 0 54 -31
v27h45zM582 326q0 43 -15 59q-18 27 -53 27t-53 -27q-15 -18 -15 -59v-90q0 -42 15 -60q9 -14 21 -20t32 -6q36 0 53 26q15 16 15 60v90zM537 227q0 -18 -6 -27t-17 -10t-17 9t-5 28v107q0 19 5 28t16 9t18 -9t6 -28v-107zM674 707q0 -30 -4 -52q-9 -28 -36 -28t-48 26v-110
h-45v340h45v-25q21 29 47 29q28 0 37 -29q3 -7 4 -20v-31v-100zM629 811q0 17 -5 26t-16 9q-13 0 -22 -12v-154q9 -12 22 -12q10 0 15 9t6 25v109zM754 410h-47v-29q-15 16 -27 23t-27 8q-22 0 -28 -19q-3 -5 -3 -15q-1 -7 -1 -24v-200h47v204q0 13 10 13t29 -23v-194h47
v256zM846 795h-45q0 13 -2 27v3q-1 11 -6 15t-16 4t-16 -8t-5 -27v-45h90v-51q0 -41 -12 -60q-22 -26 -56 -26t-55 26q-14 23 -14 60v88q0 40 16 59q19 27 55 27t56 -29q8 -16 10 -27v-36zM801 727h-45v-25q0 -34 22 -34t23 34v25z" />
</svg>
