<?xml version="1.0" standalone="no"?>
<!DOCTYPE svg PUBLIC "-//W3C//DTD SVG 1.1//EN" "http://www.w3.org/Graphics/SVG/1.1/DTD/svg11.dtd" >
<svg xmlns="http://www.w3.org/2000/svg" xmlns:xlink="http://www.w3.org/1999/xlink" version="1.1" viewBox="-10 0 1073 1024">
   <path fill="currentColor"
d="M688 524h-98v-98q0 -14 -9 -23t-24 -10t-23 9t-10 24v98h-98q-14 0 -23 9t-10 24t9 23t24 10h98v98q0 14 9 23t24 10t23 -9t10 -24v-98h98q14 0 23 -9t10 -24t-9 -23t-24 -10zM918 0h-787q-36 0 -66 17t-47 48t-18 66v787q0 36 17 66t48 47t66 18h98q14 0 23 -9t10 -24
t-9 -23t-24 -10h-98q-27 0 -46 -19t-19 -46v-787q0 -27 19 -46t46 -19h787q27 0 46 19t19 46v98q0 14 9 23t24 10t23 -9t10 -24v-98q0 -36 -17 -66t-48 -47t-66 -18zM833 786q41 -48 63 -107t22 -122q0 -98 -50 -181q-47 -82 -129 -129q-84 -49 -181 -49t-182 49
q-81 48 -129 129q-49 84 -49 181t49 182q47 82 129 129q83 50 181 50q63 0 122 -22t107 -63l207 206q6 8 15 11t18 2t17 -9t9 -16t-1 -19t-12 -15zM557 852q-80 0 -149 -40q-67 -39 -106 -106q-40 -69 -40 -149t40 -149q39 -67 106 -106q69 -40 149 -40t149 40
q67 39 106 106q40 69 40 149t-40 149q-39 67 -106 106q-69 40 -149 40z" />
</svg>
